<svg width="65" height="87" viewBox="0 0 65 87" fill="none" xmlns="http://www.w3.org/2000/svg">
<path opacity="0.6" d="M0 83.88L31.537 50.64C36.0309 45.92 39.4012 41.64 41.6481 37.8C43.9753 33.96 45.1389 30.2 45.1389 26.52C45.1389 22.84 44.1358 20 42.1296 18C40.2037 15.92 37.3951 14.88 33.7037 14.88C29.6914 14.88 26.5617 16.12 24.3148 18.6C22.0679 21.08 20.6235 25.08 19.9815 30.6H2.28704C2.76852 20.68 5.8179 13.12 11.4352 7.92C17.0525 2.64 24.7562 0 34.5463 0C43.6944 0 51.0772 2.4 56.6944 7.2C61.8302 12.08 64.3981 18.36 64.3981 26.04C64.3981 31.4 62.9938 36.52 60.1852 41.4C57.3765 46.2 53.2438 51.2 47.787 56.4L31.537 72.24H65V87H0V83.88Z" fill="url(#paint0_linear_44_561)"/>
<defs>
<linearGradient id="paint0_linear_44_561" x1="34.2736" y1="-41.3013" x2="34.2736" y2="171.082" gradientUnits="userSpaceOnUse">
<stop stop-color="#45609D"/>
<stop offset="0.616208" stop-color="#162344"/>
</linearGradient>
</defs>
</svg>
