<svg width="109" height="43" fill="none" xmlns="http://www.w3.org/2000/svg"><path fill-rule="evenodd" clip-rule="evenodd" d="M.53 38.372l.521-.184V35.87l.53-.32v6.438H0v-1.57h.53v-2.046zm2.566-.97l.52-.213v-2.976l.531-.378v8.182H2.566v-1.755l.53-.048v-2.812zm2.565-1.124l.521-.252v-3.8l.57-.456v10.247H5.13V39.99l.53-.078v-3.635zm2.566-1.3l.52-.29V29.84l.531-.523v12.7H7.716v-2.434l.53-.096-.019-4.509zm2.566-1.522l.52-.339v-5.972l.53-.61v15.482h-1.581V39.03l.53-.136v-5.439zm2.565-1.764l.53-.398v-7.3l.521-.717v18.74h-1.572v-3.704l.521-.174v-6.447zm2.566-2.075l.53-.465v-8.92l.52-.843v22.628h-1.542v-4.634l.52-.223-.028-7.543zm2.565-2.472l.53-.572V15.705c.174-.358.357-.707.521-1.066v27.378h-1.572V36.2l.521-.271v-8.784zm2.566-3.112l.53-.756V9.86c.183-.485.357-.97.52-1.464v33.62h-1.571v-7.29l.52-.349V24.033zm3.616 17.994h-1.523v-9.191l.52-.446V19.72c.193-.398.367-.786.53-1.184V0h.522l-.049 42.027z" fill="#fff"/><path d="M52.056 27.277V15.462h6.568v1.633h-4.658v2.945h4.658v1.677h-4.658v3.775h4.658v1.785h-6.568zm11.244 0V15.462h2.57c2.882 0 5.595.098 6.889 3.105.355.888.525 1.838.5 2.793a6.97 6.97 0 01-.527 2.776c-1.195 2.81-3.605 3.14-6.344 3.14H63.3zm1.928-1.785h1.606c1.874 0 3.382-.241 4.14-2.186.236-.63.351-1.3.34-1.972a5.301 5.301 0 00-.34-1.973c-.785-2.025-2.418-2.195-4.363-2.195h-1.383v8.326zm15.616 2.186l-5.256-12.225h1.99l2.677 6.247c.273.604.486 1.235.633 1.882.154-.645.366-1.276.634-1.883l2.677-6.246h1.972l-5.327 12.225zm8.54-.401V15.462h6.567v1.633h-4.658v2.945h4.658v1.677h-4.658v3.775h4.658v1.785h-6.567zm9.896 0l3.81-6.158-3.373-5.612h2.008l1.695 2.846c.232.375.428.776.625 1.16.205-.384.419-.767.651-1.142l1.785-2.9h1.963l-3.435 5.56 3.694 6.246h-2.106l-1.972-3.338c-.214-.384-.42-.794-.625-1.187-.196.393-.41.786-.642 1.16l-2.062 3.365H99.28zm-62.92 0v-12.27l7.451 7.183c.451.453.877.93 1.276 1.428v-8.156h1.785v12.225l-7.62-7.317a9.423 9.423 0 01-1.134-1.32v8.227H36.36zm70.361 6.971v-.67h1.981a2.541 2.541 0 01-.713 1.937 2.24 2.24 0 01-1.633.606 2.156 2.156 0 01-1.633-.65 2.444 2.444 0 01-.714-1.786 2.738 2.738 0 01.187-1.008 2.45 2.45 0 01.509-.776c.227-.225.497-.4.794-.518a2.766 2.766 0 012.266.098c.317.17.584.42.777.723l-.58.41a1.79 1.79 0 00-.589-.544 1.617 1.617 0 00-.892-.214 1.781 1.781 0 00-1.277.5c-.163.172-.29.375-.374.598a2.06 2.06 0 00-.134.74c-.011.483.168.951.5 1.303a1.573 1.573 0 001.204.482 1.455 1.455 0 001.071-.428 1.32 1.32 0 00.402-.812l-1.152.009zm-10.538 1.784h-.732v-5.077l3.49 3.64v-3.319h.73v5.086l-3.488-3.64v3.31zM90.15 31.24h.741v4.792h-.74V31.24zm-4.05.688h-1.107v4.104h-.732v-4.104h-1.106v-.688h2.944v.688zm-8.47-.688h.733v4.105h1.41v.687H77.63V31.24zm-8.128 0h.74v2.892c-.021.282.031.565.152.82.088.144.211.264.357.349a1.018 1.018 0 001.07 0c.144-.088.266-.207.358-.348.114-.258.166-.54.151-.821v-2.856h.732v3.079c.017.458-.142.905-.446 1.249a1.705 1.705 0 01-1.33.553 1.784 1.784 0 01-1.338-.553 1.785 1.785 0 01-.446-1.25V31.24zm-4.462.723l-.59.34a.696.696 0 00-.213-.295.812.812 0 00-.518-.179.68.68 0 00-.5.17.536.536 0 00-.178.41c0 .241.17.438.518.58l.481.197a1.522 1.522 0 11-.419 3.016 1.426 1.426 0 01-1.124-.473 1.597 1.597 0 01-.41-.937l.73-.16a1 1 0 00.197.615.784.784 0 00.634.286.76.76 0 00.562-.224.776.776 0 00.232-.58.661.661 0 00-.196-.508 1.596 1.596 0 00-.5-.313l-.464-.196a1.312 1.312 0 01-.973-1.213 1.232 1.232 0 01.375-.893 1.392 1.392 0 011.026-.366c.35-.014.693.1.964.322.149.12.273.27.366.437v-.036zm-10.708 4.07h-.705v-5.078l3.489 3.64v-3.319h.731v5.086l-3.524-3.64.009 3.31zm-8.835-1.09a1.703 1.703 0 001.267.51 1.723 1.723 0 001.277-.51 1.972 1.972 0 000-2.605 1.722 1.722 0 00-1.276-.509 1.706 1.706 0 00-1.268.509 1.972 1.972 0 000 2.606zm-.517-3.078a2.57 2.57 0 11-.714 1.785 2.418 2.418 0 01.705-1.75l.009-.035zm-4.801-.366v.893a1.9 1.9 0 00-1.303-.536 1.659 1.659 0 00-1.267.518 1.829 1.829 0 00-.482 1.311 1.729 1.729 0 00.5 1.276 1.66 1.66 0 001.258.518 1.847 1.847 0 001.294-.553v.892c-.399.24-.856.363-1.32.357a2.446 2.446 0 01-2.473-2.463 2.446 2.446 0 01.777-1.874 2.4 2.4 0 011.731-.624c.448-.02.891.092 1.276.32l.009-.035z" fill="#fff"/></svg>