<svg width="16" height="16" fill="none" xmlns="http://www.w3.org/2000/svg"><path opacity=".5" d="M12.386 8.666a.84.84 0 00-1.19 0l-1.343 1.341c-.622-.185-1.783-.606-2.519-1.341-.735-.736-1.156-1.897-1.341-2.52l1.341-1.341a.84.84 0 000-1.19L3.967.246a.84.84 0 00-1.19 0L.494 2.53c-.32.32-.5.76-.494 1.208.02 1.199.337 5.363 3.619 8.644 3.281 3.282 7.445 3.598 8.645 3.619h.023a1.66 1.66 0 001.183-.494l2.283-2.283a.84.84 0 000-1.19l-3.367-3.368zm-.107 5.65c-1.05-.018-4.646-.3-7.47-3.125C1.975 8.357 1.7 4.75 1.684 3.721l1.688-1.689L5.549 4.21 4.46 5.298a.841.841 0 00-.229.768c.02.097.515 2.392 1.912 3.79 1.398 1.397 3.694 1.892 3.79 1.912.28.06.568-.027.768-.228l1.09-1.089 2.176 2.177-1.688 1.688z" fill="#fff"/></svg>