<svg width="109" height="43" viewBox="0 0 109 43" fill="none" xmlns="http://www.w3.org/2000/svg">
<path fill-rule="evenodd" clip-rule="evenodd" d="M0.530463 38.3717L1.05128 38.1875V35.8705L1.58174 35.5505V41.9878H0V40.4173H0.530463V38.3717ZM3.09597 37.4022L3.61679 37.1889V34.2127L4.14726 33.8346V42.0169H2.56551V40.2622L3.09597 40.2137V37.4022ZM5.66149 36.2776L6.1823 36.0256V32.2252L6.75135 31.7696V42.0169H5.13102V39.9907L5.66149 39.9131V36.2776ZM8.227 34.9785L8.74782 34.6877V29.8403L9.27828 29.3168V42.0169H7.71583V39.5835L8.24629 39.4866L8.227 34.9785ZM10.7925 33.4565L11.3133 33.1172V27.1452L11.8438 26.5344V42.0169H10.262V39.0309L10.7925 38.8952V33.4565ZM13.358 31.692L13.8885 31.2945V23.9944L14.4093 23.277V42.0169H12.8372V38.3135L13.358 38.139V31.692ZM15.9235 29.6174L16.454 29.152V20.2329L16.9748 19.3894V42.0169H15.4317V37.3828L15.9525 37.1599L15.9235 29.6174ZM18.489 27.1452L19.0195 26.5732V15.7054C19.1931 15.3467 19.3764 14.9977 19.5403 14.639V42.0169H17.9682V36.2001L18.489 35.9286V27.1452ZM21.0546 24.0332L21.585 23.277V9.85953C21.7683 9.37479 21.9419 8.89006 22.1058 8.39563V42.0169H20.5337V34.7265L21.0546 34.3775V24.0332ZM24.6714 42.0266H23.1475V32.836L23.6683 32.39V19.7191C23.8612 19.3216 24.0348 18.9338 24.1988 18.5363V0H24.7196L24.6714 42.0266Z" fill="white"/>
<path d="M52.0565 27.2766V15.4619H58.6242V17.0949H53.9662V20.0397H58.6242V21.7173H53.9662V25.4919H58.6242V27.2766H52.0565ZM63.3001 27.2766V15.4619H65.8701C68.7524 15.4619 71.4651 15.5601 72.759 18.5673C73.1139 19.4546 73.2839 20.405 73.2587 21.3604C73.2745 22.3117 73.0953 23.2561 72.7323 24.1356C71.5365 26.9465 69.1272 27.2766 66.3877 27.2766H63.3001ZM65.2276 25.4919H66.8338C68.7078 25.4919 70.2158 25.251 70.9743 23.3057C71.2103 22.6755 71.3253 22.0064 71.3134 21.3336C71.3266 20.6607 71.2115 19.9914 70.9743 19.3615C70.1891 17.3359 68.5561 17.1663 66.6107 17.1663H65.2276V25.4919ZM80.8437 27.6782L75.5878 15.453H77.5777L80.2547 21.6995C80.5283 22.3043 80.7405 22.9351 80.8883 23.5823C81.0416 22.9367 81.2537 22.3064 81.5219 21.6995L84.1989 15.453H86.171L80.8437 27.6782ZM89.3835 27.2766V15.4619H95.9512V17.0949H91.2931V20.0397H95.9512V21.7173H91.2931V25.4919H95.9512V27.2766H89.3835ZM99.2796 27.2766L103.09 21.1194L99.7169 15.5066H101.725L103.42 18.3531C103.652 18.7279 103.848 19.1295 104.045 19.5132C104.25 19.1295 104.464 18.7458 104.696 18.371L106.481 15.4709H108.444L105.009 21.0302L108.703 27.2766H106.597L104.625 23.9392C104.411 23.5555 104.205 23.1451 104 22.7524C103.804 23.1451 103.59 23.5377 103.358 23.9125L101.296 27.2766H99.2796ZM36.3601 27.2766V15.0068L43.8112 22.1902C44.2622 22.6426 44.6882 23.1192 45.0873 23.618V15.4619H46.872V27.6871L39.2513 20.3699C38.8336 19.9656 38.4542 19.5234 38.118 19.0492V27.2766H36.3601Z" fill="white"/>
<path d="M106.721 34.2476V33.5783H108.702C108.725 33.9331 108.674 34.2887 108.551 34.6222C108.428 34.9557 108.236 35.2598 107.989 35.5147C107.771 35.7202 107.514 35.8799 107.234 35.9841C106.953 36.0884 106.655 36.1351 106.356 36.1215C106.053 36.1336 105.751 36.0818 105.47 35.9695C105.188 35.8573 104.934 35.6872 104.723 35.4701C104.49 35.236 104.306 34.9572 104.184 34.6506C104.061 34.3439 104.001 34.0156 104.009 33.6854C104.007 33.3405 104.071 32.9983 104.196 32.6771C104.315 32.3882 104.487 32.1247 104.705 31.9007C104.932 31.6762 105.202 31.5001 105.499 31.3832C105.862 31.2384 106.252 31.1723 106.643 31.1892C107.033 31.2061 107.416 31.3057 107.765 31.4813C108.082 31.6517 108.349 31.9006 108.542 32.2041L107.962 32.6146C107.809 32.3908 107.608 32.2047 107.373 32.0703C107.102 31.9141 106.792 31.8397 106.481 31.8561C106.245 31.8512 106.012 31.8928 105.793 31.9786C105.574 32.0644 105.374 32.1926 105.204 32.3558C105.041 32.5282 104.914 32.7314 104.83 32.9537C104.74 33.1903 104.695 33.4413 104.696 33.6943C104.685 34.1774 104.864 34.6455 105.196 34.9972C105.351 35.1582 105.538 35.2844 105.746 35.3675C105.954 35.4506 106.177 35.4886 106.4 35.479C106.598 35.4844 106.796 35.4492 106.98 35.3755C107.164 35.3019 107.331 35.1913 107.471 35.0507C107.697 34.8363 107.839 34.5485 107.873 34.2387L106.721 34.2476ZM96.1828 36.0323H95.4511V30.9548L98.9402 34.5956V31.2761H99.6719V36.3625L96.1828 32.7217V36.0323ZM90.1505 31.2404H90.8912V36.0323H90.1505V31.2404ZM86.0993 31.9275H84.9928V36.0323H84.261V31.9275H83.1545V31.2404H86.0993V31.9275ZM77.6309 31.2404H78.3626V35.3452H79.7725V36.0323H77.6309V31.2404ZM69.5016 31.2404H70.2422V34.1316C70.2208 34.4138 70.2731 34.6967 70.3939 34.9526C70.4825 35.0961 70.6051 35.2157 70.7509 35.3006C70.9117 35.4001 71.0971 35.4529 71.2863 35.4529C71.4754 35.4529 71.6608 35.4001 71.8217 35.3006C71.9654 35.213 72.0874 35.094 72.1786 34.9526C72.2934 34.6947 72.3454 34.4134 72.3303 34.1316V31.2761H73.062V34.3547C73.0794 34.813 72.9196 35.2603 72.6159 35.604C72.4481 35.7876 72.2421 35.9323 72.0124 36.0279C71.7827 36.1235 71.5348 36.1676 71.2863 36.1572C71.0369 36.1637 70.7889 36.1178 70.5584 36.0225C70.3278 35.9272 70.1198 35.7846 69.9478 35.604C69.644 35.2603 69.4843 34.813 69.5016 34.3547V31.2404ZM65.0398 31.9632L64.4509 32.3023C64.4069 32.1869 64.333 32.0852 64.2367 32.0078C64.0901 31.8902 63.9071 31.8271 63.7192 31.8293C63.6288 31.8228 63.538 31.8344 63.4521 31.8635C63.3663 31.8926 63.2872 31.9387 63.2194 31.9989C63.1618 32.0504 63.1161 32.1137 63.0852 32.1846C63.0544 32.2554 63.0393 32.3321 63.041 32.4094C63.041 32.6503 63.2105 32.8466 63.5585 32.9894L64.0404 33.1857C64.4404 33.2413 64.8019 33.4535 65.0453 33.7757C65.2888 34.0978 65.3944 34.5035 65.3388 34.9035C65.2831 35.3034 65.0709 35.6649 64.7488 35.9084C64.4266 36.1519 64.021 36.2575 63.621 36.2018C63.4103 36.211 63.2002 36.1733 63.0058 36.0915C62.8114 36.0097 62.6375 35.8859 62.4966 35.7289C62.2608 35.47 62.1166 35.1408 62.0862 34.7919L62.8179 34.6313C62.8133 34.8526 62.8824 35.0692 63.0142 35.247C63.0908 35.3401 63.1878 35.4142 63.2977 35.4637C63.4075 35.5132 63.5273 35.5368 63.6478 35.5326C63.7518 35.5359 63.8553 35.5179 63.9521 35.4795C64.0488 35.4411 64.1366 35.3833 64.2099 35.3095C64.2867 35.2342 64.3469 35.1437 64.3869 35.0438C64.4268 34.944 64.4456 34.8369 64.442 34.7295C64.4473 34.6356 64.4326 34.5417 64.3987 34.4539C64.3649 34.3662 64.3127 34.2867 64.2456 34.2208C64.0999 34.0866 63.9304 33.9807 63.7459 33.9085L63.2819 33.7122C63.0115 33.6401 62.7713 33.4834 62.5963 33.2651C62.4213 33.0468 62.3207 32.7782 62.3092 32.4986C62.3082 32.3323 62.3409 32.1674 62.4053 32.0141C62.4697 31.8607 62.5645 31.722 62.684 31.6062C62.8217 31.4794 62.9835 31.3816 63.1599 31.3188C63.3362 31.2559 63.5234 31.2292 63.7102 31.2404C64.06 31.2257 64.403 31.34 64.674 31.5616C64.8228 31.6826 64.947 31.8311 65.0398 31.9989V31.9632ZM54.3316 36.0323H53.6267V30.9548L57.1158 34.5956V31.2761H57.8475V36.3625L54.3227 32.7217L54.3316 36.0323ZM45.4974 34.9436C45.6621 35.1112 45.8597 35.2429 46.0778 35.3304C46.2959 35.4179 46.5297 35.4594 46.7645 35.4523C47.0007 35.4596 47.2359 35.4182 47.4555 35.3307C47.675 35.2432 47.8742 35.1114 48.0406 34.9436C48.3574 34.5836 48.5322 34.1204 48.5322 33.6408C48.5322 33.1612 48.3574 32.698 48.0406 32.338C47.8742 32.1702 47.675 32.0384 47.4555 31.9509C47.2359 31.8634 47.0007 31.822 46.7645 31.8293C46.5297 31.8222 46.2959 31.8637 46.0778 31.9512C45.8597 32.0388 45.6621 32.1704 45.4974 32.338C45.1805 32.698 45.0058 33.1612 45.0058 33.6408C45.0058 34.1204 45.1805 34.5836 45.4974 34.9436ZM44.9798 31.865C45.3925 31.4341 45.9423 31.1602 46.5348 31.0903C47.1274 31.0204 47.7258 31.1589 48.2274 31.4819C48.729 31.805 49.1026 32.2925 49.2841 32.8609C49.4656 33.4293 49.4436 34.0431 49.2221 34.597C49.0005 35.151 48.593 35.6106 48.0696 35.8971C47.5462 36.1835 46.9394 36.2789 46.3534 36.1669C45.7674 36.0548 45.2386 35.7424 44.8577 35.2831C44.4768 34.8239 44.2676 34.2464 44.2659 33.6497C44.2603 33.3258 44.3198 33.0041 44.4409 32.7037C44.562 32.4032 44.7422 32.1302 44.9709 31.9007L44.9798 31.865ZM40.179 31.4992V32.3915C39.8293 32.0528 39.363 31.8611 38.8762 31.8561C38.6403 31.8473 38.4053 31.8889 38.1868 31.9782C37.9682 32.0674 37.7713 32.2023 37.609 32.3737C37.2811 32.7299 37.1079 33.2016 37.1272 33.6854C37.1192 33.9209 37.1594 34.1556 37.2454 34.375C37.3313 34.5944 37.4611 34.794 37.6269 34.9615C37.7881 35.1317 37.9836 35.2659 38.2005 35.3551C38.4174 35.4443 38.6507 35.4866 38.8851 35.479C39.3725 35.4726 39.8376 35.2737 40.179 34.9258V35.8181C39.7804 36.0572 39.3231 36.1808 38.8583 36.1751C38.5335 36.1786 38.2112 36.1174 37.9103 35.995C37.6093 35.8726 37.3358 35.6915 37.1057 35.4622C36.8756 35.2329 36.6934 34.9601 36.57 34.6596C36.4465 34.3591 36.3841 34.037 36.3865 33.7122C36.3743 33.3625 36.4373 33.0142 36.5712 32.6909C36.7051 32.3676 36.9069 32.0769 37.1628 31.8383C37.3961 31.6254 37.6691 31.4606 37.9662 31.3534C38.2632 31.2462 38.5785 31.1987 38.894 31.2136C39.3416 31.1943 39.785 31.3059 40.1701 31.5349L40.179 31.4992Z" fill="white"/>
</svg>
