<svg width="130" height="26" viewBox="0 0 130 26" fill="none" xmlns="http://www.w3.org/2000/svg">
<path fill-rule="evenodd" clip-rule="evenodd" d="M8.51259 13.6266C8.43547 12.7312 8.7534 11.4618 10.1836 10.7051C10.2272 11.4852 10.2996 12.4529 10.5097 13.1921C9.7568 13.1402 9.18051 13.4802 8.51259 13.6266ZM14.7408 5.11015C15.0909 4.41087 14.5061 4.28438 13.9537 4.54871C13.6638 4.11588 12.8954 3.66315 12.4938 4.05912C12.1359 4.41965 12.6688 4.87963 12.943 5.11659C10.8826 6.38807 6.902 8.87124 8.13826 9.18402C8.76347 9.36679 9.58432 8.56103 10.0635 8.23491C10.0899 8.61474 10.1714 8.98299 10.1921 9.36937C8.67547 9.83731 6.91452 12.2927 7.34338 13.8987C7.09811 13.9597 6.91229 14.0143 6.78931 14.062C6.24601 14.2768 7.23549 15.0688 7.49924 15.093C7.88621 15.187 8.85837 14.7429 9.33309 14.6251C11.5368 14.0598 14.201 14.1642 16.2242 13.199C16.8697 12.8074 16.0093 12.1653 15.1645 12.4803C14.0295 12.5813 12.8954 12.7147 11.7764 12.9343C12.3166 12.1419 11.0958 9.87885 11.4692 7.44518C12.2036 6.90317 13.0123 6.3587 13.7908 5.88081C14.5728 6.2707 16.984 8.10175 17.8518 8.42763C18.0762 8.42717 18.4119 7.80816 18.1779 7.62526C17.039 6.74204 15.9076 5.93932 14.7408 5.11015ZM76.0419 21.6923L76.3623 21.3342L76.7416 20.9106L77.3582 20.2574C77.4556 20.1566 77.5517 20.0589 77.6454 19.9658C77.7398 19.872 77.8352 19.7799 77.929 19.6918V19.6252C77.7496 19.6609 77.6044 19.675 77.4901 19.675C77.3272 19.675 77.1764 19.6609 77.0413 19.6252L76.1446 20.7492L75.4386 21.6159L74.9278 22.2225V19.6252C74.7207 19.6609 74.5151 19.675 74.3155 19.675C74.0985 19.675 73.8929 19.6595 73.701 19.6252V22.2225L73.2146 21.6561L72.7947 21.1465L71.5882 19.6252C71.4395 19.6609 71.2919 19.675 71.1378 19.675C71.0322 19.675 70.8868 19.6595 70.7016 19.6252V19.6918L71.2826 20.27C71.4432 20.4328 71.5706 20.5672 71.6688 20.6715C71.7439 20.7576 71.8214 20.8417 71.8991 20.9269C72.3649 21.4348 72.6833 21.7906 72.848 21.9917L70.5319 25.1957V25.3085L70.8906 25.2916L71.2394 25.2763L71.5973 25.2916L71.9429 25.3085L73.701 22.6792V25.3085C73.8733 25.2884 74.0782 25.2763 74.3155 25.2763L74.6217 25.2971L74.9278 25.3085V22.6792L76.6842 25.3085L77.0373 25.2916L77.3894 25.2763L77.742 25.2926L78.0935 25.3085V25.1957L75.7832 21.9917L76.0419 21.6923ZM14.1864 9.12855C14.5854 9.00206 15.0047 8.64119 14.6728 8.18635C12.918 7.16961 11.0495 9.94075 13.2364 10.9862C13.8281 11.1677 16.0397 10.342 15.0116 9.87113C14.4429 9.61159 13.9987 10.2185 13.6171 9.98545C13.0015 9.43349 13.5642 9.14283 14.1864 9.12855ZM17.4008 10.5525C17.4454 11.078 17.6889 13.361 18.4036 14.7984C18.8498 13.2558 18.781 11.714 18.5349 10.5382C18.3612 9.88493 17.2495 9.82339 17.4008 10.5525ZM17.039 20.71C17.039 20.71 17.0489 20.6991 17.062 20.6991C17.1191 20.6849 17.1664 20.6991 17.2136 20.6753C17.2708 20.6524 17.3179 20.6753 17.3739 20.6519C17.4441 20.6285 17.48 20.6519 17.5251 20.5679C17.5723 20.4995 17.4107 20.3262 17.3523 20.2915C17.283 20.2559 17.1191 20.2239 17.0377 20.2239C16.946 20.2127 16.9 20.2361 16.7956 20.305C16.7028 20.3773 16.6322 20.3855 16.576 20.489C16.5048 20.5827 16.5646 20.6051 16.5646 20.6051L16.6097 20.6407C16.6573 20.7005 16.7844 20.71 16.8652 20.6991C16.9359 20.6991 16.9814 20.71 17.039 20.71ZM23.5783 22.1241C23.5562 22.1817 23.4743 22.2402 23.4423 22.2743C23.4203 22.2981 23.3114 22.3545 23.2803 22.3545C23.2577 22.3553 23.1971 22.3795 23.1742 22.4133C23.1512 22.4372 23.0944 22.4696 23.0469 22.4948C23.0004 22.5052 22.9779 22.4948 22.9203 22.5191C22.8609 22.5424 22.8609 22.5191 22.7929 22.5424C22.712 22.5632 22.6071 22.552 22.6071 22.552C22.6071 22.552 22.4555 22.5424 22.397 22.5424C22.3537 22.5304 22.329 22.5065 22.283 22.4953C22.2371 22.4953 22.1093 22.4385 22.0742 22.3561C22.0374 22.2769 21.991 22.1491 21.9806 22.1257C21.9572 22.1041 21.9468 21.9741 21.9572 21.9412C21.9793 21.8936 21.9468 21.8814 21.9351 21.8814C21.9091 21.8723 21.888 21.7904 21.8987 21.767C21.8987 21.7423 21.9447 21.6271 21.9447 21.4992C21.9327 21.3849 21.9694 21.3944 21.9559 21.2914C21.9447 21.1969 21.9327 21.1164 21.9327 20.9908C21.9447 20.8751 21.9776 20.8278 21.9676 20.7251C21.9676 20.6186 21.9893 20.4475 21.9768 20.3664C21.9664 20.2829 21.9425 20.2144 21.8975 20.1785C21.8403 20.133 21.8048 20.1221 21.7445 20.1221C21.6986 20.1221 21.6306 20.0757 21.5712 20.0757C21.5032 20.0757 21.5032 20.0757 21.4795 20.0645C21.4452 20.0294 21.4318 19.9693 21.4318 19.9693C21.4318 19.9693 21.4088 19.8774 21.4088 19.8332C21.4222 19.7872 21.4206 19.7075 21.444 19.6699C21.4538 19.6374 21.5132 19.5888 21.5591 19.5767C21.5942 19.5542 21.7116 19.5663 21.7441 19.5663C21.7801 19.5663 21.8506 19.533 21.8727 19.5186C21.8961 19.4979 21.9303 19.4979 21.9425 19.4837C21.9655 19.4601 21.9984 19.3445 21.9875 19.3112C21.975 19.2756 21.9651 19.1366 21.9538 19.101C21.9412 19.0646 21.9524 18.965 21.9412 18.9048C21.93 18.8472 21.9651 18.8472 21.9651 18.8126C21.9651 18.7762 22.0106 18.6605 22.0215 18.6375C22.0215 18.6149 22.0669 18.5349 22.1037 18.5102C22.1276 18.4998 22.2076 18.4967 22.2415 18.4868C22.2636 18.4733 22.2636 18.4733 22.309 18.4868C22.3354 18.4868 22.3918 18.5205 22.4031 18.5344C22.4286 18.5465 22.4723 18.6366 22.4962 18.6592C22.5196 18.6839 22.5785 18.835 22.5893 18.8563C22.601 18.8697 22.637 18.9633 22.6591 18.9849C22.682 18.9944 22.7167 19.0326 22.7413 19.0431C22.7764 19.0537 22.7976 19.0997 22.8462 19.1244C22.8917 19.147 22.9039 19.2163 22.9376 19.2267C22.9853 19.2509 23.1222 19.2956 23.1222 19.2956C23.1222 19.2956 23.3214 19.3782 23.3786 19.3782C23.4479 19.3782 23.5403 19.3644 23.5748 19.3766C23.6204 19.3888 23.6701 19.4354 23.6802 19.4683C23.6906 19.5143 23.6906 19.5386 23.6906 19.5632C23.6802 19.5845 23.5644 19.7136 23.5403 19.7469C23.519 19.795 23.3912 19.8999 23.3678 19.9459C23.3444 19.9814 23.2413 20.0363 23.2184 20.061C23.1941 20.0966 23.0785 20.1304 23.019 20.1304C22.9631 20.1447 22.8935 20.1641 22.8691 20.1901C22.8462 20.2135 22.8098 20.2724 22.8233 20.2928C22.8475 20.3159 22.8475 20.3409 22.8705 20.3954C22.8821 20.4461 22.8821 20.5844 22.8821 20.6186C22.8821 20.6433 22.8826 20.7585 22.8705 20.8278C22.8571 20.8842 22.8489 21.0106 22.8489 21.0106C22.8489 21.0106 22.8571 21.1518 22.8489 21.2113C22.8489 21.2575 22.8571 21.3607 22.8722 21.4062C22.8722 21.4534 22.9194 21.5813 22.9194 21.6388C22.9302 21.6929 22.9545 21.7661 22.9765 21.8121C23.0004 21.8484 22.9887 21.8484 23.0225 21.858C23.045 21.8801 23.1971 21.9268 23.1971 21.9268C23.1971 21.9268 23.4519 21.9386 23.4519 21.9611C23.4519 21.9723 23.5445 21.9611 23.567 21.9386C23.5783 21.9268 23.6156 21.9143 23.6252 21.9143C23.6489 21.9143 23.7061 21.949 23.6952 21.9711C23.6827 21.9967 23.6018 22.0663 23.5783 22.1241ZM20.8677 21.5383C20.8322 21.6162 20.8322 21.8035 20.8209 21.8376C20.8209 21.8736 20.7872 21.8832 20.7758 21.9555C20.7758 22.0366 20.7654 22.1379 20.6944 22.1963C20.6125 22.2445 20.6477 22.208 20.5666 22.208C20.486 22.1963 20.3462 22.1054 20.2894 22.0807C20.2423 22.059 20.1963 21.9676 20.1603 21.8957C20.1261 21.8155 20.1261 21.6102 20.0914 21.5162C20.056 21.4231 20.0312 21.0955 20.0199 21.005C20.0199 20.9119 20.0794 20.7489 20.0667 20.7031C20.0546 20.6489 19.9866 20.5168 19.9156 20.5325C19.8455 20.5325 19.7301 20.5076 19.695 20.5325C19.6616 20.5523 19.6366 20.5336 19.601 20.5649C19.5794 20.6009 19.5685 20.6224 19.5685 20.6805C19.5573 20.7489 19.5317 20.843 19.5114 20.9023C19.4989 20.9599 19.4663 20.9599 19.4663 21.0168C19.4663 21.0644 19.4295 21.1454 19.4295 21.1927C19.4195 21.2377 19.3836 21.3182 19.3836 21.3182C19.3836 21.3182 19.362 21.4126 19.3714 21.4837C19.3714 21.5391 19.3152 21.5964 19.3155 21.6544C19.3039 21.7132 19.2817 21.7817 19.2571 21.8397C19.2228 21.9108 19.1289 22.0023 19.0959 22.0287C19.0716 22.0616 19.0261 22.1292 19.0037 22.1533C18.9551 22.1899 18.9461 22.2003 18.9109 22.2349C18.8637 22.2695 18.8278 22.2609 18.7823 22.2609C18.7484 22.2609 18.7129 22.2609 18.6809 22.2496H18.5626C18.5288 22.2349 18.4448 22.1413 18.4102 22.1322C18.3772 22.1322 18.3417 22.0945 18.3304 22.0738C18.3071 22.0512 18.2715 21.9247 18.2593 21.9117C18.2593 21.888 18.2936 21.7389 18.2845 21.7276C18.2845 21.7012 18.2936 21.6236 18.2936 21.5755C18.3071 21.5404 18.3629 21.4603 18.3629 21.4027C18.3772 21.3442 18.4214 21.2653 18.4214 21.2282C18.4336 21.1935 18.4427 21.0894 18.4565 21.0531C18.4565 21.008 18.4799 20.9851 18.4903 20.9379C18.5142 20.9033 18.6173 20.8088 18.6289 20.7749C18.6289 20.7407 18.6887 20.6502 18.6991 20.6025C18.7108 20.5658 18.7108 20.5346 18.6887 20.5198C18.6635 20.5198 18.6406 20.4847 18.596 20.4964C18.5479 20.5089 18.4673 20.5089 18.4313 20.5089C18.4084 20.5107 18.317 20.4744 18.2823 20.4865C18.2468 20.4865 18.2356 20.4744 18.1641 20.4509C18.0943 20.4294 18.0735 20.4294 18.0268 20.3933C17.989 20.3609 17.9444 20.2889 17.9444 20.2889L17.9348 20.2309C17.9348 20.2309 18.0033 20.0463 18.048 19.9892C18.0943 19.9397 18.2914 19.7561 18.3733 19.7348C18.4647 19.7102 18.5578 19.8375 18.5952 19.8479C18.6385 19.8609 18.7672 19.9064 18.8143 19.9297C18.8594 19.9624 18.9742 20.0116 19.0232 19.9986C19.0686 19.9883 19.3822 19.8721 19.4625 19.8601C19.53 19.8471 19.8675 19.812 19.9515 19.8457C20.0182 19.8696 20.3327 19.8903 20.4233 19.951C20.5052 20.0195 20.6684 20.1347 20.6809 20.2287C20.6809 20.3093 20.7954 20.3451 20.8188 20.3895C20.8422 20.4353 20.8782 20.599 20.8547 20.6566C20.8435 20.7151 20.8435 20.8183 20.8782 20.8517C20.9259 20.9014 20.9474 20.9915 20.9366 21.0497C20.9259 21.1181 20.8794 21.1433 20.8794 21.2246C20.8903 21.3174 20.9015 21.4442 20.8677 21.5383ZM17.4272 21.9256C17.38 21.9486 17.0914 22.0403 17.0205 22.111C16.9511 22.1812 16.8584 22.1812 16.7903 22.2037C16.7427 22.2158 16.5797 22.2041 16.4992 22.2041C16.4777 22.2158 16.4538 22.2158 16.4421 22.2158C16.3853 22.2266 16.2805 22.1595 16.2129 22.1595C16.1388 22.1595 16.0253 22.1448 15.9076 22.1357C15.781 22.1248 15.6758 22.0772 15.6177 22.0212C15.5601 21.9637 15.5497 21.8602 15.4903 21.7661C15.4557 21.6842 15.421 21.6162 15.3877 21.5239C15.3629 21.4317 15.3383 21.163 15.3053 21.1276C15.2708 21.0813 15.2798 20.8404 15.2798 20.7251C15.2689 20.6069 15.3271 20.49 15.3271 20.49C15.3271 20.49 15.4427 20.386 15.4764 20.3063C15.5124 20.2361 15.7329 19.9587 15.8013 19.912C15.8828 19.8514 16.125 19.737 16.1838 19.7019C16.2186 19.6902 16.368 19.7145 16.494 19.7258C16.5772 19.737 16.6573 19.7461 16.6925 19.7461C16.7622 19.7461 16.9602 19.7838 17.03 19.815C17.1105 19.8505 17.2384 19.977 17.2851 20.0594C17.3197 20.1402 17.376 20.2676 17.3886 20.3504C17.4008 20.4397 17.4479 20.5233 17.4479 20.6389C17.4494 20.7664 17.3774 20.826 17.3315 20.8594C17.3089 20.894 17.2046 20.9283 17.1599 20.9513C17.1119 20.9769 17.042 20.9058 16.984 20.9392C16.9394 20.9769 16.8233 21.0106 16.777 21.0227C16.7302 21.0457 16.6505 21.0457 16.5772 21.0227C16.5551 21.0106 16.5213 21.0003 16.4984 21.0003C16.4516 21.0003 16.4052 21.0227 16.3945 21.0457C16.3722 21.1029 16.3017 21.2069 16.313 21.2671C16.3243 21.3248 16.3594 21.4742 16.4169 21.4984C16.44 21.5084 16.4629 21.5209 16.4984 21.5209C16.5686 21.5313 16.6505 21.5439 16.6951 21.5313C16.7427 21.5084 16.8471 21.5209 16.8913 21.4872C16.9412 21.439 17.0547 21.417 17.1131 21.4053C17.172 21.4053 17.3315 21.4872 17.402 21.4872C17.4701 21.4872 17.5533 21.6137 17.5407 21.6925C17.5329 21.7739 17.4714 21.9013 17.4272 21.9256ZM14.5654 22.1265C14.529 22.2063 14.4376 22.2557 14.4016 22.2769C14.3661 22.3138 14.3349 22.3372 14.2985 22.3138C14.2626 22.2891 14.2392 22.267 14.1941 22.2557C14.1382 22.2418 13.9737 22.1387 13.9161 22.1041C13.868 22.0785 13.8467 21.9992 13.7632 21.9862C13.6942 21.9676 13.637 21.9298 13.5786 21.9183C13.5218 21.9183 13.2888 21.7929 13.2195 21.7575C13.1501 21.7376 12.9868 21.56 12.9531 21.5391C12.908 21.5045 12.8603 21.4239 12.8364 21.3988C12.8131 21.3637 12.7342 21.2754 12.7213 21.2273C12.6966 21.1909 12.6727 21.1571 12.6727 21.1571C12.6727 21.1571 12.6259 21.0168 12.6161 20.9362C12.6025 20.843 12.6259 20.7282 12.6372 20.6814C12.6506 20.6476 12.719 20.4951 12.7078 20.4483C12.7078 20.4129 12.719 20.3345 12.7416 20.288C12.7658 20.2526 12.9266 20.0671 12.9621 20.0446C12.9962 20.0316 13.17 19.8917 13.2532 19.8696C13.3433 19.8471 13.4126 19.812 13.4725 19.8002C13.5309 19.7899 13.8324 19.7057 13.8536 19.6963C13.8775 19.6799 13.9243 19.7187 13.9477 19.7057C13.9585 19.7057 14.0161 19.6963 14.0615 19.7057C14.1092 19.7187 14.2254 19.7279 14.2361 19.7187C14.2591 19.7057 14.4349 19.8106 14.4558 19.8106C14.4792 19.8106 14.5147 19.854 14.5147 19.8886V20.0195C14.5026 20.0416 14.399 20.0897 14.3856 20.1113C14.3761 20.133 14.2479 20.2508 14.2132 20.2859C14.1677 20.308 14.0525 20.262 13.994 20.2859C13.9355 20.2959 13.75 20.4371 13.7276 20.4725C13.7055 20.516 13.6258 20.5649 13.5993 20.6109C13.5759 20.658 13.5759 20.7139 13.5759 20.7139C13.5759 20.7139 13.6474 20.9123 13.6812 20.9353C13.7276 20.9469 13.7163 20.9794 13.7518 21.0158C13.7731 21.0384 13.89 21.1306 13.9265 21.1433C13.9606 21.1657 14.1002 21.2723 14.1348 21.3026C14.1707 21.3286 14.354 21.4548 14.354 21.4548C14.354 21.4548 14.5165 21.6045 14.5282 21.6998C14.552 21.7904 14.5282 21.7541 14.5446 21.7783C14.5446 21.8025 14.656 21.9169 14.6468 21.9755C14.6343 22.0366 14.5854 22.0573 14.5654 22.1265ZM3.22399 10.2315C3.22399 6.22916 7.36631 2.96141 12.4436 2.96141C17.5199 2.96141 21.6605 6.22916 21.6605 10.2315C21.6605 14.2348 17.5199 17.4999 12.4436 17.4999C7.36631 17.4999 3.22399 14.2348 3.22399 10.2315ZM11.8998 22.2115C11.8769 22.2245 11.808 22.2115 11.7842 22.2245C11.7487 22.2349 11.656 22.2128 11.5987 22.2016H11.5043C11.4706 22.2128 11.4241 22.1899 11.4012 22.1803C11.3796 22.1673 11.3433 22.1422 11.2968 22.1196C11.2484 22.1057 11.1925 22.0512 11.1673 22.0287C11.1465 21.9923 11.088 21.9117 11.088 21.8683C11.0876 21.8186 11.0992 21.6908 11.0992 21.6349C11.0992 21.5763 11.0512 21.4144 11.0174 21.3668C10.9935 21.3338 10.959 21.2506 10.9485 21.2055C10.923 21.1497 10.9363 21.0644 10.9363 21.0306C10.9363 20.9851 10.9719 20.7767 10.9477 20.7443C10.935 20.7082 10.9095 20.6142 10.877 20.6038C10.8302 20.5921 10.8064 20.5471 10.7748 20.5549C10.7476 20.5549 10.7025 20.567 10.7025 20.5921C10.7025 20.6152 10.6578 20.6944 10.6687 20.7455C10.6687 20.7879 10.6236 20.8469 10.6236 20.8932C10.6115 20.9392 10.6466 21.1029 10.6236 21.1614C10.6007 21.2294 10.6236 21.3442 10.6115 21.4144C10.6007 21.4742 10.6236 21.5531 10.6236 21.5531C10.6236 21.5531 10.6249 21.7623 10.6007 21.8328C10.5777 21.8909 10.4507 22.0166 10.4023 22.0403C10.3702 22.0642 10.1964 22.1443 10.1483 22.1443C10.1029 22.1344 10.0241 22.1443 9.98721 22.1102C9.94134 22.0754 9.91793 21.9611 9.87206 21.9364C9.82479 21.9143 9.77927 21.7636 9.77927 21.7281C9.77927 21.6831 9.91618 21.462 9.92917 21.3927C9.93958 21.3225 9.90366 21.1835 9.90366 21.1614C9.90366 21.1363 9.95035 20.9985 9.92917 20.9513C9.90366 20.894 9.87066 20.8248 9.85638 20.7879C9.85638 20.7563 9.85638 20.6649 9.83345 20.6389C9.81133 20.6155 9.77576 20.5488 9.71655 20.5488C9.67138 20.5488 9.59088 20.557 9.54489 20.557C9.4968 20.557 9.40494 20.5358 9.36995 20.5358C9.3249 20.5358 9.25516 20.4773 9.22135 20.4449C9.1853 20.4094 9.16202 20.34 9.13815 20.3036C9.11568 20.2819 9.13639 20.2127 9.13639 20.2127C9.13639 20.2127 9.1853 20.0836 9.24334 20.0265C9.29928 19.9693 9.38025 19.8882 9.40377 19.8747C9.43794 19.8627 9.53143 19.8163 9.58959 19.8163C9.63675 19.8163 9.79835 19.8042 9.85463 19.828C9.9136 19.8614 9.94742 19.9319 10.0648 19.9545C10.1812 19.9892 10.3317 20.0255 10.3551 20.0134C10.3771 20.0134 10.6565 20.036 10.6786 20.036C10.7016 20.0255 10.7735 20.0004 10.829 19.9883C10.8879 19.9883 11.0144 19.9531 11.0482 19.9531C11.085 19.9531 11.212 19.9874 11.2457 20.0246C11.2834 20.0472 11.3631 20.1495 11.3869 20.1625C11.4216 20.1745 11.5152 20.2543 11.5255 20.2771C11.5368 20.2994 11.5611 20.5076 11.571 20.5463C11.5849 20.5913 11.6183 20.7061 11.6321 20.7411C11.643 20.765 11.643 20.9379 11.6659 20.9968C11.6781 21.0401 11.6794 21.1579 11.7005 21.18C11.7231 21.2055 11.7239 21.2611 11.7473 21.2853C11.7712 21.3073 11.8049 21.3642 11.8414 21.4126C11.8769 21.4603 11.8985 21.69 11.9336 21.7246C11.9562 21.7493 11.9908 22.0391 11.9908 22.0828C11.9809 22.1292 11.925 22.1899 11.8998 22.2115ZM8.30208 19.3336C8.30208 19.3792 8.23362 19.5186 8.20975 19.5308C8.18682 19.5542 8.131 19.5767 8.10538 19.5767C8.07074 19.5888 7.95548 19.6097 7.92166 19.6097C7.89744 19.6235 7.8394 19.6472 7.79306 19.6357C7.75702 19.6235 7.71209 19.6235 7.67745 19.5767C7.65311 19.533 7.65311 19.4263 7.62971 19.4138C7.60724 19.3904 7.52405 19.2517 7.52405 19.2517C7.51363 19.2517 7.57249 19.1486 7.59554 19.0785C7.61848 19.0096 7.76826 18.9269 7.79131 18.9168C7.82723 18.8913 7.90832 18.8697 7.93161 18.8697C7.95466 18.8593 8.05763 18.9043 8.05763 18.9043C8.05763 18.9043 8.186 18.9503 8.20975 18.9742C8.23362 18.9962 8.26779 19.0075 8.27996 19.0646C8.29084 19.1244 8.24404 19.16 8.26779 19.1821C8.27996 19.2155 8.31249 19.2969 8.30208 19.3336ZM8.65464 21.3703C8.63908 21.3944 8.62001 21.5209 8.62001 21.5565C8.62001 21.5919 8.59485 21.7661 8.59485 21.7661C8.59485 21.7661 8.57332 21.9386 8.57496 21.9967C8.57496 22.0435 8.56454 22.0772 8.50393 22.1257C8.44589 22.1595 8.42249 22.1366 8.37744 22.1595C8.33145 22.195 8.3531 22.1846 8.28464 22.1846C8.20238 22.1846 8.15733 22.2296 8.10971 22.2296C8.05342 22.2522 7.98403 22.2296 7.913 22.2064C7.85578 22.1863 7.65616 22.1136 7.64481 22.0919C7.64481 22.0677 7.56512 21.9862 7.56512 21.9862C7.56512 21.9862 7.50837 21.9169 7.51878 21.8832C7.54218 21.8484 7.63357 21.8025 7.63357 21.7185C7.64481 21.6396 7.68085 21.501 7.70249 21.433C7.71466 21.3607 7.82981 21.1883 7.8064 21.154C7.8064 21.1059 7.86362 21.1164 7.84198 20.9102C7.81951 20.7005 7.85543 20.5384 7.85543 20.503C7.85543 20.456 7.89744 20.3314 7.89744 20.3314C7.89744 20.3314 8.04862 20.1581 8.09402 20.1325C8.153 20.1109 8.28043 20.1109 8.31331 20.1109C8.34888 20.0988 8.45361 20.1673 8.46672 20.1997C8.49 20.2361 8.51259 20.305 8.51259 20.3773C8.51259 20.4328 8.53728 20.5827 8.54757 20.6303C8.54757 20.6883 8.59403 20.92 8.60702 20.9552C8.61837 20.9782 8.61837 21.163 8.63908 21.2113C8.65464 21.2663 8.66552 21.3368 8.65464 21.3703ZM6.72823 20.817C6.72823 20.8642 6.63684 21.0626 6.63684 21.0626L6.48601 21.2914C6.48601 21.2914 6.33623 21.5045 6.28849 21.5608C6.24227 21.6162 6.18411 21.7801 6.1758 21.8272C6.16118 21.8753 6.12911 21.897 6.10489 21.9797C6.0809 22.0504 5.97793 22.1746 5.93241 22.2107C5.88561 22.2445 5.86185 22.2107 5.79164 22.2445C5.72272 22.2912 5.78158 22.2107 5.70026 22.2574C5.61916 22.3034 5.49185 22.3034 5.42199 22.351C5.3519 22.396 5.04076 22.5823 5.04076 22.5823C5.04076 22.5823 4.95944 22.5597 4.91263 22.6065C4.86407 22.6412 4.6566 22.6296 4.58768 22.6776C4.51923 22.7128 4.33423 22.7226 4.25325 22.7452C4.17064 22.7686 3.97476 22.7566 3.89413 22.7686C3.81012 22.7821 3.63729 22.7136 3.60476 22.7136C3.55713 22.7136 3.37037 22.552 3.37037 22.552C3.37037 22.552 3.13986 22.2383 3.10136 22.1443C3.08018 22.0403 2.99745 21.9034 2.94152 21.8208C2.90466 21.7402 2.84755 21.5664 2.83585 21.5192C2.83585 21.4742 2.82497 21.125 2.79946 21.0344C2.76646 20.9527 2.68326 20.6295 2.68326 20.489C2.66033 20.3396 2.66033 20.2455 2.63658 20.1884C2.61399 20.1525 2.61399 20.0498 2.56812 20.0255C2.53255 20.0004 2.40512 19.8877 2.35668 19.8877C2.31163 19.8877 2.1842 19.795 2.14008 19.795C2.09328 19.795 1.9772 19.782 1.95204 19.809C1.92957 19.8176 1.84895 19.8301 1.80308 19.8393C1.76716 19.8531 1.66219 19.8393 1.6072 19.841C1.53488 19.841 1.4786 19.8301 1.3603 19.7734C1.25721 19.7153 1.18782 19.5741 1.18782 19.5741C1.18782 19.5741 1.2104 19.403 1.26809 19.3099C1.32566 19.2267 1.40804 19.2267 1.42957 19.1799C1.46514 19.1344 1.61504 18.9732 1.69648 18.926C1.78869 18.8909 2.03266 18.8793 2.05466 18.868C2.079 18.868 2.34544 18.9017 2.38008 18.8902C2.41647 18.8793 2.62347 18.9494 2.69368 18.9365C2.76354 18.9248 2.78554 18.9136 2.84311 18.9248C2.89038 18.9248 3.12301 19.0404 3.18151 19.075C3.23698 19.1115 3.30801 19.2822 3.34229 19.3176C3.37646 19.3532 3.54028 19.4555 3.64337 19.4875C3.76109 19.5386 3.79537 19.6772 3.83094 19.7362C3.86511 19.7929 3.87553 20.0685 3.89893 20.1286C3.92187 20.1745 3.9565 20.266 3.9565 20.3135C3.9565 20.3496 3.9111 20.603 3.92444 20.6753C3.93532 20.7295 3.94784 21.0401 3.98295 21.112C4.01723 21.1835 3.97171 21.2974 4.00588 21.333C4.04099 21.3668 4.1112 21.391 4.13378 21.3772C4.16923 21.3668 4.18094 21.3546 4.23933 21.391C4.29655 21.4364 4.35552 21.5409 4.40151 21.563C4.45686 21.5886 4.58768 21.5409 4.6215 21.5409C4.65531 21.5521 4.72541 21.4837 4.78263 21.4915C4.82861 21.5071 4.9702 21.4711 4.9915 21.436C5.02742 21.4014 5.11928 21.2723 5.16561 21.2611C5.2102 21.2393 5.31504 21.18 5.38478 21.1206C5.45499 21.0626 5.55984 20.8764 5.58324 20.856C5.60407 20.8296 5.60407 20.807 5.58324 20.7633C5.55984 20.7031 5.56978 20.4847 5.56978 20.4596C5.56978 20.4241 5.53292 20.3345 5.51139 20.3236C5.47664 20.2994 5.28087 20.1269 5.20938 20.0216C5.14046 19.9294 4.9083 19.6517 4.8732 19.5464C4.8251 19.4433 4.64151 19.2232 4.64151 19.1656C4.63016 19.1089 4.64151 19.062 4.66269 19.0018C4.69779 18.9468 4.7446 18.8983 4.79047 18.8862C4.83552 18.8628 4.85974 18.8979 4.89519 18.8628C4.92995 18.8281 5.02215 18.7813 5.06896 18.7597C5.10407 18.7259 5.21851 18.7579 5.26566 18.7346C5.3003 18.7259 5.36922 18.7121 5.41685 18.7346C5.46318 18.7467 5.52169 18.8026 5.55551 18.8272C5.5905 18.8385 5.74098 18.9433 5.74098 18.9433C5.74098 18.9433 5.86794 19.1279 5.92808 19.1509C5.98577 19.1626 6.20705 19.4061 6.22869 19.4268C6.25034 19.4749 6.33354 19.6825 6.34395 19.7431C6.36818 19.7889 6.54241 20.0316 6.5657 20.1347C6.58828 20.2279 6.71735 20.5272 6.73981 20.6112C6.76509 20.6918 6.74169 20.7723 6.72823 20.817ZM22.397 0.423593H2.49101C1.11983 0.423593 0 1.54565 0 2.91285V22.8188C0 24.1895 1.11983 25.3085 2.49101 25.3085H22.397C23.7655 25.3085 24.8848 24.1895 24.8848 22.8188V2.91285C24.8848 1.54565 23.7655 0.423593 22.397 0.423593ZM100.206 15.375L100.318 14.3678C98.7265 14.5821 96.9136 14.687 94.8844 14.687V8.76347H97.3434C98.3128 8.76347 99.2741 8.83005 100.231 8.95794C100.152 8.47655 100.112 8.13837 100.112 7.94027C100.112 7.8112 100.128 7.64972 100.155 7.46215C100.178 7.27539 100.206 7.10654 100.231 6.95512C99.0223 7.09975 98.0621 7.1737 97.3434 7.1737H94.8844V2.11621C95.9294 2.11621 96.8867 2.14453 97.7576 2.19426C98.6248 2.24937 99.4805 2.32801 100.318 2.43601C100.244 1.90956 100.206 1.5735 100.206 1.42933L100.318 0.423593H91.3726V16.3826H100.318L100.206 15.375ZM36.7372 13.595C36.4599 14.0599 36.107 14.4097 35.6849 14.6513C35.2571 14.8978 34.8245 15.019 34.3904 15.019H33.2112V8.64961H33.4953H33.8151C36.0378 8.64961 37.1483 9.75119 37.1483 11.9543C37.1483 12.5867 37.0108 13.133 36.7372 13.595ZM33.2112 1.7606C33.4604 1.71462 33.6484 1.69156 33.7734 1.69156H34.058H34.4156C35.1999 1.69156 35.8107 1.91272 36.2539 2.35937C36.6937 2.80835 36.9171 3.44737 36.9171 4.28894C36.9171 5.35108 36.5814 6.16387 35.9094 6.72741C35.4531 7.11496 34.7637 7.31049 33.8519 7.31049H33.2112V1.7606ZM39.9906 14.3285C40.5207 13.6369 40.7864 12.7896 40.7864 11.7819C40.7864 10.4852 40.3665 9.5436 39.5214 8.95794C38.6772 8.36796 37.6935 8.01995 36.5646 7.91605V7.70905C37.2369 7.62035 37.8698 7.41277 38.4727 7.08875C39.0684 6.76368 39.5413 6.33483 39.8877 5.80416C40.236 5.27678 40.4069 4.65906 40.4069 3.95709C40.4069 2.69075 39.9622 1.78483 39.0776 1.23743C38.1869 0.695769 37.0754 0.423593 35.74 0.423593H29.7004V16.3826H35.114C36.0665 16.3826 36.9832 16.2127 37.8698 15.8741C38.7521 15.5353 39.4631 15.019 39.9906 14.3285ZM70.5316 8.64809V16.4697L71.4115 16.4299L72.2698 16.3826L73.172 16.4247L74.0408 16.4697V0.423593L73.3776 0.492866L72.7841 0.534757L72.2698 0.557926L71.7779 0.546927L71.208 0.492866L70.5316 0.423593V6.77211L68.747 6.803L66.9502 6.88526L65.2095 6.81658C65.017 6.81658 64.716 6.80663 64.304 6.79516C63.894 6.78042 63.5804 6.77211 63.3665 6.77211V0.423593L62.6917 0.492866L62.0975 0.546927L61.6063 0.557926L61.113 0.546927L60.5325 0.492866L59.8437 0.423593V16.4697L60.7256 16.4299L61.2368 16.3826H61.6063L62.4751 16.4247L63.3665 16.4697V8.64809L65.4402 8.59976L66.9502 8.55635L68.747 8.64809H69.6256H70.5316ZM129.608 1.70303L129.595 1.40628L129.608 1.13259L129.663 0.8012L129.731 0.423593H117.666C117.74 0.933426 117.779 1.26154 117.779 1.40628L117.666 2.41296C118.498 2.29969 119.275 2.21368 120.001 2.16337C120.723 2.10884 121.398 2.08204 122.023 2.08204V16.4697L122.903 16.4299L123.786 16.3826L124.657 16.4247L125.536 16.4697V2.08204C126.424 2.08204 127.829 2.19005 129.731 2.41296L129.663 2.04635L129.608 1.70303ZM89.4713 13.7737L89.1621 13.6369C88.6162 14.1638 87.9579 14.5889 87.1912 14.9135C86.4252 15.2371 85.6873 15.397 84.977 15.397C83.802 15.397 82.7944 15.1123 81.9538 14.5392C81.1143 13.9677 80.4784 13.1597 80.0449 12.1221C79.6106 11.0787 79.3925 9.89898 79.3925 8.58034C79.3925 8.33449 79.4005 8.10795 79.4146 7.89346C79.4313 7.67652 79.4512 7.46776 79.4743 7.25128C79.5248 6.84232 79.608 6.41299 79.7135 5.97196C79.9363 5.11635 80.2592 4.34967 80.684 3.67028C81.1406 2.9593 81.7195 2.40559 82.411 2.00809C83.1063 1.60345 83.9216 1.40628 84.8595 1.40628C85.2108 1.40628 85.5663 1.45754 85.9265 1.55513C86.2841 1.65155 86.648 1.80366 87.0228 1.99873C87.7181 2.38991 88.2922 2.91004 88.7485 3.55701H89.0714C89.1018 3.47253 89.128 3.38184 89.1506 3.28425C89.1741 3.18362 89.1925 3.10393 89.1983 3.04051L89.323 2.40243L89.6072 1.15564C88.9518 0.77335 88.1938 0.4876 87.3307 0.297334C86.8881 0.191904 86.4686 0.113855 86.0608 0.0697408C85.6559 0.024222 85.2501 0 84.8401 0C83.5421 0 82.3256 0.179384 81.193 0.543767C80.0611 0.907098 79.068 1.45754 78.2207 2.19005C77.3694 2.92361 76.706 3.86113 76.2263 4.99466C75.746 6.12712 75.5037 7.42692 75.5037 8.8992C75.5037 10.0511 75.7308 11.1249 76.1795 12.1189C76.6269 13.1141 77.2434 13.9556 78.0247 14.6487C78.8068 15.3388 79.7439 15.8714 80.8339 16.2411C81.9266 16.6161 83.0916 16.8032 84.3253 16.8032C86.0928 16.8032 87.6389 16.4676 88.9596 15.7965L89.4713 13.7737ZM56.6496 0.375968H55.4394L54.5087 1.66102L53.4266 3.11236L51.1715 6.01701C50.3929 6.97806 49.6082 7.9192 48.8222 8.83999C48.3973 9.32958 47.8804 9.91477 47.2769 10.5953C46.9313 10.9807 46.6799 11.2548 46.5345 11.4148V0.423593L45.8602 0.492866L45.2661 0.546927L44.7744 0.557926L44.2809 0.546927L43.7002 0.492866L43.0112 0.423593V16.4697L44.0441 16.453L44.7744 16.4697L46.7635 13.8314L49.2295 10.7318L51.623 7.8112L52.6418 6.59904L53.7013 5.389V16.4697L54.5801 16.4299L55.4394 16.3826L56.3418 16.4247L57.2117 16.4697V0.375968H56.6496ZM115.47 16.4247L116.341 16.4697V0.423593L115.679 0.492866L115.085 0.534757L114.571 0.557926L114.076 0.546927L113.507 0.492866L112.831 0.423593V6.77211L111.047 6.803L109.25 6.88526L107.509 6.81658C107.317 6.81658 107.016 6.80663 106.603 6.79516C106.193 6.78042 105.881 6.77211 105.665 6.77211V0.423593L104.991 0.492866L104.398 0.546927L103.905 0.557926L103.413 0.546927L102.83 0.492866L102.144 0.423593V16.4697L103.025 16.4299L103.536 16.3826H103.905L104.775 16.4247L105.665 16.4697V8.64809L107.738 8.59976L109.25 8.55635L111.047 8.64809H111.927H112.831V16.4697L113.71 16.4299L114.571 16.3826L115.47 16.4247ZM96.9445 24.0286L96.8753 23.5642C96.8612 23.4657 96.8496 23.4021 96.8442 23.3704C96.8416 23.3406 96.8255 23.1906 96.7943 22.9266L96.6345 21.4999L96.4155 19.6252L96.2812 19.651L96.16 19.6675L96.0509 19.675L95.8569 19.6555L95.7113 19.6252L95.4936 20.1048L95.2497 20.6196L94.7207 21.6798L94.1455 22.8046L93.7785 23.527L93.3026 22.5785L92.7625 21.4976L92.3099 20.5748L91.861 19.6252L91.7375 19.651L91.6249 19.6675L91.5232 19.675L91.4221 19.6675L91.3131 19.651L91.1809 19.6252L90.7179 22.9311C90.5977 23.7587 90.4703 24.5537 90.3299 25.3085L90.5287 25.2926L90.7179 25.2763L90.9108 25.2926L91.1084 25.3085C91.1084 24.9133 91.1388 24.3828 91.2045 23.7128C91.2164 23.5773 91.2394 23.3688 91.2723 23.0802C91.2852 22.9563 91.3131 22.7135 91.3575 22.3565C91.4221 21.8224 91.4548 21.5495 91.4548 21.5435L91.9278 22.507L92.4002 23.4746L92.5948 23.8594L93.269 25.2763L93.5842 25.2758L94.0157 24.3667L94.4902 23.3552L94.9834 22.3554L95.4266 21.4604L95.5433 22.5735L95.6337 23.4273L95.6902 23.8615C95.709 24.0266 95.7176 24.1845 95.7176 24.3405C95.7396 24.541 95.7537 24.6896 95.7626 24.7832C95.7715 24.8799 95.7751 24.9484 95.7751 24.9877C95.7751 25.0029 95.7751 25.0275 95.7825 25.0654V25.1631V25.3085L96.1145 25.2926L96.3093 25.285L96.448 25.2763L96.7943 25.2916L97.1442 25.3085L97.0588 24.8296L96.9445 24.0286ZM122.195 19.7604L122.22 19.6252H117.951C117.977 19.8067 117.992 19.9244 117.992 19.9748L117.951 20.332C118.246 20.2916 118.518 20.2629 118.775 20.2437C119.033 20.2233 119.271 20.2142 119.491 20.2142V25.3085L119.803 25.2926L120.117 25.2763L120.426 25.2916L120.735 25.3085V20.2142C121.051 20.2142 121.547 20.2529 122.22 20.332L122.195 20.201L122.176 20.0807L122.172 19.9748L122.176 19.8786L122.195 19.7604ZM48.2841 24.6967L47.5412 24.7078L46.8556 24.6967L46.2881 24.6755C46.3783 24.4159 46.4898 24.1026 46.627 23.7445C46.7702 23.3537 46.9206 22.9659 47.0703 22.5816C47.2466 22.1333 47.433 21.6693 47.6307 21.1872L48.3623 23.1497C48.5612 23.6735 48.74 24.1828 48.8998 24.6755L48.2841 24.6967ZM50.3012 24.6755C49.5324 22.7966 48.8766 21.1083 48.335 19.6096L48.1567 19.6252L48.0746 19.6423H47.9774L47.8997 19.6389L47.8178 19.6324L47.733 19.6096H47.6307L47.1896 20.7892C47.0245 21.2265 46.844 21.6758 46.6515 22.1372L46.1566 23.3351L45.5859 24.6755H45.2243L45.2576 24.9268L45.2714 25.1188L45.2576 25.3648L45.2243 25.5682H45.3506C45.4539 25.437 45.6272 25.3594 45.8678 25.3233C46.1066 25.2926 46.4069 25.2763 46.7686 25.2763H49.2171C49.5113 25.2763 49.7889 25.295 50.0443 25.3322C50.3046 25.3704 50.479 25.4485 50.572 25.5682H50.6981C50.6687 25.4037 50.6496 25.2556 50.6496 25.1188L50.6981 24.6755H50.3012ZM105.262 23.594C105.124 24 104.915 24.3223 104.637 24.5645C104.356 24.8074 104.016 24.9268 103.617 24.9268C103.225 24.9268 102.896 24.818 102.636 24.6061C102.375 24.3912 102.184 24.1173 102.064 23.7829C101.944 23.4509 101.883 23.0902 101.883 22.7059C101.883 22.0951 101.957 21.5872 102.106 21.1778C102.252 20.7652 102.46 20.4645 102.726 20.2742C103.008 20.0741 103.339 19.9748 103.719 19.9748C104.013 19.9748 104.275 20.0403 104.502 20.1737C104.727 20.3053 104.912 20.4835 105.055 20.7073C105.199 20.9314 105.302 21.1797 105.368 21.4486C105.436 21.7152 105.467 21.9908 105.467 22.2707C105.467 22.7467 105.4 23.1869 105.262 23.594ZM106.683 21.3927C106.577 21.0438 106.404 20.7289 106.17 20.4438C105.936 20.1582 105.619 19.9275 105.216 19.7472C104.815 19.5678 104.336 19.4772 103.775 19.4772C103.267 19.4772 102.813 19.5527 102.411 19.7059C102.005 19.8609 101.66 20.0731 101.373 20.3496C101.084 20.6281 100.869 20.9443 100.726 21.303C100.58 21.6627 100.507 22.0477 100.507 22.461C100.507 23.0787 100.635 23.6132 100.891 24.0604C101.145 24.5087 101.503 24.8477 101.962 25.0794C102.421 25.3111 102.959 25.426 103.578 25.426C104.066 25.426 104.516 25.3453 104.927 25.1871C105.341 25.0275 105.686 24.8126 105.967 24.541C106.249 24.2694 106.467 23.95 106.621 23.5849C106.769 23.2191 106.846 22.8338 106.846 22.4274C106.846 22.2477 106.831 22.0754 106.804 21.9087C106.778 21.7432 106.737 21.5697 106.683 21.3927ZM128.174 24.3511C128.052 24.5537 127.867 24.6896 127.616 24.7535C127.551 24.7755 127.473 24.7898 127.388 24.7968C127.301 24.8059 127.194 24.8116 127.069 24.8116V22.5297H127.585C127.803 22.5297 127.987 22.6304 128.136 22.832C128.283 23.0338 128.356 23.2973 128.356 23.6236C128.356 23.9047 128.295 24.1456 128.174 24.3511ZM127.867 22.0738H127.069V19.595L126.768 19.6148L126.444 19.6252L126.121 19.6148L125.826 19.595V25.2763H127.495C128.119 25.2763 128.633 25.1449 129.034 24.8804C129.438 24.618 129.641 24.1501 129.641 23.4746C129.641 23.0157 129.488 22.6676 129.188 22.4294C128.884 22.192 128.444 22.0738 127.867 22.0738ZM111.54 22.0445C111.559 21.8974 111.588 21.748 111.625 21.5907C111.704 21.2888 111.819 21.0155 111.97 20.7761C112.132 20.5234 112.334 20.329 112.581 20.1878C112.826 20.0458 113.115 19.9748 113.447 19.9748C113.571 19.9748 113.698 19.9925 113.825 20.0282C113.949 20.0619 114.08 20.1158 114.213 20.185C114.46 20.3245 114.662 20.5072 114.823 20.7355H114.939C114.948 20.7056 114.957 20.6754 114.966 20.6393C114.975 20.6038 114.979 20.5772 114.982 20.5552L115.026 20.3279L115.128 19.8871C114.896 19.7511 114.627 19.6499 114.322 19.583C114.164 19.5461 114.015 19.5175 113.873 19.5039C113.729 19.4859 113.584 19.4772 113.44 19.4772C112.981 19.4772 112.552 19.5396 112.149 19.669C111.75 19.7991 111.399 19.9925 111.097 20.2529C110.797 20.5114 110.56 20.8437 110.391 21.2457C110.222 21.6453 110.136 22.1076 110.136 22.6254C110.136 23.0354 110.217 23.416 110.375 23.7673C110.534 24.1173 110.751 24.417 111.029 24.6607C111.306 24.9055 111.636 25.0953 112.023 25.2265C112.41 25.3605 112.821 25.426 113.257 25.426C113.884 25.426 114.43 25.3045 114.898 25.0683L115.079 24.3525L114.97 24.3042C114.776 24.4922 114.543 24.6421 114.272 24.7569C114.001 24.8717 113.739 24.9268 113.487 24.9268C113.072 24.9268 112.717 24.8269 112.418 24.6247C112.121 24.4202 111.898 24.1353 111.743 23.7686C111.59 23.3985 111.511 22.9815 111.511 22.5139C111.511 22.4274 111.515 22.3456 111.521 22.2707C111.525 22.1951 111.533 22.1196 111.54 22.0445ZM56.7188 24.2866C56.6212 24.4498 56.4977 24.5738 56.3476 24.6607C56.1944 24.7486 56.0402 24.7924 55.8832 24.7924H55.4645V22.5391H55.5587H55.6776C56.4688 22.5391 56.864 22.9295 56.864 23.7084C56.864 23.9315 56.8165 24.1264 56.7188 24.2866ZM55.4645 20.1092C55.6427 20.0932 55.7824 20.0841 55.8927 20.0841C56.1703 20.0841 56.388 20.1648 56.545 20.3194C56.7001 20.482 56.7793 20.7027 56.7793 20.9952C56.7793 21.3731 56.6595 21.6612 56.4212 21.8592C56.2595 21.9962 56.0271 22.0651 55.7259 22.0651H55.4645V20.1092ZM57.7038 22.6521C57.4068 22.4434 57.0564 22.3187 56.6537 22.2773V22.2056C56.8952 22.1729 57.1193 22.0951 57.3293 21.9837C57.5398 21.8704 57.7082 21.7196 57.831 21.5309C57.9524 21.3458 58.0148 21.1293 58.0148 20.8855C58.0148 20.4371 57.858 20.1158 57.5463 19.9209C57.2346 19.7241 56.8406 19.6252 56.3676 19.6252H54.2247V25.2763H56.1409C56.4781 25.2763 56.8023 25.215 57.1129 25.096C57.4256 24.9766 57.6775 24.7968 57.8651 24.5581C58.054 24.3185 58.1482 24.0161 58.1482 23.6483C58.1482 23.1906 58.0007 22.8589 57.7038 22.6521ZM66.9173 19.6096H66.4887L66.1602 20.0636L65.7781 20.5793L64.9794 21.6069C64.7029 21.9463 64.4246 22.2817 64.1481 22.6068C63.9969 22.7795 63.8164 22.9874 63.602 23.2267C63.4777 23.3662 63.3909 23.4613 63.3376 23.5181V19.6252L63.0994 19.651L62.8896 19.6696L62.7144 19.675L62.5396 19.6696L62.3346 19.651L62.0915 19.6252V25.3085L62.4556 25.3015L62.7144 25.3085L63.4196 24.3743L64.2923 23.2742L65.1378 22.2422L65.4993 21.8124L65.8744 21.3862V25.3085L66.1859 25.2926L66.4887 25.2763L66.8097 25.2916L67.117 25.3085V19.6096H66.9173ZM86.3413 19.6096H85.9127L85.5832 20.0636L85.2004 20.5793L84.4011 21.6069C84.1271 21.9463 83.8495 22.2817 83.5702 22.6068C83.4199 22.7795 83.236 22.9874 83.0234 23.2267C82.9005 23.3662 82.8133 23.4613 82.7605 23.5181V19.6252L82.5211 19.651L82.3111 19.6696L82.1367 19.675L81.9616 19.6696L81.7581 19.651L81.5136 19.6252V25.3085L81.8784 25.3015L82.1367 25.3085L82.843 24.3743L83.714 23.2742L84.5602 22.2422L84.9218 21.8124L85.2943 21.3862V25.3085L85.607 25.2926L85.9127 25.2763L86.2315 25.2916L86.5379 25.3085V19.6096H86.3413ZM34.28 19.6675L34.0979 19.675L33.9236 19.6696L33.7225 19.651L33.4833 19.6252V21.8748L32.8521 21.8858L32.215 21.9131L31.6005 21.8901C31.5302 21.8901 31.4256 21.8875 31.2797 21.8814C31.1329 21.877 31.0228 21.8748 30.9462 21.8748V19.6252L30.7085 19.651L30.4968 19.6696L30.3225 19.675L30.1493 19.6696L29.9448 19.651L29.7004 19.6252V25.3085L30.0132 25.2926L30.1937 25.2763H30.3225L30.6319 25.2916L30.9462 25.3085V22.5391L31.681 22.5195L32.215 22.507L32.8521 22.5391H33.1615H33.4833V25.3085L33.7922 25.2926L34.0979 25.2763L34.4172 25.2916L34.7259 25.3085V19.6252L34.4909 19.651L34.28 19.6675ZM38.8725 19.6252V25.2763H42.0394L41.9985 24.9186L42.0394 24.5621C41.4747 24.64 40.833 24.6755 40.1145 24.6755V22.5785H40.985C41.3271 22.5785 41.6694 22.6026 42.0061 22.649C41.9783 22.4778 41.9658 22.3582 41.9658 22.2874C41.9658 22.2422 41.9712 22.186 41.9797 22.1177C41.9884 22.052 41.9985 21.9928 42.0061 21.9398C41.5791 21.9908 41.238 22.016 40.985 22.016H40.1145V20.2262C40.4852 20.2262 40.8223 20.2358 41.1309 20.2534C41.4392 20.2742 41.7404 20.2998 42.0394 20.34C42.0116 20.154 41.9985 20.0348 41.9985 19.9834L42.0394 19.6252H38.8725Z" fill="#989898"/>
</svg>
