<svg width="62" height="26" viewBox="0 0 62 26" fill="none" xmlns="http://www.w3.org/2000/svg">
<path d="M15.4107 15.5229C15.247 15.5229 14.9185 15.5018 14.6109 15.3995C14.1794 15.2764 13.5842 14.9479 12.8457 13.1208C11.594 9.99949 8.373 1.51917 8.06504 0.738789C7.81822 0.102759 7.73697 0 7.61302 0C7.49021 0 7.40776 0.123421 7.16214 0.801513L2.50425 13.5512C2.13461 14.5784 1.72415 15.3591 0.780026 15.482C0.616259 15.5017 0.432045 15.5229 0.288321 15.5229C0.106395 15.5229 0.00316099 15.5625 0 15.6418V15.6514C0.00383355 15.7703 0.128053 15.8102 0.39055 15.8102C1.35472 15.8102 2.48367 15.7487 2.70931 15.7487C2.93448 15.7487 3.75593 15.8102 4.24817 15.8102C4.43299 15.8102 4.61781 15.7691 4.61781 15.6456C4.61781 15.5637 4.5558 15.5229 4.35114 15.5229H4.16633C3.81734 15.5229 3.42793 15.3379 3.42793 14.9272C3.42793 14.5576 3.53029 14.0649 3.71444 13.5512L7.10087 3.42962C7.20323 3.12099 7.30607 3.12099 7.40776 3.42962L11.6554 14.9272C11.7788 15.256 11.6554 15.4402 11.5326 15.482C11.4503 15.5017 11.3889 15.5433 11.3889 15.6257C11.3889 15.7487 11.6152 15.7487 12.0045 15.7691C13.4205 15.8102 14.9185 15.8102 15.226 15.8102C15.4523 15.8102 15.6364 15.7691 15.6364 15.6456C15.6364 15.5433 15.5335 15.5229 15.4107 15.5229V15.5229Z" fill="#989898"/>
<path d="M26.0902 15.8717C26.8912 15.8717 27.0547 15.8717 27.1987 15.3375C27.3009 14.9069 27.4658 13.5105 27.4658 13.3461C27.4658 13.2028 27.4658 13.0382 27.3418 13.0382C27.2395 13.0382 27.1987 13.1201 27.1579 13.3461C26.9934 14.2295 26.7678 14.6602 26.1111 14.8654C25.5571 15.0298 24.8799 15.0503 24.2642 15.0503C23.4638 15.0503 22.9101 15.0099 22.5611 14.8654C22.0478 14.6602 21.9249 14.2084 21.8841 13.3666C21.8635 12.9354 21.8841 10.553 21.8841 9.85572V8.04925C21.8841 7.96661 21.9249 7.90517 22.0278 7.90517C22.3768 7.90517 24.408 7.94622 24.9618 8.0082C25.7007 8.08936 25.9469 8.37733 26.0287 8.68555C26.0902 8.87001 26.1111 9.07514 26.1111 9.26007C26.1111 9.42455 26.1318 9.58889 26.2548 9.58889C26.337 9.58889 26.3778 9.48652 26.3977 9.28046C26.4188 8.99343 26.4188 8.52121 26.4803 7.88471C26.5415 7.20716 26.6445 6.85794 26.6445 6.73519C26.6445 6.6117 26.6034 6.57018 26.5415 6.57018C26.4596 6.57018 26.3977 6.65255 26.2955 6.77604C26.0902 7.02242 25.8235 7.08393 25.27 7.12525C24.7981 7.1661 22.2739 7.1661 22.0074 7.1661C21.905 7.1661 21.8841 7.10412 21.8841 6.96098V1.29371C21.8841 1.1503 21.9249 1.08838 22.0074 1.08838C22.2331 1.08838 24.47 1.10877 24.818 1.15029C25.7212 1.23219 26.1521 1.43759 26.2955 1.90955C26.3573 2.07409 26.3977 2.32026 26.3977 2.58784C26.3977 2.75211 26.4393 2.85447 26.5619 2.85447C26.6445 2.85447 26.7059 2.71059 26.7268 2.5052C26.7678 1.97106 26.7882 1.581 26.8086 1.27379C26.8497 0.698055 26.9731 0.452348 26.9731 0.308466C26.9731 0.205433 26.9519 0.123535 26.8912 0.123535C26.8291 0.123535 26.7882 0.143926 26.6648 0.205436C26.5415 0.266946 26.1725 0.308468 25.7212 0.328859C25.2489 0.349317 21.166 0.349318 21.0222 0.349318C19.7294 0.288009 19.1758 0.288007 18.7039 0.288007C18.4776 0.288007 18.3755 0.328856 18.3755 0.452348C18.3755 0.534249 18.4982 0.55464 18.642 0.574627C18.8267 0.595691 19.0934 0.59569 19.2372 0.636069C19.9142 0.779951 20.0779 1.10877 20.1195 1.80725C20.1604 2.46367 20.1604 3.03867 20.1604 6.24184V9.85572C20.1604 11.6833 20.1399 12.7301 20.1195 13.5308C20.0779 15.0707 19.8113 15.3585 19.3811 15.4615C19.2372 15.5019 19.1144 15.5019 18.9086 15.5223C18.7853 15.5434 18.683 15.5844 18.683 15.6457C18.683 15.7687 18.7853 15.8102 19.0115 15.8102C19.5448 15.8307 20.0376 15.7482 20.5299 15.7482C21.3297 15.7482 22.2739 15.7898 23.0949 15.8102C23.8953 15.8307 24.5725 15.8717 26.0902 15.8717V15.8717Z" fill="#989898"/>
<path d="M43.3107 0.144126C43.2291 0.144126 43.0443 0.205636 42.7365 0.246485C42.4082 0.308399 41.9355 0.349522 41.2797 0.349522H33.5849C33.3386 0.349522 32.5587 0.308399 31.9637 0.246485C31.4099 0.205636 31.2046 0.000244141 31.0606 0.000244141C30.979 0.000244141 30.8965 0.266877 30.8557 0.390301C30.8146 0.554844 30.4042 2.32047 30.4042 2.52512C30.4042 2.64929 30.4457 2.71053 30.5064 2.71053C30.5885 2.71053 30.6504 2.66974 30.7117 2.5054C30.7731 2.36132 30.835 2.21817 31.0606 1.8689C31.3895 1.37608 31.8816 1.2324 33.1533 1.21106C34.1595 1.19134 35.1857 1.19135 36.1905 1.17095V9.85639C36.1905 11.8269 36.1905 13.4491 36.0884 14.3114C36.0059 14.9071 35.9032 15.3586 35.4932 15.4405C35.3079 15.4816 35.0618 15.5224 34.8775 15.5224C34.7541 15.5224 34.7137 15.5844 34.7137 15.6459C34.7137 15.7694 34.8162 15.8102 35.0419 15.8102C35.6573 15.8102 36.9497 15.7482 37.0517 15.7482C37.1554 15.7482 38.448 15.8102 39.576 15.8102C39.8021 15.8102 39.9051 15.7482 39.9051 15.6459C39.9051 15.5844 39.8636 15.5224 39.7401 15.5224C39.5561 15.5224 39.104 15.4816 38.8177 15.4405C38.2013 15.3586 38.0786 14.9071 38.0171 14.3114C37.9142 13.4491 37.9142 11.8269 37.9142 9.85639V1.17095C38.7762 1.19135 39.6386 1.19134 40.4999 1.21106C42.4694 1.25285 42.9624 1.72482 43.0236 2.34093C43.0236 2.4235 43.0443 2.48474 43.0443 2.56691C43.0646 2.85468 43.1055 2.91612 43.2087 2.91612C43.2903 2.91612 43.3517 2.83421 43.3517 2.64928C43.3517 2.4235 43.4132 1.00715 43.4132 0.390301C43.4132 0.266877 43.4132 0.144126 43.3107 0.144126V0.144126Z" fill="#989898"/>
<path d="M61.4745 7.33388C61.3027 2.76746 57.916 0.000244141 53.4181 0.000244141C47.7544 0.000244141 45.3334 4.7024 45.3334 8.02832C45.3334 11.7241 47.6725 16.0977 53.2952 16.0977C58.1084 16.0977 61.3072 12.499 61.4745 8.06641V7.33388ZM47.2825 7.45333C47.2825 2.95724 49.8475 0.698996 53.2741 0.698996C56.516 0.698996 59.5119 3.34683 59.5119 8.27524C59.5119 14.2492 55.6953 15.3173 53.8482 15.3173C50.155 15.3173 47.2825 12.2377 47.2825 7.45333V7.45333Z" fill="#989898"/>
<path d="M5.46582 24.6674V21.7534H5.77863V23.044H7.39927V21.7534H7.71208V24.6674H7.39927V23.3365H5.77863V24.6674H5.46582Z" fill="#989898"/>
<path d="M10.1457 24.3768H11.8723V24.6674H9.83301V21.7534H11.8297V22.0459H10.1457V23.0031H11.4964V23.2937H10.1457V24.3768Z" fill="#989898"/>
<path d="M13.3044 24.3768H13.471C13.4846 24.3661 13.5033 24.3476 13.5266 24.321C13.5506 24.2949 13.5922 24.2323 13.6518 24.1332C13.7114 24.0337 13.7641 23.924 13.8102 23.8016C13.8558 23.68 13.898 23.5145 13.9354 23.3049C13.9722 23.0955 13.9909 22.8698 13.9909 22.6269V21.7534H15.78V24.3768H16.1336V25.2911H15.8208V24.6674H13.6172V25.2911H13.3044V24.3768V24.3768ZM14.3037 22.6269C14.3037 22.8626 14.2862 23.085 14.2511 23.2937C14.216 23.5027 14.1739 23.6701 14.126 23.7958C14.0779 23.9215 14.0294 24.0309 13.981 24.124C13.9318 24.2171 13.8897 24.2814 13.8528 24.3177L13.8044 24.3768H15.4672V22.0459H14.3037V22.6269V22.6269Z" fill="#989898"/>
<path d="M19.5447 23.1069C19.5582 23.1121 19.5752 23.1197 19.5956 23.1292C19.6155 23.1384 19.6535 23.1641 19.709 23.2064C19.7646 23.2483 19.8137 23.2946 19.8552 23.3443C19.8973 23.3947 19.9359 23.4642 19.9704 23.5532C20.0049 23.6415 20.0218 23.735 20.0218 23.8345C20.0218 24.075 19.9394 24.2744 19.7746 24.4314C19.609 24.5892 19.3939 24.6676 19.1285 24.6676H17.9421V21.7529H19.0654C19.301 21.7529 19.495 21.8255 19.6477 21.9694C19.7997 22.1138 19.8757 22.2918 19.8757 22.5032C19.8757 22.5884 19.8652 22.6679 19.8435 22.74C19.8218 22.8125 19.7938 22.8704 19.7599 22.9136C19.7261 22.9571 19.6926 22.9939 19.6592 23.0242C19.6266 23.0547 19.5992 23.0758 19.5775 23.0862L19.5447 23.1069ZM19.0654 22.0454H18.2549V22.9787H19.0654C19.2213 22.9787 19.343 22.9364 19.4319 22.8516C19.5207 22.7674 19.5651 22.6511 19.5651 22.5032C19.5651 22.3674 19.5207 22.2579 19.4319 22.1731C19.343 22.0881 19.2213 22.0454 19.0654 22.0454ZM18.2549 24.3768H19.1285C19.3033 24.3768 19.4435 24.326 19.5501 24.2242C19.6563 24.123 19.709 23.9931 19.709 23.8345C19.709 23.6731 19.6553 23.5361 19.5477 23.4226C19.4402 23.3098 19.3004 23.2531 19.1285 23.2531H18.2549V24.3768Z" fill="#989898"/>
<path d="M24.3467 24.6674H24.0356V22.3163L22.2465 24.6674H21.9763V21.7534H22.2891V24.1064L24.0764 21.7534H24.3467V24.6674Z" fill="#989898"/>
<path d="M28.5898 23.1903L28.1936 23.6069V24.6674H27.8813V23.6069L27.4873 23.1903L26.4471 24.6674H26.0718L27.278 22.9602L26.1769 21.7534H26.5712L27.8813 23.1862V21.7534H28.1936V23.1862L29.5037 21.7534H29.8995L28.797 22.9602L30.0036 24.6674H29.6295L28.5898 23.1903Z" fill="#989898"/>
<path d="M34.0977 24.6674H33.7873V22.3163L31.9977 24.6674H31.7279V21.7534H32.0408V24.1064L33.8274 21.7534H34.0977V24.6674Z" fill="#989898"/>
<path d="M38.8615 22.2959L37.6956 23.8345L36.5321 22.2959V24.6676H36.2194V21.7529H36.4894L37.6956 23.3367L38.9023 21.7529H39.1725V24.6676H38.8615V22.2959Z" fill="#989898"/>
<path d="M43.6636 22.1499C43.9547 22.4412 44.1002 22.7945 44.1002 23.2106C44.1002 23.6264 43.9547 23.9804 43.6636 24.2712C43.3725 24.5627 43.0192 24.7083 42.603 24.7083C42.1879 24.7083 41.8348 24.5627 41.5434 24.2712C41.2524 23.9804 41.1067 23.6264 41.1067 23.2106C41.1067 22.7945 41.2524 22.4412 41.5434 22.1499C41.8348 21.8579 42.1879 21.7124 42.603 21.7124C43.0192 21.7124 43.3725 21.8579 43.6636 22.1499V22.1499ZM41.7605 22.3505C41.5318 22.5822 41.4172 22.8688 41.4172 23.2106C41.4172 23.5516 41.5318 23.8384 41.7605 24.0699C41.989 24.3016 42.2702 24.4174 42.603 24.4174C42.9362 24.4174 43.2176 24.3016 43.4466 24.0699C43.6752 23.8384 43.7898 23.5516 43.7898 23.2106C43.7898 22.8688 43.6752 22.5822 43.4466 22.3505C43.2176 22.1193 42.9362 22.0037 42.603 22.0037C42.2702 22.0037 41.989 22.1193 41.7605 22.3505Z" fill="#989898"/>
<path d="M46.2843 24.2712C45.9933 23.9799 45.8478 23.6266 45.8478 23.2106C45.8478 22.7947 45.9933 22.4414 46.2843 22.1499C46.5757 21.8579 46.9288 21.7124 47.3444 21.7124C47.4918 21.7124 47.6339 21.7335 47.7689 21.7743C47.9046 21.8159 48.0162 21.8658 48.1051 21.9241C48.1934 21.9825 48.2717 22.0412 48.339 22.1008C48.4057 22.1606 48.4541 22.2114 48.484 22.2534L48.5307 22.3161L48.3212 22.5034C48.3132 22.4899 48.3008 22.4719 48.2847 22.4495C48.2684 22.4268 48.2308 22.3876 48.1713 22.3301C48.1117 22.2741 48.0468 22.2233 47.9769 22.1791C47.9075 22.1354 47.8159 22.0951 47.7017 22.058C47.5883 22.0215 47.469 22.0032 47.3444 22.0032C47.0113 22.0032 46.7304 22.1196 46.5014 22.3508C46.273 22.5822 46.1581 22.869 46.1581 23.2106C46.1581 23.5518 46.273 23.8384 46.5014 24.0701C46.7304 24.3018 47.0113 24.4177 47.3444 24.4177C47.469 24.4177 47.5883 24.4001 47.7017 24.3655C47.8159 24.331 47.9098 24.2895 47.9853 24.2411C48.0607 24.1924 48.1262 24.1433 48.1834 24.0958C48.2403 24.0473 48.2807 24.005 48.3051 23.969L48.3436 23.9179L48.5512 24.1069C48.54 24.1233 48.5239 24.1444 48.5009 24.1708C48.4788 24.1971 48.4294 24.2451 48.353 24.3142C48.2764 24.383 48.195 24.445 48.1098 24.4989C48.0244 24.5528 47.9129 24.6014 47.7736 24.644C47.6358 24.6867 47.4918 24.7083 47.3444 24.7083C46.9288 24.7083 46.5757 24.5627 46.2843 24.2712V24.2712Z" fill="#989898"/>
<path d="M50.068 21.7534H52.2107V22.0457H51.2946V24.6674H50.9841V22.0457H50.068V21.7534Z" fill="#989898"/>
<path d="M55.0793 24.6674H53.9766V21.7534H54.2895V22.8362H55.0793C55.3489 22.8362 55.5724 22.9241 55.7493 23.099C55.9271 23.2733 56.0161 23.491 56.0161 23.752C56.0161 24.0129 55.9271 24.2306 55.7493 24.4053C55.5724 24.5803 55.3489 24.6674 55.0793 24.6674V24.6674ZM54.2895 24.3768H55.0793C55.2677 24.3768 55.4184 24.3201 55.5325 24.2066C55.6459 24.0924 55.7033 23.9409 55.7033 23.752C55.7033 23.563 55.6459 23.412 55.5325 23.298C55.4184 23.1838 55.2677 23.1271 55.0793 23.1271H54.2895V24.3768V24.3768Z" fill="#989898"/>
</svg>
