<svg width="158" height="37" viewBox="0 0 158 37" fill="none" xmlns="http://www.w3.org/2000/svg">
<g clip-path="url(#clip0_70_1070)">
<path d="M0 27.3923C0 26.6699 0.190889 26.1041 0.572004 25.6951C0.952788 25.2864 1.44407 25.0823 2.04684 25.0823C2.44185 25.0823 2.79683 25.1787 3.1141 25.3704C3.43037 25.5621 3.67221 25.83 3.83829 26.1739C4.00436 26.5167 4.08806 26.9065 4.08806 27.3417C4.08806 27.7831 4.00039 28.1786 3.82538 28.5265C3.65037 28.8757 3.40259 29.1393 3.08234 29.3178C2.76111 29.4976 2.41505 29.5867 2.04387 29.5867C1.64125 29.5867 1.28197 29.4875 0.964703 29.2894C0.648426 29.0917 0.407913 28.8217 0.244814 28.4789C0.0813837 28.1371 0 27.775 0 27.3923ZM0.584907 27.4025C0.584907 27.9268 0.723193 28.3398 0.999439 28.6412C1.27601 28.9425 1.62338 29.0937 2.04088 29.0937C2.46666 29.0937 2.81569 28.9415 3.09127 28.6372C3.36586 28.3328 3.50316 27.9005 3.50316 27.3408C3.50316 26.9864 3.44426 26.6773 3.32716 26.4135C3.20971 26.1496 3.03768 25.9447 2.81172 25.7997C2.58511 25.6545 2.33135 25.5813 2.04982 25.5813C1.65018 25.5813 1.30578 25.7214 1.01763 26.0014C0.729148 26.2815 0.584907 26.7482 0.584907 27.4025ZM6.39626 25.1555H9.75021V29.5138H9.18319V25.6667H6.9633V29.5138H6.39626V25.1555ZM12.2672 29.5138V25.1555H15.3528V25.6667H12.8342V27.0059H15.1917V27.5172H12.8342V29.0022H15.454V29.5138H12.2672ZM17.8112 29.5138V25.1555H19.4243C19.7078 25.1555 19.9248 25.1697 20.0751 25.197C20.2848 25.2324 20.4608 25.3006 20.603 25.3998C20.7453 25.5004 20.8598 25.6404 20.9461 25.8199C21.0329 25.9994 21.0755 26.1971 21.0755 26.4135C21.0755 26.7826 20.9601 27.0961 20.7285 27.3519C20.4975 27.6083 20.0791 27.7362 19.4743 27.7362H18.3779V29.5138H17.8112ZM18.3779 27.225H19.4822C19.8481 27.225 20.1069 27.1562 20.261 27.0171C20.4142 26.8781 20.4906 26.6834 20.4906 26.4306C20.4906 26.2491 20.4459 26.0929 20.3553 25.963C20.265 25.833 20.1456 25.747 19.9983 25.7052C19.9027 25.6799 19.7267 25.6667 19.4713 25.6667H18.3779V27.225ZM22.4997 29.5138L24.1387 25.1555H24.7603L26.5001 29.5138H25.8566L25.3621 28.1927H23.5627L23.0992 29.5138H22.4997ZM23.7291 27.7241H25.185L24.7394 26.5157C24.6051 26.1485 24.5039 25.8452 24.4331 25.6059C24.3746 25.8898 24.2958 26.1688 24.1975 26.4449L23.7291 27.7241ZM29.1434 29.5138V25.6667H27.7351V25.1555H31.1188V25.6667H29.7104V29.5138H29.1434ZM32.8372 27.3923C32.8372 26.6699 33.0284 26.1041 33.4092 25.6951C33.7902 25.2864 34.2816 25.0823 34.8843 25.0823C35.279 25.0823 35.6343 25.1787 35.9516 25.3704C36.2679 25.5621 36.5097 25.83 36.6757 26.1739C36.8418 26.5167 36.9252 26.9065 36.9252 27.3417C36.9252 27.7831 36.8379 28.1786 36.6625 28.5265C36.4875 28.8757 36.24 29.1393 35.9198 29.3178C35.5986 29.4976 35.2522 29.5867 34.8813 29.5867C34.4784 29.5867 34.1195 29.4875 33.8022 29.2894C33.4859 29.0917 33.2451 28.8217 33.082 28.4789C32.9189 28.1371 32.8372 27.775 32.8372 27.3923ZM33.4221 27.4025C33.4221 27.9268 33.5603 28.3398 33.8369 28.6412C34.1135 28.9425 34.4605 29.0937 34.8783 29.0937C35.3041 29.0937 35.6532 28.9415 35.9288 28.6372C36.203 28.3328 36.3403 27.9005 36.3403 27.3408C36.3403 26.9864 36.2817 26.6773 36.1643 26.4135C36.0469 26.1496 35.8749 25.9447 35.6492 25.7997C35.4222 25.6545 35.1689 25.5813 34.8873 25.5813C34.4874 25.5813 34.1432 25.7214 33.8548 26.0014C33.5663 26.2815 33.4221 26.7482 33.4221 27.4025ZM39.2274 29.5138V25.1555H40.8409C41.1244 25.1555 41.3411 25.1697 41.4914 25.197C41.701 25.2324 41.8774 25.3006 42.0197 25.3998C42.1619 25.5004 42.276 25.6404 42.3627 25.8199C42.4491 25.9994 42.4921 26.1971 42.4921 26.4135C42.4921 26.7826 42.3766 27.0961 42.1447 27.3519C41.9141 27.6083 41.4953 27.7362 40.8906 27.7362H39.7945V29.5138H39.2274ZM39.7945 27.225H40.8985C41.2647 27.225 41.5231 27.1562 41.6773 27.0171C41.8304 26.8781 41.9072 26.6834 41.9072 26.4306C41.9072 26.2491 41.8625 26.0929 41.7719 25.963C41.6812 25.833 41.5621 25.747 41.4149 25.7052C41.3193 25.6799 41.1433 25.6667 40.8876 25.6667H39.7945V27.225ZM48.0405 29.5138V25.1555H48.6075V26.9509H50.8155V25.1555H51.3825V29.5138H50.8155V27.4625H48.6075V29.5138H48.0405ZM53.9136 29.5138V25.1555H56.999V25.6667H54.4803V27.0059H56.8378V27.5172H54.4803V29.0022H57.1006V29.5138H53.9136ZM59.8454 25.1555H62.4474V29.0022H62.8292V30.5302H62.3279V29.5138H59.499V30.5302H58.9978V29.0022H59.326C59.6721 28.4728 59.8454 27.4025 59.8454 25.7926V25.1555ZM61.8804 25.6667H60.3883V25.8897C60.3883 26.2613 60.3556 26.7695 60.2901 27.4136C60.2252 28.0577 60.0959 28.5876 59.905 29.0022H61.8804V25.6667ZM65.05 29.5138V25.1555H66.6533C66.9794 25.1555 67.2411 25.199 67.4389 25.2874C67.6361 25.3755 67.7903 25.5115 67.9018 25.6951C68.0139 25.8776 68.0699 26.0696 68.0699 26.2704C68.0699 26.456 68.0199 26.6314 67.9216 26.7958C67.823 26.9601 67.6738 27.093 67.4741 27.1946C67.7324 27.2715 67.9315 27.4035 68.0699 27.5901C68.2092 27.776 68.2786 27.996 68.2786 28.2498C68.2786 28.4546 68.2359 28.6442 68.1512 28.8197C68.0669 28.9951 67.9623 29.1302 67.8379 29.2256C67.7136 29.3201 67.5574 29.392 67.3705 29.4405C67.1826 29.4896 66.9527 29.5138 66.68 29.5138H65.05ZM65.6171 26.9874H66.5411C66.7915 26.9874 66.9715 26.9702 67.08 26.9368C67.2242 26.8933 67.3327 26.82 67.4052 26.7188C67.478 26.6173 67.5147 26.4904 67.5147 26.3372C67.5147 26.1921 67.481 26.0645 67.4121 25.9549C67.3447 25.8441 67.2471 25.7683 67.1207 25.7274C66.9947 25.6869 66.7776 25.6667 66.4712 25.6667H65.6171V26.9874ZM65.6171 29.0022H66.681C66.8643 29.0022 66.9923 28.9951 67.0671 28.981C67.1964 28.9577 67.306 28.9183 67.3933 28.8625C67.481 28.8065 67.5524 28.7255 67.6093 28.6189C67.6659 28.5123 67.6937 28.3895 67.6937 28.2508C67.6937 28.0875 67.653 27.9464 67.5703 27.8256C67.4889 27.7048 67.3755 27.6208 67.2302 27.5719C67.086 27.5233 66.8772 27.499 66.6056 27.499H65.6171V29.0022ZM70.6417 25.1555H71.1548V28.6068L73.4296 25.1555H73.9894V29.5138H73.4763V26.0717L71.2075 29.5138H70.6417V25.1555ZM79.0788 25.1555V27.0667C79.3565 27.0667 79.5463 27.0141 79.6509 26.9095C79.7541 26.8048 79.8854 26.5605 80.0455 26.1739C80.163 25.8867 80.2596 25.6849 80.337 25.5671C80.4138 25.4487 80.5229 25.3502 80.6654 25.2699C80.8073 25.1899 80.9637 25.1494 81.133 25.1494C81.3176 25.1494 81.4329 25.1514 81.478 25.1555V25.6545C81.4595 25.6545 81.4232 25.6536 81.3676 25.6515C81.3047 25.6494 81.2668 25.6485 81.2539 25.6485C81.0733 25.6485 80.9387 25.693 80.8525 25.7824C80.763 25.8715 80.6606 26.0625 80.5457 26.3544C80.4217 26.6709 80.3142 26.8862 80.2226 27.0009C80.1322 27.1153 79.9999 27.2098 79.8268 27.2857C80.1075 27.365 80.3777 27.6238 80.6405 28.0628L81.5199 29.5138H80.8202L80.1045 28.3328C79.9142 28.0183 79.7541 27.7973 79.6247 27.6683C79.4957 27.5395 79.3134 27.4747 79.0788 27.4747V29.5138H78.4999V27.4747C78.314 27.4747 78.1499 27.5243 78.0066 27.6248C77.8644 27.7251 77.6984 27.9414 77.5081 28.2731L77.4723 28.3318L76.7554 29.5138H76.0531L76.9334 28.0628C77.2018 27.6218 77.4743 27.363 77.7509 27.2857C77.5968 27.2219 77.4713 27.1366 77.3751 27.0303C77.2775 26.9236 77.162 26.6986 77.0277 26.3554C76.9056 26.043 76.8001 25.8472 76.7125 25.7683C76.6251 25.6879 76.4958 25.6485 76.3227 25.6485L76.0948 25.6545V25.1555C76.1166 25.1514 76.2252 25.1494 76.4219 25.1494C76.6092 25.1494 76.7713 25.1889 76.9086 25.2669C77.0456 25.3451 77.1531 25.4436 77.2319 25.5611C77.3092 25.6799 77.4089 25.8837 77.5312 26.1748C77.6934 26.5666 77.8257 26.812 77.9269 26.9115C78.0295 27.011 78.2204 27.0627 78.4999 27.0667V25.1555H79.0788ZM83.5917 25.1555H84.1052V28.6068L86.38 25.1555H86.9403V29.5138H86.4268V26.0717L84.1584 29.5138H83.5917V25.1555ZM89.4336 29.5138V25.1555H90.2809L91.2918 28.2407C91.3853 28.5275 91.4522 28.7428 91.4949 28.8859C91.5441 28.7276 91.6206 28.4941 91.7238 28.1867L92.7524 25.1555H93.5094V29.5138H92.9661V25.8675L91.719 29.5138H91.2095L89.9762 25.8007V29.5138H89.4336ZM95.8189 27.3923C95.8189 26.6699 96.01 26.1041 96.3905 25.6951C96.7718 25.2864 97.2627 25.0823 97.8657 25.0823C98.2607 25.0823 98.6154 25.1787 98.933 25.3704C99.249 25.5621 99.4908 25.83 99.6569 26.1739C99.8229 26.5167 99.9068 26.9065 99.9068 27.3417C99.9068 27.7831 99.8189 28.1786 99.644 28.5265C99.4691 28.8757 99.2216 29.1393 98.9016 29.3178C98.5799 29.4976 98.2333 29.5867 97.8625 29.5867C97.4594 29.5867 97.1007 29.4875 96.7839 29.2894C96.4671 29.0917 96.226 28.8217 96.0632 28.4789C95.9004 28.1371 95.8189 27.775 95.8189 27.3923ZM96.4034 27.4025C96.4034 27.9268 96.542 28.3398 96.8185 28.6412C97.095 28.9425 97.4417 29.0937 97.86 29.0937C98.2857 29.0937 98.6347 28.9415 98.9104 28.6372C99.1845 28.3328 99.3223 27.9005 99.3223 27.3408C99.3223 26.9864 99.2635 26.6773 99.1458 26.4135C99.0289 26.1496 98.8564 25.9447 98.6307 25.7997C98.4042 25.6545 98.1502 25.5813 97.8689 25.5813C97.4691 25.5813 97.1249 25.7214 96.8363 26.0014C96.5477 26.2815 96.4034 26.7482 96.4034 27.4025ZM105.252 27.9849L105.82 28.131C105.701 28.6048 105.488 28.9648 105.181 29.2135C104.873 29.4618 104.498 29.5867 104.053 29.5867C103.594 29.5867 103.219 29.4915 102.931 29.2995C102.643 29.1089 102.423 28.8319 102.274 28.4698C102.124 28.1067 102.048 27.718 102.048 27.3023C102.048 26.8487 102.132 26.4529 102.303 26.1152C102.473 25.7774 102.715 25.5206 103.027 25.3451C103.341 25.1697 103.686 25.0823 104.062 25.0823C104.49 25.0823 104.849 25.1929 105.139 25.4149C105.431 25.6374 105.633 25.9488 105.748 26.3503L105.193 26.4843C105.094 26.1678 104.95 25.9366 104.762 25.7926C104.574 25.6475 104.337 25.5753 104.052 25.5753C103.725 25.5753 103.45 25.6555 103.23 25.8159C103.01 25.9761 102.856 26.1921 102.767 26.462C102.677 26.733 102.632 27.012 102.632 27.2992C102.632 27.6694 102.685 27.9929 102.791 28.269C102.896 28.5461 103.06 28.7519 103.284 28.8889C103.506 29.0259 103.747 29.0937 104.006 29.0937C104.323 29.0937 104.589 29.0002 104.808 28.8147C105.026 28.628 105.175 28.352 105.252 27.9849ZM108.982 29.5138V25.6667H107.574V25.1555H110.958V25.6667H109.55V29.5138H108.982ZM113.129 25.1555H113.642V28.6068L115.916 25.1555H116.477V29.5138H115.963V26.0717L113.695 29.5138H113.129V25.1555Z" fill="#A0A0A0"/>
<path d="M8.64921 20.9233H6.3989V8.3592H2.25163V20.9233H0V6.40747H8.64921V20.9233Z" fill="#A0A0A0"/>
<path d="M11.4757 6.40747H19.0981V8.3592H13.7277V12.3841H18.7814V14.3359H13.7277V18.972H19.2568V20.9237H11.4757V6.40747Z" fill="#A0A0A0"/>
<path d="M21.4652 6.40747H25.9288C28.6349 6.40747 29.8197 8.15573 29.8197 10.6363C29.8197 13.2382 28.3177 14.9264 25.6912 14.9264H23.7169V20.9237H21.4652V6.40747ZM23.7169 13.1785H25.3174C26.5206 13.1785 27.5677 12.5282 27.5677 10.678C27.5677 9.11302 26.9554 8.15573 25.1589 8.15573H23.7169V13.1785Z" fill="#A0A0A0"/>
<path d="M31.5002 13.6656C31.5002 8.48147 32.6058 6.12451 36.1804 6.12451C40.1891 6.12451 40.427 9.15372 40.427 10.6782V10.9417H38.175V10.6981C38.175 9.33559 37.8201 7.87243 36.1804 7.87243C34.482 7.87243 33.7512 8.93032 33.7512 13.6061C33.7512 18.281 34.482 19.461 36.1603 19.461C38.0566 19.461 38.2541 17.3254 38.2541 15.9625V15.7188H40.5061V16.0242C40.5061 18.6468 39.4593 21.209 36.1603 21.209C32.6058 21.209 31.5002 18.8503 31.5002 13.6656Z" fill="#A0A0A0"/>
<path d="M51.2287 20.9233H48.978V8.3592H44.8301V20.9233H42.5787V6.40747H51.2287V20.9233Z" fill="#A0A0A0"/>
<path d="M54.0496 6.40747H61.6719V8.3592H56.3012V12.3841H61.3563V14.3359H56.3012V18.972H61.8303V20.9237H54.0496V6.40747Z" fill="#A0A0A0"/>
<path d="M64.0441 6.40747H66.296V12.7314H66.3351L70.6004 6.40747H73.0694L69.0008 12.5282L73.5034 20.9237H70.9567L67.5402 14.3976L66.296 16.2279V20.9237H64.0441V6.40747Z" fill="#A0A0A0"/>
<path d="M77.0973 8.35887H73.7386V6.40747H82.6466V8.35887H79.3488V20.9233H77.0973V8.35887Z" fill="#A0A0A0"/>
<path d="M93.2901 20.9233H91.0378V13.5639C91.0378 12.8731 91.0781 10.9018 91.0982 10.2094H91.0378C90.8411 10.758 90.5839 11.4704 90.1897 12.5083L86.9693 20.9233H84.4227V6.40747H86.6742V13.8294C86.6742 14.5195 86.6549 16.4513 86.6138 17.1218H86.6742C86.8516 16.5329 87.3643 15.1501 88.0559 13.3405L90.7427 6.40747H93.2901V20.9233Z" fill="#A0A0A0"/>
<path d="M96.1141 6.40747H100.676C102.789 6.40747 104.468 7.38367 104.468 9.92562C104.468 11.6742 103.777 12.7715 102.394 13.2183V13.2605C103.935 13.5436 104.921 14.4999 104.921 16.9605C104.921 19.3984 103.223 20.9237 100.577 20.9237H96.1141V6.40747ZM100.144 12.5282C101.505 12.5282 102.217 11.6124 102.217 10.231C102.217 8.50293 101.21 8.15573 99.9464 8.15573H98.3648V12.5282H100.144ZM100.598 19.175C101.94 19.175 102.67 18.3011 102.67 16.6129C102.67 15.0486 101.782 14.1547 100.459 14.1547H98.3648V19.175H100.598Z" fill="#A0A0A0"/>
<path d="M109.881 6.40747H112.763L116.476 20.9237H114.126L113.258 17.3654H109.13L108.222 20.9237H105.872L109.881 6.40747ZM112.882 15.5159L111.262 8.3592H111.223L109.544 15.5159H112.882Z" fill="#A0A0A0"/>
<path d="M135.655 19.788L152.544 13.2126L146.191 19.7205L138.643 22.8492L135.655 19.788ZM144.439 30.6447L145.436 31.6617L142.445 34.7124L141.453 33.7009L144.439 30.6447ZM140.326 33.7009L137.091 37.0006L133.861 33.7056L137.1 30.4007L140.326 33.7009Z" fill="#A0A0A0"/>
<path d="M141.711 9.49379C142.648 8.5382 143.127 7.73473 143.146 7.08381C143.166 6.43289 142.917 5.84306 142.399 5.31429C141.88 4.78553 141.312 4.52098 140.694 4.52098C140.076 4.52098 139.388 4.90734 138.63 5.68041L136.387 7.96858L133.276 4.79565L135.31 2.7211C137.005 0.992406 138.72 0.0870594 140.454 0.00573735C142.189 -0.0755849 143.864 0.707606 145.48 2.35498C147.094 4.00234 147.863 5.71079 147.783 7.4803C147.703 9.24984 146.815 10.9991 145.121 12.7278C144.024 13.8464 142.873 14.6957 141.666 15.2754C140.459 15.8552 139.248 16.2668 138.032 16.5111C136.816 16.7551 135.614 16.9026 134.427 16.9535C133.241 17.0041 132.124 17.0652 131.078 17.1364C130.03 17.2076 129.083 17.35 128.236 17.5636C127.388 17.7772 126.675 18.1788 126.097 18.7685C125.897 18.972 125.758 19.1347 125.678 19.2569L131.9 25.6027L128.909 28.6535L119.397 18.9518L121.969 16.3279C122.987 15.2906 124.043 14.5381 125.14 14.0701C126.237 13.6024 127.353 13.2873 128.49 13.1246C129.627 12.9619 130.758 12.8753 131.885 12.8651C133.011 12.855 134.138 12.7736 135.265 12.6211C136.392 12.4687 137.493 12.1686 138.57 11.7212C139.647 11.2734 140.694 10.5311 141.711 9.49379Z" fill="#A0A0A0"/>
<path d="M154.359 12.5076L140.891 26.305L134.677 19.939L131.334 23.3487L140.89 33.1277L157.703 15.9194L154.359 12.5076Z" fill="#A0A0A0"/>
</g>
<defs>
<clipPath id="clip0_70_1070">
<rect width="158" height="37" fill="white"/>
</clipPath>
</defs>
</svg>
