<svg width="133" height="15" viewBox="0 0 133 15" fill="none" xmlns="http://www.w3.org/2000/svg">
<g clip-path="url(#clip0_70_1087)">
<path d="M70.7876 8.82012C70.8084 9.26003 70.7423 9.69973 70.5931 10.1136C70.444 10.5274 70.2147 10.9071 69.9188 11.2306C69.6228 11.5541 69.2661 11.8148 68.8693 11.9976C68.4726 12.1804 68.0437 12.2816 67.6079 12.2953C67.172 12.309 66.7378 12.235 66.3305 12.0775C65.9232 11.92 65.5511 11.6822 65.2358 11.378C64.9204 11.0738 64.6682 10.7092 64.4938 10.3056C64.3194 9.90193 64.2263 9.46724 64.22 9.02688V0H61.3979V8.82012C61.3874 9.63833 61.5379 10.4505 61.8407 11.2095C62.1435 11.9685 62.5925 12.6592 63.1617 13.2415C63.7309 13.8239 64.409 14.2863 65.1566 14.6018C65.9041 14.9174 66.7063 15.0799 67.5166 15.0799C68.3268 15.0799 69.129 14.9174 69.8766 14.6018C70.6241 14.2863 71.3022 13.8239 71.8714 13.2415C72.4406 12.6592 72.8897 11.9685 73.1925 11.2095C73.4953 10.4505 73.6458 9.63833 73.6353 8.82012V0H70.8009L70.7876 8.82012Z" fill="#989898"/>
<path d="M7.42204 2.86715C8.59066 2.86605 9.71541 3.31656 10.5656 4.12628L12.1932 1.75792C11.1108 0.840871 9.79176 0.25485 8.39101 0.0687065C6.99026 -0.117437 5.56601 0.10403 4.28558 0.707087C3.00516 1.31014 1.92176 2.26974 1.16268 3.47312C0.403596 4.67651 0.000366211 6.07369 0.000366211 7.50051C0.000366211 8.92733 0.403596 10.3245 1.16268 11.5279C1.92176 12.7313 3.00516 13.6909 4.28558 14.2939C5.56601 14.897 6.99026 15.1185 8.39101 14.9323C9.79176 14.7462 11.1108 14.1601 12.1932 13.2431L10.5656 10.8737C10.0205 11.3915 9.35823 11.7667 8.63656 11.9667C7.91488 12.1667 7.15573 12.1853 6.4253 12.0209C5.69487 11.8565 5.01536 11.5142 4.44603 11.0237C3.87671 10.5332 3.43486 9.90947 3.15902 9.20693C2.88318 8.50438 2.78174 7.74435 2.86354 6.99312C2.94534 6.2419 3.2079 5.52229 3.62831 4.89707C4.04873 4.27185 4.61423 3.76 5.27549 3.40618C5.93675 3.05236 6.67369 2.8673 7.42204 2.86715V2.86715Z" fill="#989898"/>
<path d="M39.397 10.0793L32.4927 0.00317383H29.6572V14.9949H32.4927V4.91875L39.397 14.9949H42.2325V0.00317383H39.397V10.0793Z" fill="#989898"/>
<path d="M46.0098 0.00317383V2.86672H50.3909V14.9949H53.2263V2.86672H57.6075V0.00317383H46.0098Z" fill="#989898"/>
<path d="M124.204 0.00317383V2.86672H125.748V14.9949H128.583V0.00317383H124.204Z" fill="#989898"/>
<path d="M15.9768 0.00317383V14.9949H25.8712V12.1314H18.8123V8.93081H24.4821V6.06727H18.8123V2.86672H25.8712V0.00317383H15.9768Z" fill="#989898"/>
<path d="M88.795 5.03549C88.7937 3.70113 88.2685 2.42175 87.3346 1.47783C86.4007 0.533908 85.1343 0.00246223 83.813 0L77.4031 0V14.9948H80.2385V10.0637H82.0483L85.4263 14.9886H88.7981L85.2594 9.84252C86.2799 9.5278 87.1738 8.89128 87.81 8.02623C88.4463 7.16118 88.7915 6.11307 88.795 5.03549ZM83.813 7.20641H80.2385V2.86458H83.813C84.3831 2.86458 84.9299 3.0933 85.333 3.50042C85.7362 3.90755 85.9627 4.45973 85.9627 5.03549C85.9627 5.61125 85.7362 6.16344 85.333 6.57056C84.9299 6.97769 84.3831 7.20641 83.813 7.20641V7.20641Z" fill="#989898"/>
<path d="M101.782 0.00317383L97.6261 6.06727L93.4661 0.00317383H90.0973L96.2084 8.91427V14.9949H99.0438V8.91427L105.151 0.00317383H101.782Z" fill="#989898"/>
<path d="M120.189 7.49603L120.263 7.39266C120.673 6.77826 120.935 6.07535 121.027 5.34032C121.12 4.6053 121.04 3.85864 120.795 3.16027C120.55 2.46191 120.146 1.83128 119.616 1.31902C119.086 0.806763 118.444 0.42713 117.743 0.210595C117.041 -0.00593969 116.299 -0.0533449 115.576 0.0721841C114.853 0.197713 114.169 0.49268 113.579 0.93341C112.99 1.37414 112.51 1.94836 112.18 2.60998C111.85 3.27159 111.678 4.00218 111.678 4.7431V4.91884H114.519C114.516 4.86031 114.516 4.80164 114.519 4.7431C114.519 4.24807 114.713 3.77301 115.058 3.42152C115.403 3.07003 115.872 2.87063 116.362 2.86681C116.598 2.85642 116.833 2.8932 117.055 2.97502C117.276 3.05685 117.48 3.18211 117.653 3.34361C117.827 3.5051 117.967 3.69965 118.066 3.91605C118.165 4.13245 118.22 4.36645 118.229 4.60458V4.60975C118.232 4.65415 118.232 4.69871 118.229 4.7431C118.135 5.26644 117.931 5.76341 117.631 6.20072C117.474 6.43435 111.601 14.995 111.601 14.995H121.341V12.1315H117.014L120.189 7.49603Z" fill="#989898"/>
<path d="M131.038 14.3053V12.7908H131.691C131.756 12.7902 131.82 12.8047 131.878 12.8332C131.934 12.8608 131.984 12.8991 132.025 12.9459C132.066 12.9922 132.099 13.0454 132.121 13.103C132.144 13.1606 132.156 13.2219 132.156 13.2839C132.156 13.3336 132.149 13.383 132.135 13.4307C132.121 13.4767 132.101 13.5205 132.075 13.5609C132.051 13.6007 132.02 13.6358 131.983 13.6643C131.947 13.693 131.906 13.715 131.862 13.7295L132.215 14.3053H131.945L131.621 13.778H131.274V14.3053H131.038ZM131.275 13.5672H131.684C131.716 13.5672 131.748 13.5594 131.776 13.5444C131.804 13.5291 131.828 13.5083 131.847 13.4834C131.867 13.4557 131.882 13.425 131.893 13.3924C131.905 13.3574 131.911 13.3208 131.91 13.2839C131.91 13.2464 131.903 13.2092 131.89 13.1743C131.878 13.1416 131.86 13.1115 131.837 13.0854C131.815 13.0601 131.789 13.0393 131.76 13.0244C131.732 13.0102 131.702 13.0028 131.671 13.0027H131.27L131.275 13.5672Z" fill="#989898"/>
<path d="M131.575 14.9897C131.293 14.9899 131.017 14.9056 130.782 14.7475C130.548 14.5893 130.365 14.3644 130.257 14.1012C130.149 13.838 130.12 13.5484 130.175 13.269C130.23 12.9895 130.366 12.7329 130.565 12.5314C130.765 12.3299 131.019 12.1928 131.296 12.1372C131.572 12.0817 131.859 12.1103 132.12 12.2194C132.38 12.3286 132.603 12.5133 132.76 12.7503C132.916 12.9872 133 13.2658 133 13.5507C132.999 13.9322 132.849 14.2979 132.582 14.5676C132.315 14.8374 131.952 14.9892 131.575 14.9897ZM131.575 12.3288C131.335 12.3288 131.102 12.4004 130.903 12.5347C130.704 12.669 130.549 12.8598 130.457 13.0831C130.365 13.3064 130.341 13.5521 130.388 13.7891C130.435 14.0261 130.55 14.2438 130.719 14.4147C130.888 14.5856 131.104 14.702 131.339 14.7491C131.573 14.7963 131.817 14.7721 132.038 14.6796C132.259 14.5871 132.448 14.4305 132.581 14.2296C132.714 14.0286 132.785 13.7924 132.785 13.5507C132.785 13.3901 132.754 13.231 132.693 13.0826C132.632 12.9342 132.543 12.7993 132.431 12.6856C132.318 12.572 132.185 12.4818 132.038 12.4202C131.891 12.3586 131.734 12.3268 131.575 12.3267V12.3288Z" fill="#989898"/>
</g>
<defs>
<clipPath id="clip0_70_1087">
<rect width="133" height="15" fill="white"/>
</clipPath>
</defs>
</svg>
