<svg width="114" height="81" viewBox="0 0 114 81" fill="none" xmlns="http://www.w3.org/2000/svg">
<path d="M14.0415 58.6717L14.2988 58.7806C14.881 59.0119 15.4768 59.2296 16.0726 59.4201L16.3028 59.4881L21.9493 46.6163L27.6094 59.5153L27.8396 59.4473C28.4354 59.2704 29.0312 59.0527 29.6134 58.8214L29.8842 58.7125L21.9493 40.6294L14.0415 58.6717Z" fill="#989898"/>
<path d="M28.9634 22.383C24.4678 20.5189 19.3494 20.5189 14.908 22.4102C12.5654 23.4035 10.3989 24.941 8.63862 26.8459C6.89185 28.7509 5.53777 31.0504 4.72533 33.4723C3.34416 37.636 3.52019 42.3438 5.21279 46.3714C6.13357 48.5484 7.44703 50.5078 9.11255 52.1814C10.4937 53.5693 12.1863 54.7939 13.8924 55.6511L14.1497 55.7871L21.9492 37.9625L29.8164 55.7871L30.0737 55.6647C33.9193 53.7461 37.0743 50.3581 38.7534 46.385C40.6626 41.854 40.6626 36.6699 38.7534 32.1389C36.9254 27.7712 33.3506 24.2199 28.9634 22.383ZM21.9898 23.2266C26.1875 23.2266 30.3039 24.941 33.2693 27.9209C33.4047 28.0569 33.5266 28.193 33.662 28.3291C32.9444 28.1658 32.2267 28.0433 31.4955 27.9481C30.3851 27.7984 29.2748 27.7304 28.1645 27.7304C27.0812 27.7304 25.9979 27.7984 24.9282 27.9345C24.2241 27.431 23.4929 26.9548 22.7346 26.5058C20.9337 25.4581 19.0244 24.6145 17.0475 24.0022C18.6453 23.4987 20.2972 23.2266 21.9898 23.2266ZM7.28454 33.0233C8.09698 31.1184 9.23441 29.404 10.7104 27.9209C11.6447 26.982 12.6738 26.1792 13.7977 25.4989C16.56 26.0431 19.2004 27.05 21.6242 28.4651C21.6784 28.4923 21.7326 28.5331 21.7867 28.5604C19.2817 29.2271 16.8985 30.2748 14.6914 31.6763C12.6332 32.9961 10.7781 34.6017 9.16671 36.4522C9.15317 36.425 9.13963 36.3978 9.11255 36.3705C8.9636 36.1392 8.77402 35.8535 8.61154 35.595C8.44905 35.35 8.28656 35.1051 8.25947 35.0507C7.90741 34.4248 7.58243 33.7445 7.271 33.0505L7.28454 33.0233ZM6.03878 39.2687C6.03878 38.2346 6.13357 37.2141 6.32314 36.2073C6.7429 36.942 7.18975 37.6496 7.67722 38.3299C7.10851 39.1327 6.58041 39.9627 6.10649 40.8199C6.05232 40.3028 6.03878 39.7858 6.03878 39.2687ZM32.4433 49.8411C32.335 50.4806 32.1861 51.1201 32.0236 51.746C31.6986 52.0045 31.3601 52.263 31.0216 52.4943L21.9628 31.9756L17.3318 42.5207L12.9581 52.4943C12.1457 51.9365 11.3874 51.297 10.6968 50.603C9.23441 49.1335 8.08344 47.4191 7.271 45.5006C7.12205 45.1468 6.98664 44.7794 6.86477 44.412C7.47411 42.9153 8.23239 41.4866 9.13963 40.1396C9.45107 40.4797 9.77604 40.8199 10.101 41.1464C11.5905 42.5887 13.2696 43.8133 15.1247 44.8066L15.1788 44.8338L16.0861 42.7656L16.0725 42.752C14.4476 41.8676 12.9717 40.7791 11.6853 39.5273C11.2926 39.1463 10.8999 38.7245 10.5343 38.3027C12.0644 36.4522 13.8654 34.8738 15.8829 33.5812C18.1172 32.1525 20.541 31.1456 23.1002 30.5605C23.5064 30.4653 23.9262 30.3836 24.3459 30.3156C25.7542 31.4177 27.027 32.6559 28.1374 34.0166C30.7507 37.2278 32.3079 40.9832 32.66 44.861C31.4684 45.1196 30.2768 45.2965 29.0852 45.3917L30.0466 47.5688C30.9403 47.4735 31.834 47.3374 32.7277 47.1606C32.6871 48.0586 32.5923 48.9566 32.4433 49.8411ZM34.8536 48.7661C34.9349 48.045 34.9619 47.3238 34.9755 46.6027C35.4494 46.4666 35.9369 46.317 36.4108 46.1537C35.9775 47.0653 35.4494 47.9497 34.8536 48.7661ZM37.4264 43.3371C36.5868 43.6909 35.7202 44.0174 34.8536 44.2896C34.4068 40.0987 32.6871 36.0576 29.8706 32.6015C29.1258 31.6899 28.3134 30.8191 27.4468 30.0163C28.6925 29.9754 29.9518 30.0435 31.1976 30.2068C32.7819 30.4109 34.3391 30.7918 35.8285 31.3089C36.1535 31.8668 36.4379 32.4518 36.6816 33.0369C37.5076 35.0099 37.9409 37.1189 37.9409 39.2823C37.9545 40.6566 37.7784 42.0173 37.4264 43.3371Z" fill="#989898"/>
<path d="M105.848 42.2894C107.811 42.4391 109.68 41.854 111.156 40.6974L111.129 40.6294L108.922 38.8742C108.136 39.3368 107.229 39.5681 106.281 39.5273C103.722 39.432 101.61 37.3094 101.528 34.7378C101.434 31.9212 103.681 29.6081 106.457 29.6081C107.419 29.6081 108.339 29.8938 109.125 30.3973L110.831 28.2202C109.572 27.3358 108.042 26.8459 106.457 26.8459C102.084 26.8459 98.5495 30.5469 98.7797 34.9963C98.9828 38.847 102.043 41.9901 105.848 42.2894Z" fill="#989898"/>
<path d="M87.3645 42.0443L88.7321 39.0781H94.4193L95.7869 42.0443L95.9088 42.3028H98.6982L98.4138 41.6769L91.5757 26.8049C91.2237 27.5805 85.1303 40.8469 84.7512 41.6769L84.4668 42.3028H87.2562L87.3645 42.0443ZM91.5757 32.6422L93.4985 36.8194H89.6529L91.5757 32.6422Z" fill="#989898"/>
<path d="M76.2071 26.8323C75.855 27.6078 69.7616 40.847 69.3825 41.677L69.0981 42.3029H71.8875L72.0094 42.0444L76.2071 32.9008L80.4047 42.0444L80.5266 42.3029H83.316L83.0316 41.677L76.2071 26.8323Z" fill="#989898"/>
<path d="M56.8166 42.0581L56.9384 42.3166H59.7278L59.4435 41.6907L52.6189 26.8459C51.996 27.9209 46.0381 41.1328 45.51 42.3166H48.2994L48.4213 42.0581L49.7889 39.0919H55.476L56.8166 42.0581ZM50.6961 36.8196L52.6189 32.6423L54.5417 36.8196H50.6961Z" fill="#989898"/>
<path d="M62.9508 42.3029H65.8891V29.7849H70.3847V26.8323H58.4417V29.7849H62.9508V42.3029Z" fill="#989898"/>
<path d="M48.5841 47.6777H46.6478V45.4734H45.5239V51.3106H46.6478V48.7526H48.5841V51.3106H49.708V45.4734H48.5841V47.6777Z" fill="#989898"/>
<path d="M50.5071 51.3106H53.6756V50.2221H51.6039V48.6846H53.6756V47.6096H51.6039V46.5619H53.6756V45.4734H50.5071V51.3106Z" fill="#989898"/>
<path d="M58.1034 45.4734H56.9795L55.1109 50.2765H54.4609V52.195H55.5307V51.3242H59.5388V52.195H60.6085V50.2765H59.9585L58.1034 45.4734ZM56.2754 50.2629L57.5482 47.0109L58.8211 50.2629H56.2754Z" fill="#989898"/>
<path d="M64.0476 48.0994C64.2642 47.9361 64.4132 47.7728 64.508 47.5823C64.6027 47.4055 64.6434 47.2014 64.6434 46.97C64.6434 46.6299 64.535 46.3305 64.3319 46.0856C64.1288 45.8407 63.8445 45.6638 63.5059 45.5686C63.2622 45.5005 62.8695 45.4597 62.3414 45.4597H61.4207V51.3106H63.0456C63.5195 51.3106 63.8851 51.2425 64.1559 51.1065C64.4267 50.9704 64.6434 50.7663 64.8059 50.4942C64.9683 50.222 65.0631 49.9227 65.0631 49.5961C65.0631 49.256 64.9819 48.9566 64.8194 48.7117C64.6569 48.4668 64.3996 48.2627 64.0476 48.0994ZM62.531 46.5346H62.8154C63.0726 46.5346 63.2622 46.5891 63.3841 46.6979C63.5059 46.8068 63.5736 46.9564 63.5736 47.1333C63.5736 47.3238 63.5059 47.4871 63.3705 47.5959C63.2351 47.7048 63.0456 47.7728 62.7747 47.7728H62.531V46.5346ZM63.7361 50.0723C63.5736 50.1948 63.2622 50.2492 62.8018 50.2492H62.5175V48.7525H62.7477C63.181 48.7525 63.4924 48.8205 63.682 48.9702C63.8715 49.1199 63.9663 49.3104 63.9663 49.5689C63.9799 49.7866 63.8986 49.9635 63.7361 50.0723Z" fill="#989898"/>
<path d="M66.9728 49.2424V45.4734H65.876V51.3106H66.8374L69.0039 47.6505V51.3106H70.1142V45.4734H69.1799L66.9728 49.2424Z" fill="#989898"/>
<path d="M78.0487 45.4734H76.7082L75.1374 47.5552V45.4734H74.0136V47.5688L72.4293 45.4734H71.1023L73.0522 47.9362L70.8992 51.3106H72.2126L73.8511 48.5485L74.0136 48.7254V51.3106H75.1374V48.7254L75.2864 48.5485L76.9248 51.3106H78.2383L76.0853 47.9362L78.0487 45.4734Z" fill="#989898"/>
<path d="M80.1477 49.2424V45.4734H79.0374V51.3106H79.9987L82.1653 47.6505V51.3106H83.2756V45.4734H82.3413L80.1477 49.2424Z" fill="#989898"/>
<path d="M88.8679 45.4734L87.5138 49.5418L86.1597 45.4734H85.09L84.0745 51.3106H85.1577L85.7941 47.6232L87.0264 51.3106H88.0013L89.2335 47.6232L89.8564 51.3106H90.9261L89.9512 45.4734H88.8679Z" fill="#989898"/>
<path d="M93.9591 45.4597C93.4446 45.4597 92.9571 45.5958 92.5103 45.8543C92.0634 46.1128 91.7114 46.4666 91.4541 46.9156C91.1968 47.3646 91.075 47.8545 91.075 48.3851C91.075 49.1743 91.3458 49.8683 91.9009 50.4397C92.4561 51.0248 93.1467 51.3106 93.9727 51.3106C94.7716 51.3106 95.4486 51.0248 96.0038 50.4669C96.559 49.9091 96.8433 49.2151 96.8433 48.3987C96.8433 47.5823 96.559 46.8748 95.9903 46.3169C95.408 45.7455 94.7445 45.4597 93.9591 45.4597ZM95.2455 49.7322C94.8935 50.0996 94.4602 50.2764 93.9591 50.2764C93.5123 50.2764 93.1196 50.1404 92.7811 49.8546C92.3343 49.5009 92.1176 49.011 92.1176 48.3987C92.1176 47.8409 92.2936 47.3919 92.6457 47.0245C92.9978 46.6707 93.4311 46.4802 93.9456 46.4802C94.4602 46.4802 94.8799 46.6707 95.2455 47.0245C95.5976 47.3919 95.7736 47.8409 95.7736 48.3715C95.7736 48.9294 95.5976 49.3784 95.2455 49.7322Z" fill="#989898"/>
<path d="M100.324 46.4802C100.946 46.4802 101.515 46.7523 102.016 47.283L102.747 46.5755C102.436 46.2217 102.084 45.9496 101.651 45.7455C101.231 45.555 100.784 45.4597 100.337 45.4597C99.7955 45.4597 99.2945 45.5958 98.8341 45.8543C98.3737 46.1128 98.0081 46.4666 97.7644 46.8884C97.5207 47.3238 97.3853 47.8137 97.3853 48.3715C97.3853 49.2288 97.6561 49.9363 98.2112 50.4806C98.7529 51.0248 99.457 51.297 100.324 51.297C100.784 51.297 101.204 51.2153 101.569 51.0657C101.935 50.916 102.314 50.6302 102.734 50.2357L102.016 49.4873C101.718 49.7866 101.434 50.0043 101.177 50.1132C100.919 50.222 100.649 50.2901 100.337 50.2901C99.9851 50.2901 99.6601 50.2084 99.3622 50.0452C99.0643 49.8819 98.8477 49.6506 98.6852 49.3648C98.5227 49.0791 98.4414 48.7525 98.4414 48.3715C98.4414 47.8409 98.6175 47.3919 98.9831 47.0245C99.3487 46.6571 99.7955 46.4802 100.324 46.4802Z" fill="#989898"/>
<path d="M103.479 46.5619H104.508V51.3106H105.631V46.5619H106.688V45.4734H103.479V46.5619Z" fill="#989898"/>
<path d="M109.991 47.8409C109.68 47.7321 109.301 47.6777 108.84 47.6777H108.596V45.4734H107.486V51.3242H109.111C109.558 51.3242 109.896 51.2698 110.154 51.1473C110.411 51.0385 110.628 50.8344 110.817 50.5622C111.007 50.2901 111.101 49.95 111.101 49.5418C111.101 49.12 110.993 48.7526 110.763 48.4532C110.56 48.1403 110.303 47.9362 109.991 47.8409ZM109.802 50.086C109.639 50.1949 109.341 50.2629 108.881 50.2629H108.61V48.6709H108.84C109.639 48.6709 110.045 48.9431 110.045 49.5009C110.032 49.7731 109.951 49.9636 109.802 50.086Z" fill="#989898"/>
</svg>
