<svg width="132" height="32" viewBox="0 0 132 32" fill="none" xmlns="http://www.w3.org/2000/svg">
<g clip-path="url(#clip0_70_942)">
<path d="M3.11788 12.1397C3.71097 11.56 6.31292 8.79675 7.47998 7.57935C8.6279 6.38193 8.70443 6.18869 8.70443 5.95681C8.70407 5.87742 8.68011 5.79997 8.63565 5.7345C8.59119 5.66904 8.52827 5.61857 8.45507 5.58966C8.32179 5.53169 8.28352 5.49304 8.28352 5.41575C8.28352 5.33845 8.39831 5.2998 8.5705 5.2998C9.12533 5.2998 9.0673 5.35778 9.71842 5.35778C10.3109 5.35778 11.4403 5.2998 11.7458 5.2998C12.0136 5.2998 12.071 5.35778 12.071 5.43507C12.071 5.51237 12.0328 5.55101 11.8606 5.57034C11.526 5.59969 11.1973 5.67779 10.8848 5.80222C10.4065 5.99546 10.043 6.22734 8.89511 7.34811C7.21213 8.98998 5.03108 11.1736 4.53365 11.7339C5.73896 13.0673 9.22035 16.6415 10.1196 17.4918C11.6884 18.9797 12.358 19.4048 13.2763 19.5787C13.4587 19.6181 13.6447 19.6375 13.8312 19.6367C13.9842 19.6367 14.099 19.6753 14.099 19.7719C14.099 19.8686 14.0225 19.9066 13.812 19.9066H12.3963C10.7318 19.9066 10.2917 19.6947 9.39318 18.9797C8.24526 18.0715 4.8015 14.342 3.11788 12.3137V14.304C3.11788 16.1584 3.11788 17.685 3.21418 18.4966C3.27094 19.057 3.38637 19.4815 3.95969 19.5594C4.22754 19.598 4.61018 19.6367 4.72497 19.6367C4.89716 19.6367 4.95455 19.714 4.95455 19.7719C4.95455 19.8686 4.87802 19.9066 4.66757 19.9066C3.61595 19.9066 2.41063 19.8492 2.31497 19.8492C2.21931 19.8492 1.09052 19.9066 0.516564 19.9066C0.306112 19.9066 0.210452 19.8872 0.210452 19.7719C0.210452 19.714 0.248716 19.6367 0.420904 19.6367C0.588158 19.6333 0.754717 19.6139 0.918336 19.5787C1.30098 19.5008 1.41577 19.057 1.4923 18.4966C1.58796 17.685 1.58796 16.1584 1.58796 14.304V10.903C1.58796 7.88853 1.58796 7.34811 1.54969 6.72976C1.51143 6.07275 1.32011 5.74425 0.899204 5.64763C0.67297 5.59735 0.442096 5.57144 0.210452 5.57034C0.057396 5.57034 0 5.53169 0 5.45439C0 5.33845 0.09566 5.2998 0.306112 5.2998C0.937468 5.2998 2.21931 5.35778 2.31497 5.35778C2.41063 5.35778 3.61595 5.2998 4.18927 5.2998C4.39972 5.2998 4.49538 5.33845 4.49538 5.43507C4.49538 5.51237 4.45712 5.55101 4.28493 5.57034C4.07448 5.58966 4.05535 5.58966 3.86403 5.60898C3.34746 5.66695 3.19505 6.05343 3.15614 6.72976C3.11788 7.34811 3.11788 7.88918 3.11788 10.903V12.1397Z" fill="#989898"/>
<path d="M18.7262 17.627C21.0985 14.7098 26.034 8.52688 27.9095 6.20804C28.6174 5.33848 28.9235 5.0293 29.1531 5.0293C29.3444 5.0293 29.4401 5.18389 29.4401 6.86504C29.4401 10.4779 29.4401 13.9175 29.4975 17.5304C29.5166 18.941 29.6697 19.4628 30.2819 19.5594C30.3776 19.5787 30.722 19.6174 31.0281 19.6367C31.2576 19.656 31.315 19.714 31.315 19.772C31.315 19.8873 31.2379 19.9066 31.0281 19.9066C30.3393 19.9066 28.6557 19.8493 28.3496 19.8493C27.9287 19.8493 27.3165 19.9066 26.6277 19.9066C26.3981 19.9066 26.3407 19.8686 26.3407 19.7913C26.3407 19.6947 26.379 19.656 26.6277 19.6367C26.8138 19.6204 26.999 19.5946 27.1825 19.5594C27.7374 19.4435 27.8139 18.6319 27.833 17.1826C27.8904 14.0142 27.8713 10.7871 27.9095 7.48276C26.9147 8.7388 18.9175 18.7478 18.1152 19.6367C17.7135 20.0811 17.503 20.1778 17.4073 20.1778C17.216 20.1778 17.1586 20.0232 17.1586 19.2502C17.1586 16.0618 17.216 11.714 17.1586 8.00514C17.1395 5.87954 16.929 5.74427 16.3168 5.62833C16.0681 5.58968 15.8576 5.58968 15.7046 5.57036C15.5515 5.55104 15.4941 5.51239 15.4941 5.43509C15.4941 5.29983 15.6663 5.29983 15.8768 5.29983C16.4699 5.29983 17.6752 5.3578 17.9813 5.3578C18.5935 5.3578 19.3582 5.29983 19.8945 5.29983C20.1241 5.29983 20.2197 5.33848 20.2197 5.41577C20.2197 5.49306 20.1815 5.55104 19.971 5.57036C19.804 5.57677 19.6377 5.59615 19.4736 5.62833C18.9379 5.74427 18.8046 5.95683 18.7657 7.59934L18.7262 17.627Z" fill="#989898"/>
<path d="M37.147 18.0909C35.2912 16.4097 34.832 14.2074 34.832 12.3717C34.832 11.077 35.2721 8.81614 36.9748 7.09633C38.1227 5.93691 39.8631 5.02935 42.8094 5.02935C43.7388 5.02708 44.6666 5.10465 45.5829 5.26123C46.31 5.39649 46.9031 5.45447 47.6109 5.55108C47.7449 5.57041 47.7831 5.6477 47.7831 5.76364C47.7831 5.91823 47.7257 6.15012 47.6875 6.84577C47.6492 7.48281 47.6492 8.54625 47.6301 8.83611C47.6109 9.12596 47.5727 9.24191 47.4579 9.24191C47.324 9.24191 47.3048 9.106 47.3048 8.83611C47.3048 8.08248 46.9987 7.29021 46.5013 6.86509C45.8317 6.28538 44.3591 5.76364 42.6749 5.76364C40.1303 5.76364 38.9441 6.51727 38.2745 7.17363C36.8785 8.52629 36.5526 10.2461 36.5526 12.2171C36.5526 15.9079 39.3644 19.2889 43.4587 19.2889C44.8929 19.2889 46.0217 19.1144 46.787 18.3227C47.1888 17.8976 47.4375 17.0474 47.4949 16.6996C47.5331 16.487 47.5714 16.4097 47.6862 16.4097C47.7819 16.4097 47.8201 16.545 47.8201 16.6996C47.8201 16.8348 47.5905 18.516 47.3992 19.173C47.2844 19.5395 47.2462 19.5788 46.9018 19.7334C46.1365 20.0425 44.6825 20.1778 43.458 20.1778C40.5901 20.1778 38.6578 19.4628 37.147 18.0909Z" fill="#989898"/>
<path d="M53.9605 17.7816C53.7884 18.2647 53.6927 18.7285 53.6927 19.0763C53.6927 19.4628 54.0562 19.6367 54.3814 19.6367H54.5536C54.745 19.6367 54.8024 19.6754 54.8024 19.7527C54.8024 19.8686 54.6302 19.9066 54.458 19.9066C53.9988 19.9066 53.2335 19.8493 53.0231 19.8493C52.8126 19.8493 51.761 19.9066 50.8618 19.9066C50.6131 19.9066 50.4983 19.8686 50.4983 19.7527C50.4983 19.6754 50.5939 19.6367 50.7661 19.6367C50.9198 19.6326 51.0731 19.6197 51.2253 19.5981C52.1047 19.4815 52.4874 18.7478 52.8318 17.7816L57.1747 5.78292C57.4043 5.14524 57.4808 5.0293 57.5956 5.0293C57.7104 5.0293 57.7869 5.12591 58.0159 5.72495C58.3035 6.45925 61.3066 14.4386 62.4737 17.3758C63.1624 19.0956 63.7172 19.4048 64.119 19.5201C64.3604 19.5969 64.612 19.6362 64.8652 19.6367C64.9793 19.6367 65.075 19.656 65.075 19.7527C65.075 19.8686 64.9028 19.9066 64.6923 19.9066C64.4053 19.9066 63.0087 19.9066 61.6886 19.8686C61.3251 19.8493 61.1146 19.8493 61.1146 19.7333C61.1146 19.656 61.172 19.6174 61.2486 19.5981C61.3634 19.5594 61.4782 19.3855 61.3634 19.0763L57.4037 8.25506C57.308 7.96521 57.2123 7.96521 57.1167 8.25506L53.9605 17.7816Z" fill="#989898"/>
<path d="M67.3699 12.5842C67.3699 9.45377 69.6268 5.0293 74.9066 5.0293C79.2113 5.0293 82.4248 7.77326 82.4248 12.275C82.4248 16.6029 79.4026 20.1778 74.7918 20.1778C69.5503 20.1778 67.3699 16.0618 67.3699 12.5842ZM80.5881 12.8161C80.5881 8.17841 77.7955 5.6863 74.7727 5.6863C71.5783 5.6863 69.1868 7.8119 69.1868 12.0431C69.1868 16.5449 71.8652 19.4435 75.309 19.4435C77.0302 19.4435 80.5881 18.4386 80.5881 12.818V12.8161Z" fill="#989898"/>
<path d="M88.1983 10.903C88.1983 7.88853 88.1983 7.34811 88.1606 6.72976C88.1217 6.07275 87.9693 5.76357 87.3373 5.62831C87.1229 5.58897 86.9054 5.56956 86.6875 5.57034C86.611 5.57034 86.5344 5.53169 86.5344 5.45439C86.5344 5.33845 86.6301 5.2998 86.8405 5.2998C87.7008 5.2998 88.8488 5.35778 89.0018 5.35778C89.4227 5.35778 90.5324 5.2998 91.4124 5.2998C93.8033 5.2998 94.6649 6.1114 94.971 6.40125C95.3919 6.80705 95.9276 7.67662 95.9276 8.93266C95.9276 11.4447 93.9385 13.2985 91.2218 13.2985C91.0876 13.3016 90.9533 13.2954 90.82 13.2798C90.7243 13.2798 90.6095 13.2412 90.6095 13.1446C90.6095 12.99 90.7243 12.9707 91.1261 12.9707C92.9819 12.9707 94.4353 11.6953 94.4353 9.66696C94.4353 9.18322 94.3779 7.88853 93.3645 6.8457C92.3512 5.80286 91.1835 5.87951 90.7435 5.87951C90.4182 5.87951 90.093 5.91816 89.9208 5.99546C89.806 6.0341 89.7677 6.16937 89.7677 6.36261V14.304C89.7677 16.1584 89.7677 17.685 89.8634 18.4966C89.9208 19.057 90.0356 19.4815 90.6095 19.5594C90.895 19.6002 91.1824 19.626 91.4705 19.6367C91.5853 19.6367 91.6235 19.6947 91.6235 19.7526C91.6235 19.8492 91.5279 19.9066 91.3174 19.9066C90.2652 19.9066 89.0598 19.8492 88.9642 19.8492C88.9068 19.8492 87.7015 19.9066 87.1275 19.9066C86.9177 19.9066 86.822 19.8686 86.822 19.7526C86.822 19.6947 86.8603 19.6367 86.9751 19.6367C87.1685 19.6301 87.3607 19.6042 87.5491 19.5594C87.9317 19.4815 88.0274 19.057 88.1039 18.4966C88.1995 17.685 88.1995 16.1584 88.1995 14.304L88.1983 10.903Z" fill="#989898"/>
<path d="M99.7344 12.5842C99.7344 9.45377 101.992 5.0293 107.272 5.0293C111.576 5.0293 114.789 7.77326 114.789 12.275C114.789 16.6029 111.767 20.1778 107.156 20.1778C101.915 20.1778 99.7344 16.0618 99.7344 12.5842ZM112.953 12.8161C112.953 8.17841 110.16 5.6863 107.137 5.6863C103.943 5.6863 101.552 7.8119 101.552 12.0431C101.552 16.5449 104.23 19.4435 107.674 19.4435C109.395 19.4435 112.953 18.4386 112.953 12.818V12.8161Z" fill="#989898"/>
<path d="M121.233 19.8493C119.779 19.8493 119.243 19.8686 118.746 19.9066C117.752 19.9652 117.445 20.2931 117.388 21.1626C117.369 21.3365 117.33 21.4911 117.215 21.4911C117.139 21.4911 117.082 21.4138 117.082 21.1433C117.063 19.9259 116.986 19.2889 116.967 18.999C116.948 18.8444 116.986 18.8251 117.082 18.8251C117.426 18.8831 118.095 18.9217 118.784 18.9217C118.937 18.9217 118.975 18.8831 119.09 18.6705L123.682 5.84089C123.931 5.16456 124.045 5.0293 124.16 5.0293C124.275 5.0293 124.351 5.16456 124.543 5.64765C124.906 6.55587 127.948 14.6518 129.555 18.7092C129.632 18.8638 129.689 18.9217 129.861 18.9217C130.244 18.9217 131.487 18.8831 131.87 18.8058C131.985 18.7865 132.023 18.8058 131.985 18.9604C131.927 19.2696 131.755 20.2544 131.755 21.2019C131.755 21.3952 131.698 21.4911 131.621 21.4911C131.506 21.4911 131.468 21.3752 131.449 21.2019C131.391 20.351 131.028 19.9452 130.205 19.8873C129.651 19.8493 128.483 19.8493 127.7 19.8493H121.233ZM125.442 19.0183C127.107 19.0183 127.508 18.9797 127.68 18.9604C127.757 18.9411 127.795 18.9024 127.738 18.7865C126.647 15.9266 125.27 11.7726 123.854 8.02447C123.816 7.9272 123.778 7.9272 123.739 8.00514L120.449 17.801C120.277 18.284 120.105 18.7092 120.105 18.8638C120.105 18.9411 120.162 18.9411 120.22 18.9604C120.545 18.999 121.119 19.0183 122.248 19.0183H125.442Z" fill="#989898"/>
<path d="M4.2487 30.237C4.2487 30.6009 4.2487 31.1729 4.2538 31.3191C4.2538 31.3571 4.26719 31.3713 4.29525 31.3713C4.50299 31.375 4.71077 31.3672 4.91768 31.3481C4.94574 31.3429 4.9553 31.3481 4.94574 31.3854C4.91114 31.5583 4.89235 31.734 4.88962 31.9104C4.88962 31.9748 4.87559 31.9999 4.85709 31.9999C4.8386 31.9999 4.81947 31.9478 4.815 31.9052C4.78694 31.7262 4.74039 31.6315 4.54333 31.6173C4.40303 31.6077 4.18301 31.5986 3.73404 31.5986H1.65822C1.58361 31.5986 1.39611 31.6128 1.22329 31.6128C1.17163 31.6128 1.13401 31.6077 1.13401 31.5838C1.13401 31.56 1.14804 31.551 1.19778 31.542C1.23863 31.5389 1.27916 31.5324 1.31895 31.5226C1.43183 31.4898 1.4465 31.3758 1.45479 31.1967C1.46435 31.0453 1.47392 30.988 1.47392 30.2511V29.4099C1.47392 28.6717 1.47392 28.5397 1.46435 28.3883C1.45479 28.237 1.4178 28.1519 1.26347 28.1191C1.21087 28.1094 1.1575 28.1046 1.10403 28.1049C1.0849 28.1049 1.06641 28.0953 1.06641 28.0766C1.06641 28.0579 1.09 28.0386 1.14166 28.0386C1.35211 28.0386 1.64674 28.0534 1.67034 28.0534C1.69394 28.0534 1.98921 28.0386 2.12887 28.0386C2.18053 28.0386 2.20348 28.0482 2.20348 28.0766C2.20348 28.1049 2.18499 28.1049 2.1665 28.1049C2.12705 28.1062 2.08778 28.1109 2.04915 28.1191C1.92161 28.1429 1.88526 28.2228 1.87633 28.3883C1.86676 28.5397 1.86676 28.6717 1.86676 29.4099V30.161C1.86676 30.5474 1.87186 31.1729 1.88526 31.3242C1.89036 31.3758 1.89992 31.3809 1.93245 31.3854C2.08822 31.3966 2.24445 31.3998 2.40054 31.3951H3.01341C3.57079 31.3951 3.75764 31.3906 3.84246 31.3809C3.85649 31.3809 3.86159 31.3713 3.86159 31.3526V29.4099C3.86159 28.6717 3.86159 28.5397 3.85203 28.3883C3.84246 28.237 3.80483 28.1519 3.6505 28.1191C3.59812 28.1094 3.54496 28.1046 3.49171 28.1049C3.47257 28.1049 3.45408 28.0953 3.45408 28.0766C3.45408 28.0579 3.47768 28.0386 3.52933 28.0386C3.73978 28.0386 4.03442 28.0534 4.05801 28.0534C4.08161 28.0534 4.37688 28.0386 4.51654 28.0386C4.5682 28.0386 4.59116 28.0482 4.59116 28.0766C4.59116 28.1049 4.57266 28.1049 4.55417 28.1049C4.51472 28.1062 4.47545 28.1109 4.43683 28.1191C4.30928 28.1429 4.27293 28.2228 4.264 28.3883C4.25444 28.5397 4.25444 28.6717 4.25444 29.4099L4.2487 30.237Z" fill="#989898"/>
<path d="M9.6629 29.4099C9.6629 28.6718 9.6629 28.5397 9.65333 28.3883C9.64377 28.237 9.60614 28.1519 9.45181 28.1191C9.40689 28.1113 9.36151 28.1066 9.31597 28.1049C9.28345 28.0998 9.2522 28.0953 9.2522 28.0766C9.2522 28.0579 9.27579 28.0386 9.32681 28.0386C9.43459 28.0386 9.56086 28.0386 9.85613 28.0534C9.88866 28.0534 10.8197 28.0534 10.9275 28.0482C11.0003 28.0491 11.0729 28.0396 11.1431 28.0199C11.1585 28.0094 11.1762 28.003 11.1947 28.0012C11.2088 28.0012 11.2132 28.0199 11.2132 28.0437C11.1967 28.1169 11.1842 28.1908 11.1756 28.2653C11.1711 28.3362 11.1667 28.4263 11.1571 28.5494C11.1526 28.5964 11.138 28.6299 11.1195 28.6299C11.0914 28.6299 11.0819 28.6061 11.0819 28.5655C11.0829 28.5126 11.0751 28.4599 11.0589 28.4096C11.0264 28.3007 10.9275 28.2537 10.7215 28.235C10.6425 28.2254 10.1323 28.2202 10.0838 28.2202C10.0653 28.2202 10.0557 28.235 10.0557 28.2679V29.5722C10.0557 29.6057 10.0602 29.6199 10.0838 29.6199C10.1444 29.6199 10.7215 29.6199 10.828 29.6102C10.9556 29.6012 11.0149 29.5864 11.0621 29.5304C11.085 29.5014 11.0997 29.4827 11.1182 29.4827C11.1367 29.4827 11.1412 29.4924 11.1412 29.5207C11.1412 29.549 11.1182 29.6289 11.1042 29.7854C11.0901 29.9317 11.0901 30.0431 11.085 30.1075C11.0806 30.1545 11.071 30.1784 11.0525 30.1784C11.0245 30.1784 11.02 30.1404 11.02 30.1024C11.0204 30.0576 11.0142 30.0131 11.0015 29.9703C10.9824 29.8995 10.9262 29.8331 10.7579 29.8144C10.6303 29.8003 10.168 29.7906 10.0883 29.7906C10.0839 29.7901 10.0794 29.7906 10.0752 29.792C10.0711 29.7935 10.0673 29.7959 10.0641 29.7991C10.061 29.8022 10.0586 29.8061 10.0572 29.8103C10.0557 29.8145 10.0552 29.819 10.0557 29.8234V30.2402C10.0557 30.4006 10.0513 30.9487 10.0557 31.0479C10.0653 31.2412 10.0934 31.3462 10.2101 31.3932C10.2898 31.426 10.4161 31.4357 10.5985 31.4357C10.7402 31.4408 10.882 31.4265 11.02 31.3932C11.1699 31.3462 11.2209 31.2463 11.2585 31.0434C11.2681 30.9912 11.277 30.9726 11.3006 30.9726C11.3242 30.9726 11.3287 31.0106 11.3287 31.0434C11.3287 31.0763 11.291 31.4028 11.2681 31.5014C11.2349 31.6244 11.1979 31.6244 11.013 31.6244C10.6667 31.6244 10.5124 31.6154 10.33 31.6109C10.1476 31.6064 9.92756 31.5967 9.74516 31.5967C9.63229 31.5967 9.52005 31.6154 9.39888 31.6109C9.34722 31.6109 9.32362 31.6012 9.32362 31.5722C9.32362 31.5587 9.34722 31.5491 9.37528 31.5445C9.41136 31.5433 9.44724 31.5386 9.48242 31.5304C9.58127 31.5065 9.64185 31.4402 9.65142 31.0859C9.65588 30.9017 9.66098 30.6602 9.66098 30.2402L9.6629 29.4099Z" fill="#989898"/>
<path d="M18.512 29.5374C18.526 29.5374 18.54 29.5329 18.54 29.5085V29.4099C18.54 28.6717 18.54 28.5397 18.5305 28.3883C18.5209 28.237 18.4839 28.1519 18.3296 28.1191C18.277 28.1094 18.2236 28.1046 18.1701 28.1049C18.1516 28.1049 18.1331 28.0953 18.1331 28.0766C18.1331 28.0579 18.1561 28.0386 18.2078 28.0386C18.4182 28.0386 18.7128 28.0534 18.7364 28.0534C18.76 28.0534 19.0553 28.0386 19.195 28.0386C19.2466 28.0386 19.2702 28.0482 19.2702 28.0766C19.2702 28.1049 19.2517 28.1049 19.2326 28.1049C19.1934 28.1062 19.1543 28.1109 19.1159 28.1191C18.9884 28.1429 18.952 28.2228 18.9424 28.3883C18.9329 28.5397 18.9329 28.6717 18.9329 29.4099V30.2421C18.9329 30.693 18.9329 31.0685 18.9565 31.2676C18.9705 31.4048 18.9986 31.5085 19.1389 31.5252C19.2026 31.5342 19.3072 31.5439 19.3499 31.5439C19.378 31.5439 19.3869 31.5581 19.3869 31.5716C19.3869 31.5961 19.3633 31.6102 19.3123 31.6102C19.0572 31.6102 18.76 31.5961 18.7384 31.5961C18.7167 31.5961 18.4195 31.6102 18.2798 31.6102C18.2282 31.6102 18.2052 31.6006 18.2052 31.5716C18.2052 31.5581 18.2141 31.5439 18.2422 31.5439C18.2894 31.5421 18.3364 31.5359 18.3825 31.5252C18.4763 31.5059 18.4998 31.4022 18.5183 31.2676C18.5419 31.0685 18.5419 30.6956 18.5419 30.2421V29.7455C18.5421 29.7417 18.5415 29.738 18.5402 29.7344C18.5388 29.7309 18.5368 29.7277 18.5341 29.7251C18.5315 29.7224 18.5283 29.7203 18.5248 29.7189C18.5213 29.7176 18.5176 29.717 18.5139 29.7172H16.5273C16.5235 29.7165 16.5196 29.7167 16.5158 29.7179C16.5121 29.7191 16.5088 29.7212 16.506 29.724C16.5033 29.7267 16.5012 29.7301 16.5 29.7339C16.4989 29.7376 16.4986 29.7416 16.4993 29.7455V30.2421C16.4993 30.693 16.4993 31.0685 16.5229 31.2676C16.5369 31.4048 16.565 31.5085 16.7053 31.5252C16.769 31.5342 16.8736 31.5439 16.9157 31.5439C16.9438 31.5439 16.9533 31.5581 16.9533 31.5716C16.9533 31.5961 16.9297 31.6102 16.8781 31.6102C16.623 31.6102 16.3264 31.5961 16.3041 31.5961C16.2818 31.5961 15.9853 31.6102 15.8456 31.6102C15.7939 31.6102 15.7703 31.6006 15.7703 31.5716C15.7703 31.5581 15.7799 31.5439 15.808 31.5439C15.8552 31.5421 15.9022 31.5359 15.9483 31.5252C16.042 31.5059 16.0656 31.4022 16.0841 31.2676C16.1077 31.0685 16.1077 30.6956 16.1077 30.2421V29.4099C16.1077 28.6717 16.1077 28.5397 16.0981 28.3883C16.0886 28.237 16.0516 28.1519 15.8973 28.1191C15.8447 28.1094 15.7913 28.1046 15.7378 28.1049C15.7187 28.1049 15.7002 28.0953 15.7002 28.0766C15.7002 28.0579 15.7238 28.0386 15.7754 28.0386C15.9859 28.0386 16.2805 28.0534 16.3041 28.0534C16.3277 28.0534 16.623 28.0386 16.7627 28.0386C16.8143 28.0386 16.8373 28.0482 16.8373 28.0766C16.8373 28.1049 16.8188 28.1049 16.8003 28.1049C16.7608 28.1062 16.7216 28.1109 16.6829 28.1191C16.5554 28.1429 16.519 28.2228 16.5101 28.3883C16.5006 28.5397 16.5006 28.6717 16.5006 29.4099V29.5085C16.5006 29.5329 16.5146 29.5374 16.5286 29.5374H18.512Z" fill="#989898"/>
<path d="M25.1902 30.2421C25.1902 30.6929 25.1902 31.0685 25.2132 31.2675C25.2272 31.4047 25.2552 31.5084 25.3955 31.5251C25.4593 31.5342 25.5645 31.5438 25.6066 31.5438C25.6347 31.5438 25.6436 31.558 25.6436 31.5715C25.6436 31.596 25.6207 31.6102 25.569 31.6102C25.3139 31.6102 25.0167 31.596 24.995 31.596C24.9734 31.596 24.6762 31.6102 24.5365 31.6102C24.4855 31.6102 24.4619 31.6005 24.4619 31.5715C24.4619 31.558 24.4708 31.5438 24.4989 31.5438C24.5463 31.542 24.5935 31.5358 24.6398 31.5251C24.7329 31.5058 24.7565 31.4021 24.775 31.2675C24.7986 31.0685 24.7986 30.6955 24.7986 30.2421V28.2421C24.569 28.2466 24.335 28.2466 24.106 28.2517C23.8159 28.2562 23.7036 28.2891 23.6284 28.4024C23.5971 28.4485 23.5706 28.4977 23.5493 28.5493C23.5353 28.5873 23.5212 28.5963 23.5021 28.5963C23.483 28.5963 23.4785 28.5822 23.4785 28.5538C23.4785 28.5068 23.5723 28.0997 23.5818 28.0623C23.5914 28.025 23.6099 27.9722 23.6284 27.9722C23.6615 27.9722 23.7081 28.0198 23.8344 28.0289C23.9702 28.0437 24.1481 28.0533 24.2043 28.0533H25.9555C26.0667 28.0556 26.178 28.0474 26.2877 28.0289C26.3579 28.0198 26.4 28.0057 26.4191 28.0057C26.4382 28.0057 26.4421 28.034 26.4421 28.0623C26.4421 28.2041 26.428 28.53 26.428 28.5822C26.428 28.6247 26.414 28.6466 26.3955 28.6466C26.377 28.6466 26.363 28.6324 26.3579 28.566C26.3579 28.5467 26.3534 28.5326 26.3534 28.5139C26.3394 28.3722 26.2259 28.2633 25.7795 28.2562C25.583 28.2511 25.3866 28.2511 25.1902 28.2466V30.2421Z" fill="#989898"/>
<path d="M31.1212 29.4099C31.1212 28.6717 31.1212 28.5397 31.1117 28.3883C31.1021 28.237 31.0651 28.1519 30.9108 28.1191C30.8584 28.1094 30.8052 28.1047 30.752 28.1049C30.7328 28.1049 30.7144 28.0953 30.7144 28.0766C30.7144 28.0579 30.738 28.0386 30.789 28.0386C31.0001 28.0386 31.2807 28.0534 31.3183 28.0534C31.421 28.0534 31.692 28.0386 31.9076 28.0386C32.493 28.0386 32.7035 28.2376 32.7781 28.3085C32.8557 28.3908 32.9164 28.488 32.9566 28.5942C32.9968 28.7005 33.0157 28.8138 33.0121 28.9275C33.0121 29.542 32.5255 29.9961 31.861 29.9961C31.8282 29.9969 31.7954 29.9952 31.7628 29.9909C31.7392 29.9909 31.7111 29.9819 31.7111 29.9581C31.7111 29.9201 31.7392 29.9155 31.8387 29.9155C32.2928 29.9155 32.6486 29.6038 32.6486 29.1072C32.6544 28.8512 32.5602 28.6032 32.3865 28.4167C32.3029 28.3328 32.2022 28.2682 32.0914 28.2275C31.9806 28.1868 31.8624 28.1709 31.7449 28.1809C31.6769 28.1782 31.6089 28.1876 31.5441 28.2086C31.516 28.2183 31.5064 28.2518 31.5064 28.2988V30.2421C31.5064 30.693 31.5064 31.0685 31.53 31.2676C31.5441 31.4048 31.5721 31.5085 31.7124 31.5252C31.7762 31.5342 31.8808 31.5439 31.9229 31.5439C31.9509 31.5439 31.9605 31.5581 31.9605 31.5716C31.9605 31.5961 31.9369 31.6102 31.8852 31.6102C31.6301 31.6102 31.333 31.5961 31.3113 31.5961C31.2896 31.5961 31.0026 31.6102 30.8617 31.6102C30.8107 31.6102 30.7871 31.6006 30.7871 31.5716C30.7871 31.5581 30.796 31.5439 30.8247 31.5439C30.8719 31.5421 30.9189 31.5358 30.965 31.5252C31.0581 31.5059 31.0817 31.4022 31.1008 31.2676C31.1238 31.0685 31.1238 30.6956 31.1238 30.2421L31.1212 29.4099Z" fill="#989898"/>
<path d="M45.5342 29.5374C45.5482 29.5374 45.5622 29.5329 45.5622 29.5085V29.4099C45.5622 28.6717 45.5622 28.5397 45.5527 28.3883C45.5431 28.237 45.5061 28.1519 45.3518 28.1191C45.2992 28.1094 45.2458 28.1046 45.1923 28.1049C45.1738 28.1049 45.1553 28.0953 45.1553 28.0766C45.1553 28.0579 45.1783 28.0386 45.23 28.0386C45.4404 28.0386 45.735 28.0534 45.7586 28.0534C45.7822 28.0534 46.0775 28.0386 46.2172 28.0386C46.2688 28.0386 46.2924 28.0482 46.2924 28.0766C46.2924 28.1049 46.2739 28.1049 46.2548 28.1049C46.2156 28.1062 46.1765 28.1109 46.1381 28.1191C46.0105 28.1429 45.9742 28.2228 45.9646 28.3883C45.9551 28.5397 45.9551 28.6717 45.9551 29.4099V30.2421C45.9551 30.693 45.9551 31.0685 45.9787 31.2676C45.9927 31.4048 46.0207 31.5085 46.1611 31.5252C46.2248 31.5342 46.3301 31.5439 46.3721 31.5439C46.4002 31.5439 46.4091 31.5581 46.4091 31.5716C46.4091 31.5961 46.3862 31.6102 46.3345 31.6102C46.0794 31.6102 45.7822 31.5961 45.7606 31.5961C45.7389 31.5961 45.4417 31.6102 45.302 31.6102C45.2504 31.6102 45.2274 31.6006 45.2274 31.5716C45.2274 31.5581 45.2363 31.5439 45.2644 31.5439C45.3118 31.5421 45.359 31.5358 45.4053 31.5252C45.4984 31.5059 45.522 31.4022 45.5405 31.2676C45.5641 31.0685 45.5641 30.6956 45.5641 30.2421V29.7455C45.5643 29.7417 45.5637 29.738 45.5624 29.7344C45.561 29.7309 45.559 29.7277 45.5563 29.7251C45.5537 29.7224 45.5505 29.7203 45.547 29.7189C45.5435 29.7176 45.5398 29.717 45.5361 29.7172H43.5521C43.5483 29.7165 43.5443 29.7167 43.5406 29.7179C43.5369 29.7191 43.5335 29.7212 43.5308 29.724C43.528 29.7267 43.526 29.7301 43.5248 29.7339C43.5236 29.7376 43.5234 29.7416 43.524 29.7455V30.2421C43.524 30.693 43.524 31.0685 43.5476 31.2676C43.5617 31.4048 43.5897 31.5085 43.73 31.5252C43.7938 31.5342 43.8984 31.5439 43.9405 31.5439C43.9692 31.5439 43.9781 31.5581 43.9781 31.5716C43.9781 31.5961 43.9545 31.6102 43.9035 31.6102C43.6484 31.6102 43.3512 31.5961 43.3295 31.5961C43.3078 31.5961 43.0107 31.6102 42.871 31.6102C42.8193 31.6102 42.7957 31.6006 42.7957 31.5716C42.7957 31.5581 42.8053 31.5439 42.8334 31.5439C42.8806 31.5421 42.9276 31.5359 42.9737 31.5252C43.0674 31.5059 43.091 31.4022 43.1095 31.2676C43.1331 31.0685 43.1331 30.6956 43.1331 30.2421V29.4099C43.1331 28.6717 43.1331 28.5397 43.1235 28.3883C43.114 28.237 43.077 28.1519 42.9226 28.1191C42.87 28.1094 42.8167 28.1046 42.7632 28.1049C42.7441 28.1049 42.7256 28.0953 42.7256 28.0766C42.7256 28.0579 42.7492 28.0386 42.8008 28.0386C43.0113 28.0386 43.3059 28.0534 43.3295 28.0534C43.3531 28.0534 43.6484 28.0386 43.788 28.0386C43.8397 28.0386 43.8633 28.0482 43.8633 28.0766C43.8633 28.1049 43.8442 28.1049 43.8257 28.1049C43.7862 28.1062 43.747 28.1109 43.7083 28.1191C43.5808 28.1429 43.5444 28.2228 43.5355 28.3883C43.5259 28.5397 43.5259 28.6717 43.5259 29.4099V29.5085C43.5259 29.5329 43.54 29.5374 43.554 29.5374H45.5342Z" fill="#989898"/>
<path d="M51.3107 29.4099C51.3107 28.6718 51.3107 28.5397 51.3018 28.3883C51.2928 28.237 51.2546 28.1519 51.1002 28.1191C51.0553 28.1113 51.0099 28.1066 50.9644 28.1049C50.9319 28.0998 50.9038 28.0953 50.9038 28.0766C50.9038 28.0579 50.9274 28.0386 50.9784 28.0386C51.0862 28.0386 51.2125 28.0386 51.5077 28.0534C51.5403 28.0534 52.4714 28.0534 52.5791 28.0482C52.652 28.0491 52.7245 28.0396 52.7947 28.0199C52.8101 28.0094 52.8279 28.003 52.8463 28.0012C52.8604 28.0012 52.8648 28.0199 52.8648 28.0437C52.8483 28.1169 52.8358 28.1908 52.8272 28.2653C52.8228 28.3362 52.8183 28.4263 52.8087 28.5494C52.8036 28.5964 52.7896 28.6299 52.7711 28.6299C52.743 28.6299 52.7335 28.6061 52.7335 28.5655C52.7345 28.5126 52.7267 28.4599 52.7105 28.4096C52.6774 28.3007 52.5791 28.2537 52.3731 28.235C52.2941 28.2254 51.7839 28.2202 51.7354 28.2202C51.7163 28.2202 51.7074 28.235 51.7074 28.2679V29.5722C51.7074 29.6057 51.7118 29.6199 51.7354 29.6199C51.796 29.6199 52.3731 29.6199 52.4796 29.6102C52.6072 29.6012 52.6665 29.5864 52.7137 29.5304C52.7367 29.5014 52.7513 29.4827 52.7698 29.4827C52.7883 29.4827 52.7928 29.4924 52.7928 29.5207C52.7928 29.549 52.7698 29.6289 52.7558 29.7854C52.7418 29.9317 52.7418 30.0431 52.7367 30.1075C52.7322 30.1545 52.7226 30.1784 52.7041 30.1784C52.6856 30.1784 52.6716 30.1404 52.6716 30.1024C52.6721 30.0576 52.6657 30.013 52.6525 29.9703C52.634 29.8995 52.5779 29.8331 52.4095 29.8144C52.282 29.8003 51.8196 29.7906 51.7399 29.7906C51.7355 29.7901 51.731 29.7906 51.7269 29.792C51.7227 29.7935 51.7189 29.7959 51.7157 29.7991C51.7126 29.8022 51.7102 29.8061 51.7088 29.8103C51.7073 29.8145 51.7068 29.819 51.7074 29.8234V30.2402C51.7074 30.4006 51.7029 30.9487 51.7074 31.0479C51.7163 31.2412 51.7443 31.3462 51.8617 31.3932C51.9414 31.426 52.0677 31.4357 52.2501 31.4357C52.3918 31.4408 52.5336 31.4265 52.6716 31.3932C52.8215 31.3462 52.8725 31.2463 52.9101 31.0434C52.9197 30.9912 52.9286 30.9726 52.9522 30.9726C52.9758 30.9726 52.9803 31.0106 52.9803 31.0434C52.9803 31.0763 52.9426 31.4028 52.9165 31.5014C52.8833 31.6244 52.8463 31.6244 52.6614 31.6244C52.3151 31.6244 52.1608 31.6154 51.9784 31.6109C51.796 31.6064 51.576 31.5967 51.393 31.5967C51.2807 31.5967 51.1685 31.6154 51.0467 31.6109C50.9956 31.6109 50.972 31.6012 50.972 31.5722C50.972 31.5587 50.9956 31.5491 51.0237 31.5445C51.0598 31.5433 51.0957 31.5386 51.1308 31.5304C51.2297 31.5065 51.2903 31.4402 51.2998 31.0859C51.3043 30.9017 51.3088 30.6602 51.3088 30.2402L51.3107 29.4099Z" fill="#989898"/>
<path d="M58.246 31.5986C57.8901 31.5986 57.7594 31.6031 57.6376 31.6128C57.394 31.6263 57.3187 31.7068 57.3053 31.92C57.3002 31.9619 57.2913 31.9999 57.2632 31.9999C57.2352 31.9999 57.2301 31.9812 57.2301 31.9149C57.2256 31.6173 57.2071 31.464 57.202 31.3906C57.1975 31.3526 57.2071 31.3481 57.2301 31.3481C57.3684 31.365 57.5078 31.3728 57.6471 31.3712C57.6841 31.3712 57.6937 31.3616 57.7217 31.3068L58.8448 28.168C58.9086 28.0025 58.9341 27.969 58.9621 27.969C58.9902 27.969 59.0087 28.0025 59.0559 28.121C59.1445 28.3426 59.8888 30.3233 60.2816 31.3159C60.3008 31.3539 60.3148 31.368 60.3569 31.368C60.521 31.3679 60.6849 31.3585 60.8479 31.3397C60.876 31.3352 60.8856 31.3397 60.876 31.3777C60.8421 31.5585 60.8233 31.7419 60.8199 31.9258C60.8199 31.9735 60.8058 31.9967 60.7873 31.9967C60.7689 31.9967 60.7497 31.9683 60.7453 31.9258C60.7312 31.7178 60.6426 31.6186 60.4411 31.6038C60.3052 31.5948 60.0195 31.5948 59.8282 31.5948L58.246 31.5986ZM59.2759 31.3951C59.4584 31.3996 59.641 31.3949 59.8231 31.3809C59.8422 31.3758 59.8512 31.3667 59.8371 31.3384C59.5705 30.6389 59.2338 29.6225 58.8869 28.7052C58.878 28.6814 58.8684 28.6814 58.8588 28.7007L58.054 31.0975C58.0183 31.1806 57.9902 31.2669 57.9698 31.3551C57.9698 31.3738 57.9839 31.3738 57.9979 31.379C58.1629 31.3921 58.3285 31.3968 58.494 31.3931L59.2759 31.3951Z" fill="#989898"/>
<path d="M65.3307 29.4099C65.3307 28.6717 65.3307 28.5397 65.3212 28.3883C65.3116 28.237 65.2746 28.1519 65.1203 28.1191C65.0755 28.1105 65.03 28.1058 64.9844 28.1049C64.9423 28.1049 64.9207 28.0953 64.9207 28.0766C64.9207 28.0579 64.9442 28.0386 64.9953 28.0386C65.2064 28.0386 65.501 28.0534 65.5246 28.0534C65.6368 28.0534 65.8192 28.0386 66.0348 28.0386C66.8001 28.0386 66.9703 28.5114 66.9703 28.7471C66.9703 29.1336 66.7503 29.3661 66.5303 29.598C66.8766 29.7069 67.3402 30.0424 67.3402 30.5951C67.3402 31.1014 66.9467 31.6257 66.147 31.6257C66.0954 31.6257 65.9455 31.6167 65.8097 31.6122C65.6738 31.6077 65.5431 31.598 65.5246 31.598C65.3747 31.598 65.2293 31.6122 65.0654 31.6122C65.0144 31.6122 64.9908 31.6025 64.9908 31.5787C64.9908 31.5645 64.9997 31.5458 65.061 31.5458C65.0988 31.5456 65.1365 31.5408 65.1732 31.5317C65.2669 31.5123 65.2854 31.4028 65.3046 31.2669C65.3275 31.0679 65.3275 30.6949 65.3275 30.2415L65.3307 29.4099ZM65.7051 29.5136C65.7051 29.5465 65.7146 29.5561 65.7382 29.5658C65.8326 29.5801 65.9279 29.5864 66.0233 29.5845C66.2854 29.5845 66.3511 29.5748 66.4493 29.4614C66.5605 29.328 66.6205 29.1586 66.6183 28.9841C66.6183 28.5919 66.4448 28.1713 65.9863 28.1713C65.9106 28.1708 65.8351 28.1788 65.7612 28.1951C65.7197 28.2041 65.7051 28.2183 65.7051 28.2466V29.5136ZM65.7051 30.0147C65.7051 30.3787 65.7051 30.9648 65.7102 31.0357C65.7242 31.2676 65.7242 31.3339 65.869 31.4048C66.0006 31.4546 66.1404 31.4787 66.2809 31.4756C66.536 31.4756 66.941 31.3384 66.941 30.8038C66.941 30.5204 66.8472 30.1094 66.4869 29.8589C66.3722 29.7785 66.2379 29.7311 66.0985 29.7217C66.0348 29.712 65.8033 29.712 65.7331 29.712C65.7146 29.712 65.7051 29.7217 65.7051 29.7455V30.0147Z" fill="#989898"/>
<path d="M72.5046 31.0543C73.0849 30.3406 74.2902 28.8282 74.7513 28.2607C74.9247 28.0482 74.9994 27.9722 75.0555 27.9722C75.1116 27.9722 75.1256 28.0102 75.1256 28.4231C75.1256 29.3074 75.1256 30.1487 75.1397 31.033C75.1448 31.3776 75.1818 31.5052 75.331 31.5297C75.3546 31.5342 75.4388 31.5438 75.5134 31.5483C75.5695 31.5528 75.5842 31.567 75.5842 31.5812C75.5842 31.6095 75.565 31.6147 75.5134 31.6147C75.345 31.6147 74.933 31.6005 74.8584 31.6005C74.7551 31.6005 74.6033 31.6147 74.4369 31.6147C74.3808 31.6147 74.3667 31.605 74.3667 31.5857C74.3667 31.5664 74.3763 31.5528 74.4369 31.5483C74.479 31.5438 74.5306 31.5387 74.5727 31.5297C74.7086 31.5007 74.7271 31.3023 74.7322 30.9499C74.7462 30.177 74.7411 29.3847 74.7506 28.577C74.507 28.8842 72.5511 31.3326 72.3541 31.5503C72.2558 31.6591 72.2048 31.6823 72.1812 31.6823C72.1347 31.6823 72.1206 31.6443 72.1206 31.4556C72.1206 30.6755 72.1347 29.6121 72.1206 28.7045C72.1155 28.1847 72.0639 28.1512 71.9147 28.1248C71.8509 28.1152 71.8018 28.1152 71.7648 28.1107C71.7278 28.1061 71.7131 28.0965 71.7131 28.0778C71.7131 28.0443 71.7552 28.0443 71.8069 28.0443C71.9516 28.0443 72.2469 28.0591 72.3215 28.0591C72.4714 28.0591 72.6589 28.0443 72.7896 28.0443C72.8457 28.0443 72.8693 28.054 72.8693 28.0727C72.8693 28.0913 72.8598 28.1055 72.8056 28.1107C72.7649 28.112 72.7243 28.1167 72.6844 28.1248C72.553 28.1532 72.5205 28.2053 72.5109 28.6066L72.5046 31.0543Z" fill="#989898"/>
<path d="M82.1634 29.7174C82.3273 29.5705 82.9542 28.9225 83.2355 28.6224C83.5167 28.3222 83.5582 28.2397 83.5582 28.1876C83.5582 28.1496 83.5397 28.1232 83.4504 28.1025C83.4038 28.0929 83.3866 28.0832 83.3866 28.0645C83.3866 28.0459 83.4096 28.0362 83.4504 28.0362C83.5677 28.0362 83.68 28.051 83.8439 28.051C83.9886 28.051 84.2322 28.0362 84.312 28.0362C84.3757 28.0362 84.391 28.0459 84.391 28.0697C84.391 28.0935 84.3681 28.0974 84.3069 28.1071C84.2333 28.115 84.161 28.1325 84.0919 28.1592C83.9606 28.2063 83.8624 28.2629 83.5818 28.5457C83.2214 28.9096 82.6079 29.5196 82.4912 29.6472C82.6641 29.8455 83.5161 30.8066 83.8018 31.0745C84.1155 31.3676 84.2839 31.481 84.4567 31.519C84.5152 31.5314 84.5748 31.5379 84.6347 31.5383C84.6767 31.5383 84.6984 31.5473 84.6984 31.5705C84.6984 31.5937 84.6704 31.6092 84.6187 31.6092H84.268C83.842 31.6092 83.7246 31.5286 83.4536 31.2542C83.0977 30.8903 82.6577 30.3563 82.2782 29.9067C82.2368 29.8552 82.1947 29.8172 82.1615 29.7747V30.2385C82.1615 30.6893 82.1615 31.0649 82.1851 31.2639C82.1991 31.4011 82.2272 31.5093 82.3675 31.5286C82.4297 31.5368 82.4923 31.5416 82.555 31.5428C82.5965 31.5428 82.6188 31.557 82.6188 31.5705C82.6188 31.595 82.5997 31.6092 82.5486 31.6092C82.2935 31.6092 82.0008 31.595 81.9747 31.595C81.9485 31.595 81.6558 31.6092 81.5155 31.6092C81.4645 31.6092 81.4517 31.5995 81.4517 31.5705C81.4517 31.557 81.4753 31.5428 81.5034 31.5428C81.5444 31.5429 81.5853 31.5381 81.6252 31.5286C81.7189 31.5093 81.7527 31.4339 81.7655 31.2639C81.7795 31.0649 81.7891 30.6919 81.7891 30.2385V29.7747C81.7585 29.8174 81.7257 29.8584 81.6909 29.8977C81.372 30.2758 80.8714 30.8716 80.497 31.2401C80.226 31.5093 80.1144 31.6092 79.6967 31.6092H79.3338C79.2917 31.6092 79.2637 31.5995 79.2637 31.5757C79.2637 31.5518 79.2822 31.5383 79.3338 31.5383C79.384 31.5364 79.434 31.5317 79.4837 31.5241C79.6616 31.4996 79.8721 31.3773 80.2324 31.023C80.5226 30.7344 81.131 30.0768 81.4868 29.6755C81.3746 29.5428 80.5181 28.6874 80.3822 28.5457C80.1016 28.2713 79.9996 28.2005 79.8625 28.1528C79.7973 28.1302 79.73 28.1144 79.6616 28.1058C79.5978 28.0961 79.5723 28.0871 79.5723 28.0684C79.5723 28.0497 79.5915 28.0349 79.6565 28.0349C79.7362 28.0349 79.9798 28.0497 80.1201 28.0497C80.284 28.0497 80.4007 28.0349 80.5226 28.0349C80.5646 28.0349 80.5787 28.0446 80.5787 28.0633C80.5787 28.0819 80.5646 28.0916 80.5149 28.1013C80.4212 28.1206 80.4027 28.1483 80.4027 28.1863C80.4027 28.2385 80.4447 28.328 80.7349 28.6307C81.0251 28.9335 81.5774 29.4958 81.7878 29.7135V29.4062C81.7878 28.6681 81.7878 28.536 81.7782 28.3847C81.7687 28.2333 81.7221 28.1438 81.6195 28.1206C81.572 28.108 81.5231 28.1015 81.4741 28.1013C81.4556 28.1013 81.4371 28.0916 81.4371 28.0729C81.4371 28.0542 81.46 28.0349 81.5117 28.0349C81.666 28.0349 81.9517 28.0497 81.9753 28.0497C81.9989 28.0497 82.284 28.0349 82.4217 28.0349C82.4734 28.0349 82.4963 28.0446 82.4963 28.0729C82.4963 28.1013 82.4778 28.1013 82.4593 28.1013C82.4199 28.1025 82.3806 28.1072 82.342 28.1154C82.2145 28.1393 82.1781 28.2191 82.1692 28.3847C82.1596 28.536 82.1596 28.6681 82.1596 29.4062L82.1634 29.7174Z" fill="#989898"/>
<path d="M89.2243 31.0543C89.8046 30.3406 91.0099 28.8282 91.471 28.2607C91.6445 28.0482 91.7191 27.9722 91.7752 27.9722C91.8313 27.9722 91.8454 28.0102 91.8454 28.4231C91.8454 29.3074 91.8454 30.1487 91.8594 31.033C91.8645 31.3776 91.9015 31.5052 92.0507 31.5297C92.0743 31.5342 92.1585 31.5438 92.2331 31.5483C92.2892 31.5528 92.3033 31.567 92.3033 31.5812C92.3033 31.6095 92.2848 31.6147 92.2331 31.6147C92.0648 31.6147 91.6528 31.6005 91.5782 31.6005C91.4749 31.6005 91.3231 31.6147 91.1566 31.6147C91.1005 31.6147 91.0865 31.605 91.0865 31.5857C91.0865 31.5664 91.096 31.5528 91.1566 31.5483C91.1987 31.5438 91.2504 31.5387 91.2925 31.5297C91.4283 31.5007 91.4468 31.3023 91.4519 30.9499C91.4659 30.177 91.4608 29.3847 91.4704 28.577C91.2268 28.8842 89.2709 31.3326 89.0738 31.5503C88.9756 31.6591 88.9246 31.6823 88.901 31.6823C88.8544 31.6823 88.8372 31.6443 88.8372 31.4556C88.8372 30.6755 88.8512 29.6121 88.8372 28.7045C88.8321 28.1847 88.7804 28.1512 88.6312 28.1248C88.5674 28.1152 88.5183 28.1152 88.4813 28.1107C88.4444 28.1061 88.4297 28.0965 88.4297 28.0778C88.4297 28.0443 88.4718 28.0443 88.5234 28.0443C88.6682 28.0443 88.9635 28.0591 89.0381 28.0591C89.188 28.0591 89.3754 28.0443 89.5062 28.0443C89.5623 28.0443 89.5859 28.054 89.5859 28.0727C89.5859 28.0913 89.5763 28.1055 89.5221 28.1107C89.4814 28.112 89.4409 28.1167 89.401 28.1248C89.2696 28.1532 89.2371 28.2053 89.2275 28.6066L89.2243 31.0543Z" fill="#989898"/>
<path d="M100.615 31.0028C100.635 31.1728 100.667 31.4376 100.871 31.5033C100.964 31.5331 101.062 31.5477 101.161 31.5464C101.184 31.5464 101.212 31.5509 101.212 31.5741C101.212 31.5973 101.198 31.6128 101.142 31.6128C101.04 31.6128 100.505 31.5986 100.332 31.5838C100.225 31.5741 100.205 31.5606 100.205 31.5368C100.205 31.5129 100.214 31.5129 100.237 31.5033C100.27 31.4897 100.265 31.4189 100.256 31.3339L100.031 28.8656L98.8706 31.3525C98.7724 31.5606 98.7584 31.6031 98.7163 31.6031C98.6838 31.6031 98.6602 31.5554 98.5709 31.3854C98.4497 31.1542 98.0473 30.3361 98.0237 30.2904C97.9816 30.2054 97.4434 29.0382 97.3917 28.9107L97.2004 31.1368C97.196 31.2128 97.1915 31.2791 97.1915 31.359C97.1915 31.4775 97.2476 31.5149 97.319 31.5297C97.3742 31.5427 97.4307 31.5489 97.4874 31.5484C97.5155 31.5484 97.534 31.5574 97.534 31.5715C97.534 31.605 97.511 31.6147 97.4638 31.6147C97.291 31.6147 97.0518 31.6005 97.0174 31.6005C96.983 31.6005 96.7508 31.6147 96.6245 31.6147C96.5774 31.6147 96.5442 31.6096 96.5442 31.5761C96.5442 31.5574 96.5678 31.5484 96.5914 31.5484C96.6385 31.5492 96.6856 31.5445 96.7317 31.5342C96.886 31.5052 96.8956 31.3358 96.9185 31.1419L97.2559 28.0688C97.261 28.0166 97.2795 27.9741 97.3076 27.9741C97.3356 27.9741 97.3541 27.9934 97.3777 28.0456L98.8101 31.0189L100.186 28.0501C100.205 28.0076 100.223 27.9741 100.256 27.9741C100.29 27.9741 100.303 28.0121 100.312 28.1029L100.615 31.0028Z" fill="#989898"/>
<path d="M105.256 29.8228C105.256 29.0569 105.809 27.9741 107.101 27.9741C108.154 27.9741 108.94 28.6459 108.94 29.7474C108.94 30.8057 108.2 31.6798 107.073 31.6798C105.79 31.6785 105.256 30.6717 105.256 29.8228ZM108.491 29.8794C108.491 28.7451 107.807 28.1352 107.068 28.1352C106.286 28.1352 105.701 28.655 105.701 29.6901C105.701 30.7915 106.356 31.5007 107.199 31.5007C107.62 31.4975 108.491 31.2527 108.491 29.8775V29.8794Z" fill="#989898"/>
<path d="M113.895 31.1684C113.441 30.7568 113.329 30.2177 113.329 29.7687C113.334 29.2875 113.522 28.8266 113.853 28.4805C114.134 28.1977 114.56 27.9749 115.28 27.9749C115.508 27.9746 115.735 27.9936 115.96 28.0315C116.137 28.065 116.282 28.0792 116.456 28.1024C116.462 28.1028 116.468 28.1044 116.474 28.1073C116.479 28.1102 116.484 28.1143 116.488 28.1192C116.492 28.1241 116.495 28.1298 116.496 28.1359C116.498 28.142 116.498 28.1483 116.497 28.1546C116.497 28.1926 116.484 28.2493 116.474 28.4193C116.465 28.5758 116.465 28.8354 116.46 28.9063C116.456 28.9771 116.446 29.0054 116.418 29.0054C116.39 29.0054 116.38 28.9726 116.38 28.9063C116.382 28.8166 116.365 28.7275 116.332 28.6445C116.298 28.5616 116.248 28.4864 116.184 28.4238C116.02 28.2821 115.66 28.1546 115.248 28.1546C114.625 28.1546 114.335 28.3388 114.171 28.4998C113.829 28.8309 113.75 29.2515 113.75 29.7339C113.75 30.6357 114.438 31.4641 115.44 31.4641C115.791 31.4641 116.067 31.4215 116.254 31.2277C116.352 31.1233 116.414 30.9153 116.427 30.8302C116.437 30.7787 116.446 30.7594 116.474 30.7594C116.502 30.7594 116.507 30.7922 116.507 30.8302C116.485 31.0338 116.451 31.2358 116.404 31.4351C116.375 31.5252 116.366 31.5349 116.282 31.5723C116.095 31.6483 115.739 31.6811 115.44 31.6811C114.738 31.6785 114.264 31.5033 113.895 31.1684Z" fill="#989898"/>
<path d="M122.549 30.2421C122.549 30.6929 122.549 31.0685 122.572 31.2675C122.586 31.4047 122.614 31.5084 122.755 31.5251C122.818 31.5342 122.923 31.5438 122.965 31.5438C122.993 31.5438 123.003 31.558 123.003 31.5715C123.003 31.596 122.979 31.6102 122.927 31.6102C122.672 31.6102 122.375 31.596 122.353 31.596C122.332 31.596 122.035 31.6102 121.895 31.6102C121.843 31.6102 121.82 31.6005 121.82 31.5715C121.82 31.558 121.829 31.5438 121.857 31.5438C121.905 31.542 121.952 31.5358 121.998 31.5251C122.091 31.5058 122.114 31.4021 122.133 31.2675C122.157 31.0685 122.157 30.6955 122.157 30.2421V28.2421C121.927 28.2466 121.693 28.2466 121.464 28.2517C121.174 28.2562 121.061 28.2891 120.987 28.4024C120.955 28.4486 120.929 28.4978 120.907 28.5493C120.893 28.5873 120.879 28.5963 120.861 28.5963C120.842 28.5963 120.837 28.5822 120.837 28.5538C120.837 28.5068 120.931 28.0997 120.94 28.0623C120.949 28.025 120.968 27.9722 120.987 27.9722C121.019 27.9722 121.066 28.0198 121.193 28.0289C121.329 28.0437 121.507 28.0533 121.562 28.0533H123.317C123.428 28.0556 123.54 28.0474 123.649 28.0289C123.719 28.0198 123.762 28.0057 123.781 28.0057C123.799 28.0057 123.804 28.034 123.804 28.0623C123.804 28.2041 123.79 28.53 123.79 28.5822C123.79 28.6247 123.776 28.6466 123.757 28.6466C123.739 28.6466 123.725 28.6324 123.719 28.566C123.719 28.5467 123.715 28.5326 123.715 28.5139C123.701 28.3722 123.587 28.2633 123.141 28.2562C122.945 28.2511 122.748 28.2511 122.552 28.2466L122.549 30.2421Z" fill="#989898"/>
<path d="M128.753 31.0543C129.333 30.3406 130.539 28.8282 131 28.2607C131.173 28.0482 131.248 27.9722 131.304 27.9722C131.351 27.9722 131.374 28.0102 131.374 28.4231C131.374 29.3074 131.374 30.1487 131.388 31.033C131.393 31.3776 131.43 31.5052 131.579 31.5297C131.604 31.5342 131.688 31.5438 131.763 31.5483C131.819 31.5528 131.833 31.567 131.833 31.5812C131.833 31.6095 131.814 31.6147 131.763 31.6147C131.594 31.6147 131.182 31.6005 131.108 31.6005C131.004 31.6005 130.852 31.6147 130.686 31.6147C130.63 31.6147 130.616 31.605 130.616 31.5857C130.616 31.5664 130.625 31.5528 130.686 31.5483C130.728 31.5438 130.78 31.5387 130.821 31.5297C130.957 31.5007 130.976 31.3023 130.981 30.9499C130.995 30.177 130.99 29.3847 131 28.577C130.756 28.8842 128.8 31.3326 128.603 31.5503C128.505 31.6591 128.453 31.6823 128.43 31.6823C128.383 31.6823 128.367 31.6443 128.367 31.4556C128.367 30.6755 128.381 29.6121 128.367 28.7045C128.362 28.1847 128.31 28.1512 128.161 28.1248C128.097 28.1152 128.048 28.1152 128.011 28.1107C127.973 28.1061 127.96 28.0965 127.96 28.0778C127.96 28.0443 128.002 28.0443 128.053 28.0443C128.198 28.0443 128.493 28.0591 128.568 28.0591C128.717 28.0591 128.905 28.0443 129.036 28.0443C129.092 28.0443 129.116 28.054 129.116 28.0727C129.116 28.0913 129.106 28.1055 129.052 28.1107C129.011 28.112 128.97 28.1167 128.93 28.1248C128.803 28.1532 128.766 28.2053 128.758 28.6066L128.753 31.0543Z" fill="#989898"/>
<path d="M108.67 19.9221C103.232 19.9221 98.8074 15.4538 98.8074 9.96135C98.8074 4.46892 103.231 0 108.67 0C114.109 0 118.532 4.46828 118.532 9.96135C118.532 15.4544 114.107 19.9221 108.67 19.9221ZM108.67 0.147504C103.313 0.147504 98.9521 4.55072 98.9521 9.96328C98.9521 15.3758 103.313 19.7746 108.67 19.7746C114.027 19.7746 118.388 15.372 118.388 9.96006C118.388 4.54815 114.027 0.145572 108.67 0.145572V0.147504Z" fill="#989898"/>
<path d="M105.459 21.5227C104.143 21.5223 102.857 21.1279 101.763 20.3893C100.67 19.6507 99.8171 18.6011 99.3139 17.3732C98.8107 16.1453 98.6793 14.7942 98.9362 13.4909C99.1932 12.1876 99.827 10.9904 100.758 10.0509C101.688 9.11141 102.874 8.47168 104.164 8.21264C105.455 7.95359 106.792 8.08687 108.008 8.5956C109.223 9.10434 110.262 9.9657 110.993 11.0708C111.724 12.1758 112.114 13.4749 112.114 14.8039C112.112 16.5856 111.41 18.2937 110.162 19.5533C108.914 20.8129 107.223 21.5212 105.459 21.5227ZM105.459 8.2306C104.173 8.2306 102.915 8.61585 101.845 9.33763C100.776 10.0594 99.942 11.0853 99.4496 12.2857C98.9572 13.486 98.8282 14.8068 99.0789 16.0812C99.3296 17.3556 99.9489 18.5263 100.858 19.4452C101.768 20.3642 102.926 20.9902 104.188 21.2441C105.45 21.4979 106.757 21.3683 107.946 20.8715C109.135 20.3747 110.151 19.5331 110.866 18.4531C111.581 17.3731 111.963 16.1032 111.964 14.8039C111.962 13.0617 111.276 11.3915 110.057 10.1593C108.837 8.92707 107.184 8.2335 105.459 8.2306V8.2306Z" fill="#989898"/>
<path d="M109.818 18.6208C108.423 18.6209 107.06 18.2033 105.9 17.4209C104.741 16.6384 103.837 15.5262 103.303 14.2249C102.769 12.9236 102.63 11.4917 102.902 10.1102C103.174 8.72871 103.845 7.45973 104.831 6.46375C105.818 5.46776 107.074 4.7895 108.442 4.51474C109.81 4.23998 111.227 4.38106 112.516 4.92014C113.804 5.45922 114.905 6.37209 115.68 7.5433C116.455 8.71451 116.868 10.0915 116.868 11.5C116.866 13.3879 116.122 15.1978 114.801 16.5327C113.479 17.8676 111.687 18.6185 109.818 18.6208V18.6208ZM109.818 4.52479C108.452 4.52467 107.117 4.93365 105.981 5.70001C104.845 6.46638 103.96 7.55571 103.437 8.83025C102.914 10.1048 102.777 11.5073 103.044 12.8604C103.31 14.2135 103.968 15.4564 104.934 16.432C105.899 17.4075 107.13 18.0719 108.47 18.3411C109.809 18.6103 111.198 18.4722 112.46 17.9443C113.722 17.4164 114.8 16.5224 115.559 15.3753C116.318 14.2282 116.723 12.8796 116.723 11.5C116.721 9.65079 115.993 7.87791 114.698 6.57027C113.404 5.26263 111.649 4.52701 109.818 4.52479Z" fill="#989898"/>
</g>
<defs>
<clipPath id="clip0_70_942">
<rect width="132" height="32" fill="white"/>
</clipPath>
</defs>
</svg>
