<svg width="171" height="31" viewBox="0 0 171 31" fill="none" xmlns="http://www.w3.org/2000/svg">
<g clip-path="url(#clip0_70_994)">
<path d="M25.956 25.0091V16.1145L17.9109 11.5767L10.0045 16.1145L9.93515 25.0938M2.78601 29.04L0.294922 30.4151V10.4767L17.9109 0.438721L35.5268 10.4767V30.4151L33.1688 29.0833L2.78601 29.04ZM2.78601 29.04V11.9893L17.9109 3.32636L33.1688 11.9893V29.0833L2.78601 29.04ZM2.78601 29.04L5.14972 27.7354L2.78601 29.04ZM33.1688 29.0833L30.672 27.673L33.1688 29.0833ZM30.672 27.673V13.3643L17.9109 6.07648L5.14972 13.3643V27.7354L30.672 27.673ZM30.672 27.673L28.314 26.3411L30.672 27.673ZM5.14972 27.7354L7.36904 26.5103L5.14972 27.7354ZM7.36904 26.5103V14.877L17.9109 8.82662L28.314 14.877V26.3411L7.36904 26.5103ZM7.36904 26.5103L9.93515 25.0938L7.36904 26.5103ZM28.314 26.3411L25.956 25.0091L28.314 26.3411ZM25.956 25.0091L23.5979 23.6773V17.4896L17.9109 14.1894L12.5013 17.4896V23.6773L9.93515 25.0938L25.956 25.0091Z" stroke="#989898"/>
<path d="M48.2115 11.8506H45.5947L45.0009 13.4528H44.4902L46.6715 7.73511H47.1347L49.316 13.4528H48.8093L48.2115 11.8506ZM45.7452 11.4382H48.0571L46.9012 8.32417L45.7452 11.4382Z" fill="#989898"/>
<path d="M55.4989 11.6701C55.433 12.2723 55.2151 12.733 54.8457 13.0524C54.4788 13.3718 53.9892 13.5315 53.377 13.5315C52.9494 13.5315 52.5707 13.4255 52.2407 13.2134C51.9135 13.0014 51.6601 12.7016 51.4807 12.3141C51.3011 11.9241 51.2102 11.479 51.2075 10.979V10.2368C51.2075 9.72888 51.2973 9.27858 51.4767 8.88589C51.6561 8.49318 51.9135 8.19082 52.2487 7.97876C52.5864 7.76408 52.9744 7.65674 53.4125 7.65674C54.0302 7.65674 54.5171 7.82298 54.8734 8.15547C55.2324 8.48533 55.4408 8.94217 55.4989 9.52598H55.008C54.8865 8.55471 54.3548 8.06908 53.4125 8.06908C52.89 8.06908 52.4731 8.2628 52.1616 8.65027C51.8527 9.03773 51.6984 9.57311 51.6984 10.2564V10.9554C51.6984 11.6151 51.8488 12.1414 52.1496 12.534C52.4532 12.9268 52.8622 13.1231 53.377 13.1231C53.8863 13.1231 54.2703 13.0027 54.529 12.7618C54.7876 12.5183 54.9473 12.1544 55.008 11.6701H55.4989Z" fill="#989898"/>
<path d="M62.0611 11.6701C61.9951 12.2723 61.7774 12.733 61.4079 13.0524C61.041 13.3718 60.5515 13.5315 59.9391 13.5315C59.5116 13.5315 59.1329 13.4255 58.803 13.2134C58.4757 13.0014 58.2223 12.7016 58.0429 12.3141C57.8634 11.9241 57.7723 11.479 57.7698 10.979V10.2368C57.7698 9.72888 57.8594 9.27858 58.039 8.88589C58.2184 8.49318 58.4757 8.19082 58.811 7.97876C59.1487 7.76408 59.5367 7.65674 59.9748 7.65674C60.5925 7.65674 61.0794 7.82298 61.4357 8.15547C61.7946 8.48533 62.0031 8.94217 62.0611 9.52598H61.5703C61.4488 8.55471 60.9171 8.06908 59.9748 8.06908C59.4522 8.06908 59.0352 8.2628 58.7238 8.65027C58.415 9.03773 58.2607 9.57311 58.2607 10.2564V10.9554C58.2607 11.6151 58.411 12.1414 58.7119 12.534C59.0154 12.9268 59.4245 13.1231 59.9391 13.1231C60.4486 13.1231 60.8326 13.0027 61.0912 12.7618C61.3499 12.5183 61.5095 12.1544 61.5703 11.6701H62.0611Z" fill="#989898"/>
<path d="M68.8024 10.9044C68.8024 11.4306 68.7101 11.8926 68.5253 12.2906C68.3432 12.6885 68.0818 12.9948 67.7415 13.2095C67.4009 13.4242 67.0078 13.5315 66.5617 13.5315C65.8888 13.5315 65.345 13.2933 64.9307 12.8168C64.5163 12.3377 64.3091 11.6924 64.3091 10.8808V10.2917C64.3091 9.77076 64.4015 9.31 64.5862 8.90944C64.7736 8.50628 65.0376 8.19735 65.378 7.98268C65.7185 7.76538 66.1103 7.65674 66.5537 7.65674C66.9972 7.65674 67.3878 7.76277 67.7255 7.97482C68.0661 8.18688 68.3286 8.48665 68.5135 8.8741C68.6982 9.26157 68.7944 9.71055 68.8024 10.2211V10.9044ZM68.3155 10.2839C68.3155 9.59536 68.1585 9.05605 67.8443 8.66598C67.5304 8.27589 67.1001 8.08085 66.5537 8.08085C66.018 8.08085 65.5904 8.27721 65.2711 8.6699C64.9545 9.05999 64.796 9.60583 64.796 10.3075V10.9044C64.796 11.5824 64.9545 12.1204 65.2711 12.5183C65.5879 12.9136 66.018 13.1113 66.5617 13.1113C67.1133 13.1113 67.5435 12.9163 67.8523 12.5262C68.1611 12.1335 68.3155 11.5877 68.3155 10.8886V10.2839Z" fill="#989898"/>
<path d="M71.3066 7.73511H71.7975V13.0444H75.0597V7.73511H75.5466V13.0365H76.1128L76.0771 14.8311H75.6257V13.4528H71.3066V7.73511Z" fill="#989898"/>
<path d="M82.1997 7.73511H82.6866V13.4528H82.1997V8.55978L78.9178 13.4528H78.4268V7.73511H78.9178V12.6242L82.1997 7.73511Z" fill="#989898"/>
<path d="M88.6483 11.8506H86.0314L85.4376 13.4528H84.927L87.1083 7.73511H87.5715L89.7527 13.4528H89.2461L88.6483 11.8506ZM86.1819 11.4382H88.4938L87.338 8.32417L86.1819 11.4382Z" fill="#989898"/>
<path d="M91.8811 7.73511H92.372V13.0444H95.6341V7.73511H96.121V13.0365H96.6872L96.6516 14.8311H96.2002V13.4528H91.8811V7.73511Z" fill="#989898"/>
<path d="M102.774 7.73511H103.261V13.4528H102.774V8.55978L99.4925 13.4528H99.0015V7.73511H99.4925V12.6242L102.774 7.73511Z" fill="#989898"/>
<path d="M109.119 13.4528V11.1241H107.461L106.202 13.4528H105.675L107.033 10.9906C106.661 10.8623 106.377 10.6686 106.182 10.4094C105.987 10.1502 105.889 9.83343 105.889 9.45906C105.889 8.91975 106.061 8.49826 106.404 8.19457C106.75 7.88827 107.235 7.73511 107.861 7.73511H109.611V13.4528H109.119ZM106.376 9.45513C106.376 9.83213 106.495 10.1358 106.732 10.3662C106.973 10.5966 107.302 10.7118 107.722 10.7118H109.119V8.14745H107.845C107.375 8.14745 107.012 8.26133 106.756 8.48909C106.503 8.71424 106.376 9.03625 106.376 9.45513Z" fill="#989898"/>
<path d="M115.878 11.6701C115.944 12.1701 116.108 12.538 116.369 12.7736C116.63 13.0066 117.01 13.1231 117.509 13.1231C118.029 13.1231 118.439 12.9241 118.74 12.5262C119.041 12.1283 119.192 11.5955 119.192 10.9279V10.7865H116.785V10.3742H119.192V10.2328C119.192 9.57049 119.037 9.04428 118.728 8.65419C118.42 8.26412 118.003 8.06908 117.477 8.06908C116.533 8.06908 115.999 8.55471 115.878 9.52598H115.391C115.449 8.93432 115.659 8.47486 116.021 8.14762C116.382 7.82037 116.868 7.65674 117.477 7.65674C118.14 7.65674 118.672 7.89237 119.073 8.3636C119.477 8.83222 119.679 9.4684 119.679 10.2721V10.9554C119.679 11.4633 119.588 11.9149 119.405 12.3102C119.226 12.7029 118.971 13.0053 118.641 13.2173C118.314 13.4268 117.937 13.5315 117.509 13.5315C116.891 13.5315 116.399 13.3705 116.033 13.0485C115.666 12.7265 115.452 12.267 115.391 11.6701H115.878Z" fill="#989898"/>
<path d="M123.51 10.7707H122.718V13.4528H122.231V7.73511H122.718V10.3583H123.486L125.715 7.73511H126.328L123.961 10.5468L126.503 13.4528H125.897L123.51 10.7707Z" fill="#989898"/>
<path d="M132.642 11.6701C132.576 12.2723 132.358 12.733 131.989 13.0524C131.622 13.3718 131.132 13.5315 130.52 13.5315C130.092 13.5315 129.713 13.4255 129.384 13.2134C129.056 13.0014 128.803 12.7016 128.623 12.3141C128.444 11.9241 128.353 11.479 128.35 10.979V10.2368C128.35 9.72888 128.44 9.27858 128.62 8.88589C128.799 8.49318 129.056 8.19082 129.392 7.97876C129.729 7.76408 130.117 7.65674 130.555 7.65674C131.173 7.65674 131.66 7.82298 132.016 8.15547C132.375 8.48533 132.584 8.94217 132.642 9.52598H132.151C132.029 8.55471 131.498 8.06908 130.555 8.06908C130.033 8.06908 129.616 8.2628 129.304 8.65027C128.996 9.03773 128.841 9.57311 128.841 10.2564V10.9554C128.841 11.6151 128.992 12.1414 129.292 12.534C129.596 12.9268 130.005 13.1231 130.52 13.1231C131.029 13.1231 131.413 13.0027 131.672 12.7618C131.93 12.5183 132.09 12.1544 132.151 11.6701H132.642Z" fill="#989898"/>
<path d="M139.379 13.4528H138.892V8.14745H135.63V13.4528H135.143V7.73511H139.379V13.4528Z" fill="#989898"/>
<path d="M145.343 10.7118H142.647V13.0444H145.747V13.4528H142.16V7.73511H145.727V8.14745H142.647V10.3034H145.343V10.7118Z" fill="#989898"/>
<path d="M148.56 11.1241V13.4528H148.074V7.73511H150.038C150.636 7.73511 151.108 7.88695 151.454 8.19065C151.802 8.49433 151.977 8.91189 151.977 9.44335C151.977 9.98003 151.809 10.395 151.473 10.6882C151.142 10.9788 150.658 11.1241 150.026 11.1241H148.56ZM148.56 10.7157H150.038C150.509 10.7157 150.869 10.6044 151.118 10.3819C151.366 10.1594 151.49 9.84913 151.49 9.45121C151.49 9.05588 151.366 8.74173 151.118 8.50873C150.872 8.2731 150.523 8.15269 150.068 8.14745H148.56V10.7157Z" fill="#989898"/>
<path d="M158.279 8.14745H156.303V13.4528H155.817V8.14745H153.844V7.73511H158.279V8.14745Z" fill="#989898"/>
<path d="M164.658 10.9044C164.658 11.4306 164.567 11.8926 164.381 12.2906C164.2 12.6885 163.939 12.9948 163.599 13.2095C163.258 13.4242 162.864 13.5315 162.418 13.5315C161.746 13.5315 161.202 13.2933 160.787 12.8168C160.373 12.3377 160.165 11.6924 160.165 10.8808V10.2917C160.165 9.77076 160.258 9.31 160.442 8.90944C160.63 8.50628 160.894 8.19735 161.234 7.98268C161.575 7.76538 161.967 7.65674 162.41 7.65674C162.854 7.65674 163.245 7.76277 163.582 7.97482C163.923 8.18688 164.185 8.48665 164.37 8.8741C164.555 9.26157 164.651 9.71055 164.658 10.2211V10.9044ZM164.172 10.2839C164.172 9.59536 164.014 9.05605 163.7 8.66598C163.386 8.27589 162.957 8.08085 162.41 8.08085C161.874 8.08085 161.446 8.27721 161.128 8.6699C160.811 9.05999 160.653 9.60583 160.653 10.3075V10.9044C160.653 11.5824 160.811 12.1204 161.128 12.5183C161.445 12.9136 161.874 13.1113 162.418 13.1113C162.969 13.1113 163.4 12.9163 163.709 12.5262C164.017 12.1335 164.172 11.5877 164.172 10.8886V10.2839Z" fill="#989898"/>
<path d="M167.183 13.4528V7.73511H168.886C169.503 7.73511 169.971 7.86209 170.291 8.11603C170.61 8.36736 170.77 8.73911 170.77 9.2313C170.77 9.52713 170.687 9.785 170.524 10.0049C170.363 10.2222 170.142 10.378 169.859 10.4722C170.195 10.5455 170.463 10.7091 170.667 10.9631C170.873 11.217 170.976 11.5103 170.976 11.8427C170.976 12.348 170.811 12.7433 170.481 13.0287C170.154 13.3114 169.697 13.4528 169.111 13.4528H167.183ZM167.67 10.7039V13.0444H169.13C169.548 13.0444 169.878 12.9397 170.12 12.7302C170.366 12.5182 170.488 12.225 170.488 11.8506C170.488 11.4972 170.372 11.2183 170.136 11.0141C169.904 10.8073 169.582 10.7039 169.17 10.7039H167.67ZM167.67 10.2994H168.999C169.406 10.2916 169.72 10.1973 169.943 10.0167C170.167 9.83343 170.279 9.5677 170.279 9.21951C170.279 8.85299 170.162 8.58334 169.931 8.41056C169.701 8.23514 169.353 8.14745 168.886 8.14745H167.67V10.2994Z" fill="#989898"/>
<path d="M49.3712 23.1037H48.8803V20.3627H45.5867V23.1037H45.0996V17.386H45.5867V19.9543H48.8803V17.386H49.3712V23.1037Z" fill="#989898"/>
<path d="M55.3209 20.3627H52.6248V22.6953H55.7247V23.1037H52.1379V17.386H55.7049V17.7983H52.6248V19.9543H55.3209V20.3627Z" fill="#989898"/>
<path d="M62.3141 22.6953H62.9276L62.9236 24.49H62.4367V23.1037H58.0899V24.49H57.603V22.6953H57.987C58.28 22.3916 58.5161 21.9491 58.6957 21.368C58.8777 20.7841 58.9872 20.1454 59.0242 19.4516L59.1271 17.386H62.3141V22.6953ZM58.5531 22.6953H61.827V17.7983H59.5943L59.5151 19.4359C59.4808 20.1166 59.3792 20.7436 59.2103 21.317C59.044 21.8903 58.8249 22.3498 58.5531 22.6953Z" fill="#989898"/>
<path d="M65.2156 23.1037V17.386H66.9179C67.5354 17.386 68.0039 17.5131 68.3234 17.7669C68.6427 18.0183 68.8023 18.39 68.8023 18.8822C68.8023 19.178 68.7205 19.4359 68.5569 19.6559C68.3959 19.8731 68.1742 20.0289 67.8917 20.1232C68.2269 20.1965 68.4961 20.3601 68.6994 20.6141C68.9052 20.8679 69.0082 21.1611 69.0082 21.4936C69.0082 21.999 68.8433 22.3942 68.5134 22.6797C68.1861 22.9623 67.7294 23.1037 67.1436 23.1037H65.2156ZM65.7025 20.3548V22.6953H67.1634C67.5804 22.6953 67.9103 22.5906 68.1531 22.3812C68.3985 22.169 68.5212 21.8759 68.5212 21.5015C68.5212 21.1481 68.4038 20.8692 68.1689 20.6651C67.9367 20.4582 67.6147 20.3548 67.203 20.3548H65.7025ZM65.7025 19.9504H67.0327C67.4392 19.9425 67.7532 19.8483 67.9749 19.6676C68.1992 19.4843 68.3114 19.2186 68.3114 18.8705C68.3114 18.5039 68.1953 18.2342 67.9631 18.0616C67.7334 17.8861 67.3851 17.7983 66.9179 17.7983H65.7025V19.9504Z" fill="#989898"/>
<path d="M75.2735 17.386H75.7604V23.1037H75.2735V18.2107L71.9916 23.1037H71.5007V17.386H71.9916V22.2751L75.2735 17.386Z" fill="#989898"/>
<path d="M82.3502 20.3823H81.701V23.1037H81.214V20.3823H80.5449L78.5893 23.1037H77.9717L80.1055 20.1507L78.1142 17.386H78.704L80.5172 19.97H81.214V17.386H81.701V19.97H82.3819L84.1951 17.386H84.781L82.7896 20.1467L84.9274 23.1037H84.3139L82.3502 20.3823Z" fill="#989898"/>
<path d="M90.8292 17.386H91.3161V23.1037H90.8292V18.2107L87.5473 23.1037H87.0564V17.386H87.5473V22.2751L90.8292 17.386Z" fill="#989898"/>
<path d="M94.7391 17.386L96.865 22.4323L98.9988 17.386H99.648V23.1037H99.1611V20.6141L99.2008 18.0616L97.055 23.1037H96.679L94.5412 18.0811L94.5807 20.5983V23.1037H94.0938V17.386H94.7391Z" fill="#989898"/>
<path d="M106.666 20.5551C106.666 21.0812 106.574 21.5433 106.389 21.9413C106.207 22.3392 105.946 22.6455 105.605 22.8602C105.265 23.0748 104.871 23.1822 104.425 23.1822C103.752 23.1822 103.209 22.944 102.794 22.4674C102.38 21.9884 102.173 21.3431 102.173 20.5315V19.9424C102.173 19.4215 102.265 18.9606 102.45 18.5601C102.637 18.1569 102.901 17.848 103.242 17.6333C103.582 17.416 103.974 17.3074 104.418 17.3074C104.861 17.3074 105.251 17.4134 105.589 17.6256C105.93 17.8376 106.192 18.1374 106.377 18.5249C106.562 18.9122 106.658 19.3613 106.666 19.8717V20.5551ZM106.179 19.9346C106.179 19.246 106.022 18.7068 105.708 18.3166C105.394 17.9266 104.964 17.7316 104.418 17.7316C103.882 17.7316 103.454 17.9278 103.135 18.3206C102.818 18.7107 102.66 19.2566 102.66 19.9582V20.5551C102.66 21.2331 102.818 21.7711 103.135 22.169C103.452 22.5644 103.882 22.7621 104.425 22.7621C104.977 22.7621 105.407 22.567 105.716 22.1769C106.025 21.7842 106.179 21.2384 106.179 20.5393V19.9346Z" fill="#989898"/>
<path d="M113.272 21.3209C113.206 21.9229 112.989 22.3836 112.619 22.7031C112.252 23.0225 111.763 23.1822 111.15 23.1822C110.723 23.1822 110.344 23.0762 110.014 22.8641C109.687 22.6521 109.434 22.3523 109.254 21.9648C109.075 21.5747 108.984 21.1297 108.981 20.6296V19.8874C108.981 19.3795 109.071 18.9293 109.25 18.5366C109.43 18.1439 109.687 17.8415 110.022 17.6294C110.36 17.4147 110.748 17.3074 111.186 17.3074C111.804 17.3074 112.291 17.4736 112.647 17.8062C113.006 18.136 113.214 18.5929 113.272 19.1767H112.782C112.66 18.2054 112.128 17.7197 111.186 17.7197C110.664 17.7197 110.247 17.9135 109.935 18.301C109.626 18.6885 109.472 19.2238 109.472 19.9071V20.6061C109.472 21.2659 109.622 21.792 109.923 22.1848C110.227 22.5774 110.636 22.7738 111.15 22.7738C111.66 22.7738 112.044 22.6534 112.302 22.4124C112.561 22.169 112.721 21.8052 112.782 21.3209H113.272Z" fill="#989898"/>
<path d="M119.546 17.7983H117.57V23.1037H117.083V17.7983H115.112V17.386H119.546V17.7983Z" fill="#989898"/>
<path d="M125.566 17.386H126.053V23.1037H125.566V18.2107L122.284 23.1037H121.793V17.386H122.284V22.2751L125.566 17.386Z" fill="#989898"/>
</g>
<defs>
<clipPath id="clip0_70_994">
<rect width="171" height="31" fill="white"/>
</clipPath>
</defs>
</svg>
