<svg width="155" height="40" fill="none" xmlns="http://www.w3.org/2000/svg"><mask id="mask0_1_555" style="mask-type:alpha" maskUnits="userSpaceOnUse" x="0" y="0" width="155" height="40"><path fill="#C4C4C4" d="M0 0h155v40H0z"/></mask><g mask="url(#mask0_1_555)"><path fill-rule="evenodd" clip-rule="evenodd" d="M21.513 20.627c-.078-.896.24-2.165 1.67-2.922.044.78.117 1.748.327 2.487-.753-.052-1.33.288-1.997.435zm6.228-8.517c.35-.7-.235-.826-.787-.561-.29-.433-1.059-.886-1.46-.49-.358.36.175.82.449 1.058-2.06 1.271-6.041 3.754-4.805 4.067.625.183 1.446-.623 1.925-.95.027.38.108.749.13 1.135-1.518.468-3.279 2.924-2.85 4.53a4.977 4.977 0 00-.554.163c-.543.215.446 1.007.71 1.031.387.094 1.36-.35 1.834-.468 2.204-.565 4.868-.46 6.891-1.426.646-.392-.215-1.034-1.06-.719-1.135.101-2.269.235-3.388.454.54-.792-.68-3.055-.307-5.489a33.592 33.592 0 012.322-1.564c.782.39 3.193 2.22 4.06 2.547.225 0 .56-.62.327-.803-1.139-.883-2.27-1.686-3.437-2.515zm61.3 16.582l.321-.358.38-.423.616-.654a20.176 20.176 0 01.571-.565v-.067c-.18.036-.325.05-.439.05-.163 0-.314-.014-.449-.05l-.896 1.124-.706.867-.511.607v-2.598c-.207.036-.413.05-.612.05-.218 0-.423-.015-.615-.05v2.598l-.486-.567-.42-.51-1.207-1.52a1.934 1.934 0 01-.45.049c-.106 0-.251-.015-.436-.05v.067l.58.578c.161.163.289.297.387.402.075.086.152.17.23.255.466.508.784.864.949 1.065l-2.316 3.204v.113l.359-.017.348-.016.358.016.346.017 1.758-2.63v2.63a5.35 5.35 0 01.615-.033l.306.021.306.012v-2.63l1.756 2.63.353-.017.352-.016.353.017.352.016v-.113l-2.31-3.204.258-.3zM27.187 16.13c.4-.127.819-.488.487-.943-1.755-1.016-3.623 1.755-1.437 2.8.592.182 2.804-.644 1.776-1.115-.57-.26-1.013.348-1.395.114-.616-.552-.053-.842.57-.856zm3.215 1.423c.044.526.288 2.809 1.003 4.246.446-1.542.377-3.084.13-4.26-.173-.653-1.284-.715-1.133.014zm-.362 10.158s.01-.01.023-.01c.057-.015.104 0 .152-.025.057-.023.104 0 .16-.023.07-.024.106 0 .151-.084.047-.069-.114-.242-.173-.277a.931.931 0 00-.314-.067c-.092-.011-.138.012-.242.081-.093.072-.164.08-.22.184-.071.094-.011.116-.011.116l.045.036c.047.06.174.069.255.058.07 0 .116.011.174.011zm6.54 1.414c-.023.058-.105.116-.137.15a.434.434 0 01-.162.08.175.175 0 00-.106.06.624.624 0 01-.127.08c-.047.011-.07 0-.127.025-.06.023-.06 0-.127.023-.081.021-.186.01-.186.01s-.151-.01-.21-.01c-.043-.012-.068-.036-.114-.047-.046 0-.174-.056-.209-.139-.037-.08-.083-.207-.093-.23-.024-.022-.034-.152-.024-.185.022-.047-.01-.06-.022-.06-.026-.009-.047-.09-.036-.114 0-.025.046-.14.046-.268-.012-.114.024-.105.01-.208-.01-.094-.022-.175-.022-.3.012-.116.045-.163.035-.266 0-.106.021-.277.009-.359-.01-.083-.034-.152-.08-.188a.21.21 0 00-.152-.056c-.046 0-.114-.046-.174-.046-.068 0-.068 0-.091-.012a.229.229 0 01-.048-.095s-.023-.092-.023-.136c.013-.046.012-.125.035-.163.01-.033.07-.081.115-.093.035-.023.153-.01.185-.01a.345.345 0 00.129-.048c.023-.021.057-.021.07-.035.023-.024.055-.14.044-.173-.012-.035-.022-.174-.033-.21-.013-.036-.002-.136-.013-.196-.011-.058.024-.058.024-.092a.78.78 0 01.056-.175.26.26 0 01.083-.128c.024-.01.104-.013.138-.023.022-.014.022-.014.067 0 .026 0 .083.034.094.047.026.013.07.103.093.125.024.025.082.176.093.197.012.014.048.107.07.129.023.01.058.048.082.058.035.01.057.057.105.081.046.023.058.092.092.103.047.024.184.069.184.069s.2.082.257.082c.069 0 .161-.014.196-.001.045.012.095.058.105.091.01.046.01.07.01.095-.01.021-.126.15-.15.184-.021.048-.149.153-.172.199-.024.035-.127.09-.15.115-.024.036-.14.07-.199.07-.056.014-.125.033-.15.06-.023.023-.06.081-.046.102.024.023.024.048.047.102.012.051.012.19.012.224 0 .024 0 .14-.011.209a1.597 1.597 0 00-.022.183s.008.14 0 .2c0 .047.008.15.023.195 0 .047.047.175.047.233a.858.858 0 00.058.173c.023.036.012.036.046.046.022.022.174.069.174.069s.255.012.255.034c0 .011.093 0 .115-.022a.13.13 0 01.058-.025c.024 0 .081.035.07.057-.012.026-.093.095-.117.153zm-2.711-.586c-.036.078-.036.265-.047.3 0 .036-.034.045-.045.117 0 .082-.01.183-.082.241-.082.048-.046.012-.127.012-.081-.012-.22-.103-.278-.127-.047-.022-.093-.113-.129-.185-.034-.08-.034-.286-.069-.38-.035-.093-.06-.42-.071-.511 0-.093.06-.256.047-.302-.012-.054-.08-.186-.151-.17-.07 0-.186-.025-.221 0-.033.02-.058 0-.094.032a.183.183 0 00-.032.115 1.58 1.58 0 01-.058.222c-.012.058-.045.058-.045.115 0 .047-.037.128-.037.176a.918.918 0 01-.045.125s-.022.095-.013.166c0 .055-.056.112-.056.17a.998.998 0 01-.058.186.731.731 0 01-.161.189c-.024.033-.07.1-.092.124-.049.037-.058.047-.093.082-.047.035-.083.026-.129.026-.034 0-.07 0-.101-.011h-.118c-.034-.015-.118-.109-.153-.118-.033 0-.068-.038-.08-.058-.023-.023-.058-.15-.07-.162 0-.024.034-.173.024-.184 0-.027.01-.104.01-.152.013-.036.069-.116.069-.173.014-.059.058-.138.058-.175.013-.035.022-.139.035-.175 0-.045.024-.068.034-.115.024-.035.127-.13.139-.163 0-.034.06-.125.07-.172.012-.037.012-.068-.01-.083-.026 0-.048-.035-.093-.024-.048.013-.129.013-.165.013-.023.002-.114-.035-.149-.023-.035 0-.046-.012-.118-.035-.07-.022-.09-.022-.137-.058-.038-.032-.083-.104-.083-.104l-.01-.058s.07-.185.114-.242c.046-.05.243-.233.325-.254.092-.025.185.102.222.113.044.013.172.058.22.082.044.032.16.082.208.069.046-.01.36-.127.44-.139.067-.013.404-.048.489-.014.066.024.38.044.471.105.082.069.245.184.258.278 0 .08.114.116.138.16.023.046.06.21.036.268-.011.058-.011.161.023.195.048.05.07.14.059.198-.011.068-.058.093-.058.175.011.092.023.22-.011.313zm-3.44.388c-.048.023-.337.114-.408.185-.069.07-.162.07-.23.093-.047.012-.21 0-.29 0-.022.012-.046.012-.058.012-.057.01-.162-.056-.23-.056-.073 0-.187-.015-.304-.024a.49.49 0 01-.29-.115c-.058-.057-.068-.16-.128-.255-.034-.082-.069-.15-.102-.242-.025-.092-.05-.361-.083-.396-.034-.047-.025-.288-.025-.403-.011-.118.047-.235.047-.235s.116-.104.15-.184a2.17 2.17 0 01.324-.394c.082-.06.324-.175.383-.21.035-.012.184.012.31.024.083.011.163.02.198.02.07 0 .268.038.338.069.08.035.208.162.255.244.035.081.091.209.104.291.012.09.059.173.059.289a.25.25 0 01-.117.22c-.022.035-.126.07-.171.092-.048.026-.118-.045-.176-.012a.685.685 0 01-.207.084.296.296 0 01-.2 0 .19.19 0 00-.079-.023c-.046 0-.093.023-.104.046-.022.057-.092.16-.081.221.011.058.046.207.104.231.023.01.046.023.081.023.07.01.152.023.197.01.048-.023.152-.01.196-.044.05-.048.164-.07.222-.082.059 0 .218.082.289.082.068 0 .151.127.139.206-.008.08-.07.208-.114.233zm-2.863.2c-.036.08-.127.13-.163.15-.036.038-.067.061-.104.038-.035-.025-.059-.047-.104-.058-.056-.014-.22-.117-.278-.152-.048-.026-.07-.105-.153-.118-.069-.018-.126-.056-.184-.068-.057 0-.29-.125-.36-.16-.069-.02-.232-.198-.266-.219-.045-.035-.093-.115-.117-.14-.023-.035-.102-.124-.115-.172l-.048-.07s-.047-.14-.057-.22a.753.753 0 01.021-.256c.014-.033.082-.186.07-.233 0-.035.012-.114.035-.16.024-.035.185-.22.22-.243.034-.013.208-.153.291-.175.09-.023.16-.058.22-.07.058-.01.36-.094.38-.104.024-.016.071.023.095.01.01 0 .068-.01.113 0a.516.516 0 00.175.013c.023-.013.199.092.22.092.023 0 .059.043.059.078v.13c-.012.023-.116.07-.13.092-.009.022-.137.14-.172.175-.045.022-.16-.024-.219 0-.058.01-.244.151-.266.186-.023.044-.102.093-.129.139-.023.047-.023.103-.023.103s.071.198.105.221c.047.012.035.045.07.08a.922.922 0 00.175.128c.035.023.174.13.209.16l.219.152s.163.15.174.245c.024.09 0 .054.017.078 0 .024.111.139.102.198-.013.06-.062.081-.082.15zM16.224 17.232c0-4.002 4.142-7.27 9.22-7.27 5.076 0 9.216 3.268 9.216 7.27 0 4.004-4.14 7.269-9.216 7.269-5.078 0-9.22-3.265-9.22-7.268zm8.676 11.98c-.023.014-.092 0-.116.014-.035.01-.128-.012-.185-.023h-.095c-.033.01-.08-.012-.103-.022-.021-.013-.058-.038-.104-.06-.049-.014-.105-.069-.13-.091-.02-.037-.079-.117-.079-.16 0-.05.011-.178.011-.234a.744.744 0 00-.082-.268.603.603 0 01-.069-.162c-.025-.055-.012-.14-.012-.174 0-.046.036-.254.012-.287-.013-.036-.038-.13-.071-.14-.047-.012-.07-.057-.102-.05-.027 0-.072.013-.072.038 0 .023-.045.102-.034.154 0 .042-.045.1-.045.147-.012.046.023.21 0 .268-.023.068 0 .183-.012.253-.011.06.012.14.012.14s0 .208-.023.279a.66.66 0 01-.199.207.896.896 0 01-.254.104c-.045-.01-.124 0-.16-.034-.047-.035-.07-.149-.116-.174-.047-.022-.093-.172-.093-.208 0-.045.137-.266.15-.335.01-.07-.025-.21-.025-.232 0-.025.046-.163.025-.21-.025-.057-.058-.126-.073-.163 0-.032 0-.123-.023-.15-.022-.023-.057-.09-.116-.09-.046 0-.126.009-.172.009-.048 0-.14-.021-.175-.021-.045 0-.115-.059-.149-.091-.036-.036-.059-.105-.083-.141-.022-.022-.002-.091-.002-.091s.05-.13.107-.187c.056-.057.137-.138.16-.151.035-.012.128-.059.187-.059.047 0 .208-.012.265.012.059.033.092.104.21.127.116.034.267.07.29.058.022 0 .302.023.324.023a.98.98 0 01.15-.048c.059 0 .185-.035.22-.035.036 0 .163.034.197.072.037.022.117.125.14.138a.455.455 0 01.14.114c.01.022.035.23.045.27.014.044.047.16.061.194.011.024.011.197.034.256.012.043.013.16.035.183.022.026.023.081.046.105.024.022.058.08.094.128.036.047.057.277.093.312.022.024.057.314.057.358a.314.314 0 01-.091.129zm-3.598-2.877a.447.447 0 01-.092.197.197.197 0 01-.105.046.99.99 0 01-.183.033c-.025.014-.083.037-.129.026-.036-.012-.08-.012-.116-.06-.024-.043-.024-.15-.047-.162a2.015 2.015 0 01-.106-.162c-.01 0 .049-.103.072-.174.023-.068.172-.151.195-.161a.362.362 0 01.14-.047c.024-.01.127.034.127.034s.128.046.152.07c.024.022.058.034.07.09.01.06-.036.096-.012.118.012.034.044.115.034.152zm.353 2.036a.692.692 0 00-.035.186c0 .036-.025.21-.025.21s-.022.173-.02.23c0 .048-.01.081-.071.13-.058.034-.082.01-.127.034-.046.035-.024.025-.092.025-.083 0-.128.045-.175.045-.057.022-.126 0-.197-.024-.057-.02-.257-.092-.268-.114 0-.024-.08-.106-.08-.106s-.057-.07-.046-.103c.023-.035.115-.08.115-.165.01-.078.047-.217.069-.285.012-.072.127-.245.103-.279 0-.048.058-.038.036-.244-.022-.21.013-.372.013-.407 0-.047.042-.172.042-.172s.152-.173.197-.198c.059-.022.186-.022.22-.022.035-.012.14.056.153.089a.357.357 0 01.046.177c0 .056.024.206.035.253 0 .058.046.29.059.325.011.023.011.208.032.256a.352.352 0 01.016.16zm-1.927-.553c0 .047-.091.246-.091.246l-.151.228s-.15.213-.198.27a.884.884 0 00-.112.266c-.015.048-.047.07-.071.153a.737.737 0 01-.173.23c-.046.034-.07 0-.14.034-.07.047-.01-.033-.092.013-.08.046-.208.046-.278.094-.07.045-.381.231-.381.231s-.082-.022-.128.024c-.049.035-.256.024-.325.072-.069.035-.254.045-.335.067-.082.024-.278.012-.359.024-.084.013-.257-.055-.29-.055-.047 0-.234-.162-.234-.162s-.23-.314-.269-.408a1.077 1.077 0 00-.16-.323 2.67 2.67 0 01-.105-.302c0-.045-.011-.394-.037-.485a2.325 2.325 0 01-.116-.545c-.023-.15-.023-.244-.046-.3-.023-.037-.023-.14-.069-.163-.035-.026-.163-.138-.211-.138-.045 0-.173-.093-.217-.093-.047 0-.163-.013-.188.014-.022.009-.103.021-.149.03-.036.014-.14 0-.196.002a.506.506 0 01-.247-.068c-.103-.058-.172-.199-.172-.199s.022-.171.08-.264c.058-.083.14-.083.162-.13.035-.046.185-.207.267-.254.092-.035.336-.047.358-.058.024 0 .29.034.325.022.036-.01.243.06.314.046.07-.011.091-.022.15-.011.046 0 .279.115.338.15.055.037.126.207.16.243.035.035.198.137.301.17.118.05.152.19.188.248.034.057.044.332.068.393a.561.561 0 01.057.184c0 .037-.045.29-.032.362.011.055.024.365.059.437.034.072-.011.185.023.221.035.034.105.058.128.044.035-.01.047-.022.105.014.058.045.116.15.162.172.056.026.187-.022.22-.022.034.011.104-.057.162-.05.046.016.187-.02.208-.055.036-.035.128-.164.175-.175.044-.022.149-.081.219-.14.07-.058.175-.245.198-.265.021-.026.021-.049 0-.093-.023-.06-.013-.278-.013-.303 0-.036-.037-.126-.059-.136a1.901 1.901 0 01-.302-.302c-.069-.093-.3-.37-.336-.476-.048-.103-.232-.323-.232-.38a.292.292 0 01.022-.164c.035-.055.082-.104.128-.116.044-.023.069.012.104-.023a.784.784 0 01.174-.103c.035-.034.15-.002.197-.025.034-.01.103-.023.15 0 .047.012.106.068.14.092.034.011.185.116.185.116s.127.185.187.208c.058.012.279.255.3.276.022.048.105.256.116.316.024.046.198.289.222.392.022.093.151.392.174.476a.35.35 0 01-.012.206zM35.397 7.424H15.491A2.498 2.498 0 0013 9.913v19.906c0 1.37 1.12 2.49 2.491 2.49h19.906a2.495 2.495 0 002.488-2.49V9.913c0-1.367-1.12-2.49-2.488-2.49zm77.809 14.951l.112-1.007c-1.592.214-3.404.319-5.434.319v-5.924h2.459c.97 0 1.931.067 2.888.195-.079-.482-.119-.82-.119-1.018 0-.129.016-.29.043-.478.023-.187.051-.355.076-.507-1.209.145-2.169.219-2.888.219h-2.459V9.116c1.045 0 2.003.029 2.874.078.867.055 1.723.134 2.56.242-.074-.526-.112-.863-.112-1.007l.112-1.005h-8.945v15.959h8.945l-.112-1.008zm-63.469-1.78c-.277.465-.63.815-1.052 1.056a2.57 2.57 0 01-1.295.368h-1.179v-6.37h.604c2.223 0 3.333 1.102 3.333 3.305 0 .633-.137 1.179-.41 1.641zM46.211 8.761a3.41 3.41 0 01.562-.07h.643c.784 0 1.395.222 1.838.668.44.45.663 1.088.663 1.93 0 1.062-.336 1.875-1.008 2.438-.456.388-1.145.583-2.057.583h-.64V8.76zm6.78 12.567c.53-.691.795-1.538.795-2.546 0-1.297-.42-2.238-1.265-2.824-.844-.59-1.828-.938-2.956-1.042v-.207a5.518 5.518 0 001.908-.62 3.867 3.867 0 001.415-1.285c.348-.527.519-1.145.519-1.847 0-1.266-.445-2.172-1.33-2.72-.89-.541-2.002-.813-3.337-.813H42.7v15.959h5.414c.953 0 1.87-.17 2.756-.509.882-.339 1.593-.855 2.12-1.546zm30.54-5.68v7.822l.88-.04.859-.047.902.042.869.045V7.424l-.663.069-.594.042-.514.023-.492-.011-.57-.054-.676-.07v6.35l-1.785.03-1.797.082-1.74-.068c-.193 0-.494-.01-.906-.022-.41-.015-.724-.023-.938-.023V7.424l-.674.069-.594.054-.492.01-.493-.01-.58-.054-.69-.07V23.47l.883-.04.51-.047h.37l.87.042.89.045v-7.822l2.074-.048 1.51-.044 1.797.092h1.785zm59.077-6.945l-.013-.297.013-.273.055-.332.068-.377h-12.065c.074.51.113.838.113.982l-.113 1.007a35.77 35.77 0 012.335-.25 26.957 26.957 0 012.022-.081V23.47l.88-.04.883-.047.871.042.879.045V9.082c.888 0 2.293.108 4.195.331l-.068-.367-.055-.343zm-40.137 12.07l-.309-.136a6.39 6.39 0 01-1.971 1.276c-.766.324-1.504.484-2.214.484-1.175 0-2.183-.285-3.023-.858-.84-.571-1.476-1.38-1.91-2.417-.433-1.043-.651-2.223-.651-3.542a10.413 10.413 0 01.081-1.329c.05-.409.134-.838.24-1.279a8.212 8.212 0 01.97-2.302 4.998 4.998 0 011.727-1.662c.695-.405 1.51-.602 2.448-.602.352 0 .707.052 1.068.15.357.096.721.248 1.096.443a5.225 5.225 0 011.726 1.558h.322a2.38 2.38 0 00.08-.273c.023-.1.041-.18.047-.244l.125-.638.284-1.246c-.655-.383-1.413-.668-2.276-.859a10.252 10.252 0 00-1.27-.227 10.78 10.78 0 00-1.22-.07c-1.299 0-2.515.18-3.648.544a8.435 8.435 0 00-2.972 1.646c-.852.734-1.515 1.671-1.995 2.805-.48 1.132-.722 2.432-.722 3.904 0 1.152.227 2.226.675 3.22a7.382 7.382 0 001.846 2.53c.782.69 1.719 1.222 2.809 1.592a10.69 10.69 0 003.491.562c1.768 0 3.314-.335 4.635-1.006l.511-2.023zM69.65 7.377h-1.21l-.931 1.285-1.082 1.451-2.256 2.905c-.778.961-1.563 1.902-2.349 2.823-.425.49-.942 1.075-1.545 1.755-.346.386-.597.66-.742.82V7.424l-.675.069-.594.054-.492.01-.493-.01-.58-.054-.69-.07V23.47l1.033-.017.73.017 1.99-2.639 2.465-3.1 2.394-2.92 1.019-1.212 1.06-1.21v11.08l.878-.04.86-.046.902.042.87.045V7.376h-.562zm58.82 16.049l.871.045V7.424l-.662.069-.594.042-.514.023-.495-.011-.569-.054-.676-.07v6.35l-1.784.03-1.797.082-1.741-.068c-.192 0-.493-.01-.906-.022-.41-.015-.722-.023-.938-.023V7.424l-.674.069-.593.054-.493.01-.492-.01-.583-.054-.686-.07V23.47l.881-.04.511-.047h.369l.87.042.89.045v-7.822l2.073-.048 1.512-.044 1.797.092h1.784v7.822l.879-.04.861-.047.899.042zm-18.526 7.604l-.069-.465a4.523 4.523 0 00-.031-.194c-.002-.03-.019-.18-.05-.443l-.16-1.427-.219-1.875-.134.026-.121.017-.109.007-.194-.02-.146-.03-.217.48-.244.515-.529 1.06-.576 1.125-.366.722-.476-.949-.541-1.08-.452-.923-.449-.95-.123.026-.113.017-.102.007-.101-.008-.109-.016-.132-.026-.463 3.306a61.45 61.45 0 01-.388 2.378l.199-.016.189-.017.193.017.197.016c0-.396.031-.926.097-1.596.011-.136.034-.344.067-.633.013-.124.041-.366.085-.723l.098-.813.473.963.472.968.195.384.674 1.417h.315l.432-.91.474-1.01.493-1 .444-.896.116 1.113.091.854.056.434c.019.166.028.323.028.48.022.2.036.349.045.442.009.097.012.165.012.205 0 .015 0 .04.008.077v.244l.331-.016.195-.008.139-.009.346.016.35.017-.085-.48-.115-.8zm25.251-4.269l.025-.135h-4.269c.026.182.041.3.041.35l-.041.357c.295-.04.567-.07.824-.088.258-.02.496-.03.716-.03v5.095l.312-.016.314-.017.309.016.309.017v-5.095c.316 0 .812.039 1.485.118l-.025-.131-.019-.12-.004-.106.004-.096.019-.119zm-73.91 4.937l-.744.01-.685-.01-.568-.021c.09-.26.202-.573.339-.931.143-.391.294-.78.443-1.163.177-.449.363-.913.56-1.395l.732 1.963c.2.524.378 1.033.538 1.526l-.616.02zm2.016-.021a132.118 132.118 0 01-1.966-5.066l-.178.015-.082.017h-.098l-.077-.003-.082-.007-.085-.022h-.102l-.441 1.18c-.165.437-.346.886-.538 1.347l-.495 1.198-.571 1.34h-.362l.034.252.013.192-.014.246-.033.203h.127c.103-.131.276-.209.517-.245.239-.03.539-.047.9-.047h2.45c.293 0 .57.019.826.056.26.038.435.117.528.236h.126a2.583 2.583 0 01-.048-.45l.048-.443h-.397zm54.961-1.082a2.187 2.187 0 01-.625.97 1.505 1.505 0 01-1.02.363c-.392 0-.721-.109-.981-.32a1.855 1.855 0 01-.572-.824 3.153 3.153 0 01-.181-1.077c0-.61.074-1.119.223-1.528.146-.413.354-.713.62-.904.282-.2.613-.3.993-.3.294 0 .556.066.783.2.225.131.41.31.553.533.144.224.247.473.313.742.068.266.099.542.099.822 0 .476-.067.916-.205 1.323zm1.421-2.201a2.74 2.74 0 00-.513-.95c-.234-.285-.551-.516-.954-.696-.401-.18-.88-.27-1.441-.27a3.81 3.81 0 00-1.364.229 3.026 3.026 0 00-1.038.644 2.7 2.7 0 00-.647.953c-.146.36-.219.745-.219 1.158 0 .618.128 1.152.384 1.6.254.448.612.787 1.071 1.018.459.232.997.347 1.616.347.488 0 .938-.08 1.349-.239a3.05 3.05 0 001.04-.646c.282-.272.5-.591.654-.956.148-.366.225-.751.225-1.158 0-.18-.015-.352-.042-.518a3.803 3.803 0 00-.121-.516zm21.491 2.958a.874.874 0 01-.558.402.963.963 0 01-.228.044 3.133 3.133 0 01-.319.015V29.53h.516c.218 0 .402.1.551.302.147.202.22.465.22.792 0 .28-.061.522-.182.727zm-.307-2.277h-.798v-2.479l-.301.02-.324.01-.323-.01-.295-.02v5.681h1.669c.624 0 1.138-.131 1.539-.396.404-.262.607-.73.607-1.405 0-.46-.153-.807-.453-1.046-.304-.237-.744-.355-1.321-.355zm-16.327-.03a4.47 4.47 0 01.085-.453c.079-.302.194-.576.345-.815.162-.253.364-.447.611-.588a1.698 1.698 0 011.244-.16c.124.034.255.088.388.157.247.14.449.322.61.55h.116c.009-.03.018-.06.027-.096a.714.714 0 00.016-.084l.044-.227.102-.44a2.749 2.749 0 00-.806-.305 3.435 3.435 0 00-.449-.08 4.192 4.192 0 00-1.724.165 3.05 3.05 0 00-1.052.585c-.3.258-.537.59-.706.993-.169.4-.255.862-.255 1.38 0 .41.081.79.239 1.141.159.35.376.65.654.894a2.9 2.9 0 00.994.566c.387.134.798.199 1.234.199.627 0 1.173-.122 1.641-.358l.181-.715-.109-.049a2.251 2.251 0 01-.698.453c-.271.115-.533.17-.785.17-.415 0-.77-.1-1.069-.302a1.908 1.908 0 01-.675-.856 3.253 3.253 0 01-.232-1.255c0-.087.004-.168.01-.243.004-.076.012-.151.019-.227zm-54.821 2.243a1.034 1.034 0 01-.371.374.923.923 0 01-.465.131h-.418V29.54h.213c.79 0 1.186.39 1.186 1.17 0 .223-.047.417-.145.578zm-1.254-4.178a5.04 5.04 0 01.428-.025c.277 0 .495.08.652.235.155.163.234.384.234.676 0 .378-.12.666-.358.864-.162.137-.394.206-.695.206h-.261V27.11zm2.239 2.543a2.18 2.18 0 00-1.05-.375v-.071c.241-.033.465-.11.675-.222.21-.114.38-.264.502-.453.121-.185.184-.402.184-.645 0-.449-.157-.77-.469-.965-.311-.197-.705-.296-1.178-.296h-2.143v5.651h1.916c.337 0 .661-.061.972-.18.313-.12.564-.3.752-.538.189-.24.283-.542.283-.91 0-.457-.147-.79-.444-.996zm9.213-3.042h-.428l-.329.454-.382.515-.799 1.028c-.276.34-.554.675-.83 1-.152.172-.333.38-.547.62-.124.14-.211.234-.264.291v-3.893l-.239.026-.21.019-.175.005-.174-.005-.205-.019-.243-.026v5.684l.364-.008.258.008.706-.935.872-1.1.846-1.032.361-.43.375-.426v3.923l.312-.016.303-.017.32.016.308.017v-5.7h-.2zm19.424 0h-.428l-.33.454-.383.515-.799 1.028c-.274.34-.551.675-.83 1a84.877 84.877 0 01-.81.911v-3.893l-.24.026-.21.019-.174.005-.175-.005-.204-.019-.244-.026v5.684l.364-.008.259.008.706-.935.871-1.1.846-1.032.362-.43.372-.426v3.923l.313-.016.306-.017.319.016.306.017v-5.7h-.197zm-52.061.058l-.182.007-.174-.005-.202-.019-.239-.026v2.25l-.63.01-.638.028-.615-.023c-.07 0-.174-.003-.32-.009a12.014 12.014 0 00-.334-.006v-2.25l-.237.026-.212.019-.175.005-.173-.005-.204-.019-.245-.026v5.684l.313-.016.18-.017h.13l.309.016.314.017v-2.77l.735-.02.534-.012.637.032h.631v2.77l.31-.016.305-.017.32.016.308.017v-5.684l-.235.026-.211.017zm4.593-.043v5.651h3.166L55 31.92l.04-.357c-.564.078-1.206.113-1.925.113v-2.097h.871c.342 0 .684.025 1.021.071a2.556 2.556 0 01-.04-.362c0-.045.005-.101.014-.17.008-.065.019-.124.026-.177a9.07 9.07 0 01-1.021.076h-.87v-1.79a13.75 13.75 0 011.925.114 3.213 3.213 0 01-.041-.357l.04-.358h-3.166z" fill="#989898"/></g></svg>