<svg width="160" height="40" fill="none" xmlns="http://www.w3.org/2000/svg"><mask id="mask0_1_704" style="mask-type:alpha" maskUnits="userSpaceOnUse" x="0" y="0" width="160" height="40"><path fill="#C4C4C4" d="M0 0h160v40H0z"/></mask><g clip-path="url(#clip0_1_704)" fill="#A0A0A0"><path d="M1 29.392c0-.722.19-1.288.572-1.697.38-.409.872-.613 1.475-.613.395 0 .75.097 1.067.288.316.192.558.46.724.804.166.343.25.733.25 1.168 0 .441-.088.837-.263 1.184a1.8 1.8 0 01-.743.792 2.09 2.09 0 01-1.038.269 2 2 0 01-1.08-.298 1.897 1.897 0 01-.72-.81A2.487 2.487 0 011 29.392zm.585.01c0 .525.138.938.414 1.24.277.3.624.452 1.042.452a1.35 1.35 0 001.05-.457c.275-.304.412-.736.412-1.296a2.27 2.27 0 00-.176-.928 1.372 1.372 0 00-.515-.613 1.382 1.382 0 00-.762-.219c-.4 0-.744.14-1.032.42-.289.28-.433.747-.433 1.401zm5.811-2.247h3.354v4.359h-.567v-3.847h-2.22v3.847h-.567v-4.358zm5.871 4.359v-4.358h3.086v.51h-2.519v1.34h2.358v.511h-2.358v1.485h2.62v.512h-3.187zm5.544 0v-4.358h1.613c.284 0 .5.014.651.041.21.035.386.104.528.203.142.1.257.24.343.42.087.18.13.377.13.593 0 .37-.116.683-.348.939-.23.256-.649.384-1.254.384h-1.096v1.778h-.567zm.567-2.289h1.104c.366 0 .625-.069.779-.208.153-.139.23-.334.23-.586a.797.797 0 00-.136-.468.636.636 0 00-.357-.258c-.095-.025-.271-.038-.527-.038h-1.093v1.558zm4.122 2.289l1.639-4.358h.621l1.74 4.358h-.643l-.495-1.321h-1.8l-.463 1.32h-.6zm1.23-1.79h1.455l-.446-1.208c-.134-.367-.235-.67-.306-.91a6.27 6.27 0 01-.235.839l-.469 1.28zm5.413 1.79v-3.847h-1.408v-.512h3.384v.512H30.71v3.847h-.567zm3.694-2.122c0-.722.191-1.288.572-1.697.381-.409.873-.613 1.475-.613.395 0 .75.097 1.068.288.316.192.558.46.724.804.166.343.25.733.25 1.168 0 .441-.088.837-.264 1.184-.175.35-.422.613-.742.792a2.09 2.09 0 01-1.039.269c-.403 0-.761-.1-1.079-.298a1.898 1.898 0 01-.72-.81 2.492 2.492 0 01-.245-1.087zm.585.01c0 .525.138.938.415 1.24.276.3.623.452 1.041.452a1.35 1.35 0 001.05-.457c.275-.304.412-.736.412-1.296 0-.355-.058-.664-.176-.928a1.372 1.372 0 00-.515-.613 1.383 1.383 0 00-.762-.219c-.4 0-.744.14-1.032.42-.289.28-.433.747-.433 1.401zm5.805 2.112v-4.358h1.614c.283 0 .5.014.65.041.21.035.386.104.529.203.142.1.256.24.343.42.086.18.13.377.13.593 0 .37-.116.683-.348.939-.23.256-.65.384-1.254.384h-1.096v1.778h-.568zm.568-2.289h1.103c.367 0 .625-.069.78-.208.152-.139.23-.334.23-.586a.797.797 0 00-.136-.468.638.638 0 00-.357-.258 2.44 2.44 0 00-.527-.038h-1.093v1.558zm8.245 2.289v-4.358h.568v1.795h2.208v-1.796h.566v4.359h-.566v-2.052h-2.209v2.052h-.566zm5.874 0v-4.358h3.085v.51H55.48v1.34h2.358v.511H55.48v1.485h2.62v.512h-3.186zm5.931-4.358h2.602v3.846h.382v1.528h-.501v-1.016h-2.829v1.016h-.501v-1.528h.328c.346-.53.52-1.6.52-3.21v-.637zm2.035.51h-1.492v.224c0 .371-.032.88-.098 1.524-.065.644-.194 1.174-.385 1.588h1.975v-3.335zm3.17 3.848v-4.358h1.603c.326 0 .588.043.786.131.197.088.351.225.463.408.112.183.168.375.168.575 0 .186-.05.361-.148.526a1.07 1.07 0 01-.448.399c.258.076.457.209.596.395.14.186.209.406.209.66 0 .205-.043.394-.128.57-.084.175-.189.31-.313.406a1.32 1.32 0 01-.467.215 2.782 2.782 0 01-.691.073h-1.63zm.567-2.527h.924c.25 0 .43-.017.539-.05a.597.597 0 00.325-.218.638.638 0 00.11-.382.703.703 0 00-.103-.382.516.516 0 00-.291-.228c-.126-.04-.343-.06-.65-.06h-.854v1.32zm0 2.015h1.064c.183 0 .311-.007.386-.021a.9.9 0 00.326-.119.634.634 0 00.216-.243.773.773 0 00.085-.368.732.732 0 00-.124-.425.644.644 0 00-.34-.254c-.144-.049-.353-.073-.624-.073h-.989v1.503zm5.025-3.846h.513v3.45l2.275-3.45h.56v4.358h-.514v-3.442l-2.269 3.442h-.565v-4.358zm8.437 0v1.91c.278 0 .467-.052.572-.156.103-.105.234-.35.395-.736.117-.287.214-.49.291-.607a.916.916 0 01.328-.297.937.937 0 01.468-.12c.185 0 .3.001.345.006v.498c-.018 0-.055 0-.11-.003a4.924 4.924 0 00-.114-.003c-.18 0-.315.045-.401.134-.09.09-.192.28-.307.572-.124.317-.232.532-.323.647a1.01 1.01 0 01-.396.285c.28.079.55.338.814.777l.879 1.45h-.7l-.715-1.18c-.19-.315-.35-.536-.48-.665-.13-.128-.312-.193-.546-.193v2.039h-.58v-2.04c-.185 0-.35.05-.492.15-.143.101-.309.317-.499.65l-.036.058-.717 1.182h-.702l.88-1.451c.269-.441.541-.7.818-.777a1.028 1.028 0 01-.376-.256c-.097-.106-.213-.331-.347-.675-.122-.312-.228-.508-.316-.587-.087-.08-.216-.12-.39-.12l-.227.006v-.498a4.07 4.07 0 01.327-.007.944.944 0 01.81.412c.077.119.177.323.3.614.161.392.294.637.395.736.102.1.293.152.573.156v-1.912h.579zm4.513 0h.513v3.45l2.275-3.45h.56v4.358h-.513v-3.442l-2.269 3.442h-.566v-4.358zm5.842 4.358v-4.358h.847l1.01 3.085c.094.287.161.502.204.645.05-.158.126-.392.229-.7l1.028-3.03h.757v4.358h-.543v-3.646l-1.247 3.646h-.51L90.977 27.8v3.713h-.542zm6.385-2.122c0-.722.191-1.288.572-1.697.38-.409.872-.613 1.475-.613.395 0 .75.097 1.067.288.316.192.558.46.724.804.166.343.25.733.25 1.168 0 .441-.088.837-.263 1.184-.175.35-.422.613-.742.792-.322.18-.669.269-1.04.269-.403 0-.761-.1-1.078-.298a1.894 1.894 0 01-.72-.81 2.495 2.495 0 01-.245-1.087zm.584.01c0 .525.139.938.415 1.24.277.3.624.452 1.042.452a1.35 1.35 0 001.05-.457c.274-.304.412-.736.412-1.296a2.27 2.27 0 00-.176-.928 1.37 1.37 0 00-.515-.613 1.382 1.382 0 00-.762-.219c-.4 0-.744.14-1.033.42-.288.28-.433.747-.433 1.401zm8.849.583l.568.146c-.119.474-.332.834-.639 1.082-.308.249-.683.374-1.128.374-.459 0-.834-.096-1.122-.288a1.778 1.778 0 01-.657-.83 3.026 3.026 0 01-.226-1.167c0-.453.084-.85.255-1.187.17-.338.412-.594.724-.77a2.086 2.086 0 011.035-.263c.428 0 .787.11 1.077.333.292.222.494.534.609.935l-.555.134c-.099-.316-.243-.547-.431-.691-.188-.145-.425-.218-.71-.218-.327 0-.602.08-.822.24-.22.161-.374.377-.463.647-.09.271-.135.55-.135.837 0 .37.053.694.159.97.105.277.269.483.493.62.222.137.463.205.722.205.317 0 .583-.094.802-.28.218-.186.367-.462.444-.83zm3.73 1.529v-3.847h-1.408v-.512h3.384v.512h-1.408v3.847h-.568zm4.147-4.358h.513v3.45l2.274-3.45h.561v4.358h-.514v-3.442l-2.268 3.442h-.566v-4.358zM9.65 22.923H7.398V10.36H3.252v12.564H1V8.407h8.65v14.516zm2.826-14.516h7.622v1.952h-5.37v4.025h5.054v1.952h-5.054v4.636h5.529v1.952h-7.781V8.407zm9.989 0h4.464c2.706 0 3.89 1.749 3.89 4.23 0 2.601-1.501 4.29-4.128 4.29h-1.974v5.997h-2.252V8.407zm2.252 6.771h1.6c1.204 0 2.25-.65 2.25-2.5 0-1.565-.612-2.522-2.408-2.522h-1.442v5.022zm7.783.488c0-5.184 1.106-7.541 4.68-7.541 4.01 0 4.247 3.029 4.247 4.553v.264h-2.252v-.244c0-1.362-.355-2.826-1.994-2.826-1.699 0-2.43 1.058-2.43 5.734 0 4.675.731 5.855 2.41 5.855 1.896 0 2.093-2.136 2.093-3.498v-.244h2.252v.305c0 2.623-1.047 5.185-4.346 5.185-3.554 0-4.66-2.359-4.66-7.543zm19.729 7.257h-2.251V10.36H45.83v12.564h-2.25V8.407h8.65v14.516zM55.05 8.407h7.622v1.952h-5.37v4.025h5.054v1.952h-5.055v4.636h5.53v1.952H55.05V8.407zm9.994 0h2.252v6.324h.04L71.6 8.407h2.47L70 14.528l4.503 8.396h-2.546l-3.417-6.526-1.244 1.83v4.696h-2.252V8.407zm13.053 1.952H74.74V8.407h8.908v1.952H80.35v12.564h-2.252V10.36zM94.29 22.923h-2.252v-7.36c0-.69.04-2.661.06-3.354h-.06c-.197.549-.454 1.261-.848 2.3l-3.22 8.414h-2.547V8.407h2.251v7.422c0 .69-.02 2.622-.06 3.293h.06c.178-.59.69-1.972 1.382-3.781l2.687-6.934h2.547v14.516zm2.824-14.516h4.562c2.113 0 3.792.977 3.792 3.519 0 1.748-.691 2.845-2.074 3.292v.043c1.541.283 2.527 1.239 2.527 3.7 0 2.437-1.698 3.963-4.344 3.963h-4.463V8.407zm4.03 6.121c1.361 0 2.073-.916 2.073-2.297 0-1.728-1.007-2.075-2.271-2.075h-1.581v4.372h1.779zm.454 6.647c1.342 0 2.072-.874 2.072-2.562 0-1.564-.888-2.458-2.211-2.458h-2.094v5.02h2.233zm9.283-12.768h2.882l3.713 14.517h-2.35l-.868-3.559h-4.128l-.908 3.559h-2.35l4.009-14.517zm3.001 9.109l-1.62-7.157h-.039l-1.679 7.157h3.338zm22.773 4.272l16.889-6.575-6.353 6.508-7.548 3.128-2.988-3.061zm8.784 10.857l.997 1.017-2.991 3.05-.992-1.011 2.986-3.056zm-4.113 3.056l-3.235 3.3-3.23-3.295L138.1 32.4l3.226 3.3z"/><path d="M142.711 11.494c.937-.956 1.416-1.76 1.435-2.41.02-.651-.229-1.24-.747-1.77-.519-.528-1.087-.793-1.705-.793-.619 0-1.306.386-2.064 1.16l-2.243 2.288-3.111-3.173 2.034-2.075c1.695-1.729 3.41-2.634 5.144-2.715 1.735-.082 3.41.702 5.026 2.349 1.614 1.647 2.383 3.356 2.303 5.125-.08 1.77-.968 3.52-2.662 5.248-1.097 1.118-2.248 1.968-3.455 2.547-1.207.58-2.418.992-3.634 1.236a23.421 23.421 0 01-3.605.442c-1.186.051-2.303.112-3.349.183a16.126 16.126 0 00-2.842.428c-.848.213-1.561.615-2.139 1.204a3.53 3.53 0 00-.419.489l6.222 6.346-2.991 3.05-9.512-9.701 2.572-2.624c1.017-1.037 2.074-1.79 3.171-2.258a13.324 13.324 0 013.35-.945 25.558 25.558 0 013.395-.26 26.992 26.992 0 003.38-.244 13.2 13.2 0 003.305-.9c1.077-.448 2.124-1.19 3.141-2.227z"/><path d="M155.359 14.508l-13.468 13.797-6.214-6.366-3.343 3.41 9.556 9.779 16.813-17.209-3.344-3.411z"/></g><defs><clipPath id="clip0_1_704"><path fill="#fff" transform="translate(1 2)" d="M0 0h158v37H0z"/></clipPath></defs></svg>