<svg width="160" height="40" fill="none" xmlns="http://www.w3.org/2000/svg"><mask id="mask0_1_725" style="mask-type:alpha" maskUnits="userSpaceOnUse" x="0" y="0" width="160" height="40"><path fill="#C4C4C4" d="M0 0h160v40H0z"/></mask><g clip-path="url(#clip0_1_725)" fill="#989898"><path d="M84.787 21.82a3.347 3.347 0 01-.868 2.41 3.286 3.286 0 01-2.311 1.065 3.257 3.257 0 01-2.372-.917 3.32 3.32 0 01-1.016-2.351V13h-2.822v8.82c-.01.818.14 1.63.443 2.39.302.758.752 1.45 1.32 2.031a6.115 6.115 0 001.995 1.36 6.067 6.067 0 006.715-1.36 6.185 6.185 0 001.321-2.032 6.235 6.235 0 00.443-2.389V13h-2.834l-.014 8.82zm-63.365-5.953a4.551 4.551 0 013.144 1.26l1.627-2.37a7.357 7.357 0 00-7.908-1.05 7.445 7.445 0 00-3.122 2.766 7.551 7.551 0 000 8.055 7.445 7.445 0 003.123 2.766 7.356 7.356 0 007.907-1.05l-1.627-2.37a4.576 4.576 0 01-1.93 1.093c-.721.2-1.48.218-2.21.054a4.57 4.57 0 01-1.98-.997 4.631 4.631 0 01-1.287-1.817 4.675 4.675 0 01.47-4.31 4.601 4.601 0 011.646-1.49 4.55 4.55 0 012.147-.54zm31.975 7.213l-6.904-10.077h-2.836v14.992h2.836V17.919l6.904 10.076h2.836V13.003h-2.836V23.08zm6.613-10.077v2.864h4.38v12.128h2.836V15.867h4.381v-2.864H60.01zm78.194 0v2.864h1.544v12.128h2.835V13.003h-4.379zm-108.227 0v14.992h9.894V25.13h-7.059v-3.2h5.67v-2.864h-5.67v-3.2h7.06v-2.864h-9.895zm72.818 5.032a5.068 5.068 0 00-1.46-3.557A4.968 4.968 0 0097.813 13h-6.41v14.995h2.835v-4.931h1.81l3.378 4.925h3.372l-3.539-5.146a4.993 4.993 0 002.551-1.817 5.081 5.081 0 00.985-2.99zm-4.982 2.171h-3.575v-4.341h3.575c.57 0 1.117.228 1.52.635a2.182 2.182 0 010 3.07c-.403.408-.95.636-1.52.636zm17.969-7.203l-4.156 6.064-4.16-6.064h-3.369l6.111 8.911v6.08h2.836v-6.08l6.107-8.91h-3.369zm18.407 7.493l.074-.103a4.776 4.776 0 00-.647-6.074 4.651 4.651 0 00-6.037-.386 4.733 4.733 0 00-1.399 1.677 4.78 4.78 0 00-.502 2.133v.176h2.841a1.716 1.716 0 010-.176c0-.495.194-.97.539-1.321a1.847 1.847 0 011.304-.555 1.776 1.776 0 011.291.477 1.804 1.804 0 01.576 1.26v.006a.99.99 0 010 .133 3.748 3.748 0 01-.598 1.458c-.157.233-6.03 8.794-6.03 8.794h9.74v-2.864h-4.327l3.175-4.635zm10.849 6.809v-1.514h.653a.43.43 0 01.187.042.515.515 0 01.257.598.52.52 0 01-.06.13.39.39 0 01-.213.169l.353.575h-.27l-.324-.527h-.347v.527h-.236zm.237-.738h.409a.196.196 0 00.092-.023.225.225 0 00.071-.06.34.34 0 00.043-.31.28.28 0 00-.13-.15.197.197 0 00-.089-.021h-.401l.005.564z"/><path d="M145.575 27.99a1.419 1.419 0 01-1.318-.889 1.454 1.454 0 01.308-1.57 1.414 1.414 0 012.195.219 1.45 1.45 0 01-.178 1.817 1.42 1.42 0 01-1.007.423zm0-2.661a1.216 1.216 0 00-1.118.754 1.227 1.227 0 00.882 1.666 1.199 1.199 0 001.242-.52 1.23 1.23 0 00-.543-1.809 1.199 1.199 0 00-.463-.093v.002z"/></g><defs><clipPath id="clip0_1_725"><path fill="#fff" transform="translate(14 13)" d="M0 0h133v15H0z"/></clipPath></defs></svg>