<svg width="111" height="40" fill="none" xmlns="http://www.w3.org/2000/svg"><mask id="mask0_1_535" style="mask-type:alpha" maskUnits="userSpaceOnUse" x="0" y="0" width="111" height="40"><path fill="#C4C4C4" d="M0 0h111v40H0z"/></mask><g mask="url(#mask0_1_535)" fill="#989898"><path d="M40.41 22.523c-.163 0-.491-.021-.8-.123-.43-.124-1.026-.452-1.764-2.28-1.252-3.12-4.473-11.6-4.781-12.38-.247-.636-.328-.739-.452-.739-.123 0-.205.123-.45.802l-4.659 12.75c-.37 1.026-.78 1.807-1.724 1.93-.164.02-.348.04-.492.04-.182 0-.285.04-.288.12v.01c.004.118.128.158.39.158.965 0 2.094-.061 2.32-.061.224 0 1.046.061 1.538.061.185 0 .37-.04.37-.164 0-.082-.062-.123-.267-.123h-.185c-.349 0-.738-.185-.738-.596 0-.37.102-.862.286-1.376l3.387-10.121c.102-.309.205-.309.307 0l4.247 11.497c.124.329 0 .513-.122.555-.083.02-.144.061-.144.144 0 .123.226.123.615.143 1.416.041 2.915.041 3.222.041.226 0 .41-.04.41-.164 0-.103-.103-.123-.225-.123zm10.68.349c.801 0 .965 0 1.109-.535.102-.43.267-1.826.267-1.99 0-.144 0-.309-.124-.309-.102 0-.143.082-.184.308-.165.884-.39 1.314-1.047 1.52-.554.164-1.231.184-1.847.184-.8 0-1.354-.04-1.703-.185-.513-.205-.636-.657-.677-1.498-.02-.432 0-2.814 0-3.511v-1.807c0-.082.04-.144.144-.144.349 0 2.38.041 2.934.103.739.081.985.37 1.067.678.061.184.082.39.082.574 0 .164.02.329.144.329.082 0 .123-.102.143-.308.02-.288.02-.76.082-1.396.061-.678.164-1.027.164-1.15s-.04-.165-.103-.165c-.081 0-.143.083-.246.206-.205.246-.471.308-1.025.35-.472.04-2.996.04-3.263.04-.102 0-.123-.062-.123-.205V8.294c0-.144.04-.206.123-.206.226 0 2.463.02 2.81.062.904.082 1.335.288 1.478.76.062.164.103.41.103.678 0 .164.041.266.164.266.082 0 .144-.143.165-.349.04-.534.061-.924.082-1.231.04-.576.164-.822.164-.966 0-.103-.021-.184-.082-.184-.062 0-.103.02-.226.081-.124.062-.492.103-.944.124-.472.02-4.555.02-4.699.02-1.293-.061-1.846-.061-2.318-.061-.226 0-.329.04-.329.164 0 .082.123.103.267.123.185.02.451.02.595.061.677.144.84.473.883 1.171.04.657.04 1.232.04 4.435v3.614c0 1.827-.02 2.874-.04 3.675-.042 1.54-.309 1.828-.739 1.93-.144.04-.267.04-.472.061-.124.021-.226.062-.226.124 0 .123.102.164.328.164.534.02 1.026-.062 1.519-.062.8 0 1.744.042 2.565.062.8.02 1.477.062 2.995.062zM68.31 7.144c-.08 0-.266.061-.573.102-.329.062-.801.103-1.457.103h-7.695c-.246 0-1.026-.04-1.621-.103-.554-.04-.76-.246-.903-.246-.082 0-.164.267-.205.39-.041.165-.452 1.93-.452 2.135 0 .124.042.185.102.185.083 0 .144-.04.206-.205.061-.144.123-.287.349-.636.328-.493.82-.637 2.092-.658 1.007-.02 2.033-.02 3.038-.04v8.685c0 1.97 0 3.593-.103 4.455-.082.596-.185 1.047-.595 1.13a3.174 3.174 0 01-.616.081c-.123 0-.163.062-.163.124 0 .123.102.164.328.164.615 0 1.908-.062 2.01-.062.103 0 1.396.062 2.524.062.226 0 .33-.062.33-.164 0-.062-.042-.124-.166-.124a8.65 8.65 0 01-.922-.082c-.617-.082-.74-.533-.8-1.129-.104-.862-.104-2.484-.104-4.455V8.171c.862.02 1.725.02 2.586.04 1.97.042 2.462.514 2.524 1.13 0 .082.02.144.02.226.02.287.062.349.165.349.081 0 .143-.082.143-.267 0-.226.061-1.642.061-2.259 0-.123 0-.246-.102-.246zm18.164 7.19C86.303 9.767 82.916 7 78.418 7c-5.664 0-8.085 4.702-8.085 8.028 0 3.696 2.34 8.07 7.962 8.07 4.813 0 8.012-3.6 8.18-8.032v-.732zm-14.192.12c0-4.497 2.565-6.755 5.992-6.755 3.242 0 6.238 2.648 6.238 7.576 0 5.974-3.817 7.042-5.664 7.042-3.693 0-6.566-3.08-6.566-7.864zM30.466 31.667v-2.914h.313v1.291h1.62v-1.29h.313v2.913h-.313v-1.33h-1.62v1.33h-.313zm4.68-.29h1.726v.29h-2.039v-2.914h1.997v.293h-1.684v.957h1.35v.29h-1.35v1.084zm3.158 0h.167a.462.462 0 00.056-.056 2.044 2.044 0 00.284-.52 2.93 2.93 0 00.124-.496 3.9 3.9 0 00.056-.678v-.874h1.789v2.624h.354v.914h-.313v-.624h-2.204v.624h-.313v-.914zm1-1.75c0 .236-.018.458-.053.667a2.713 2.713 0 01-.125.502 3.181 3.181 0 01-.145.328.83.83 0 01-.128.194l-.049.059h1.663v-2.331h-1.163v.58zm5.241.48a.87.87 0 01.05.022c.02.01.059.035.114.077a.88.88 0 01.146.138c.042.05.08.12.115.21a.765.765 0 01.052.28.79.79 0 01-.247.597c-.166.158-.381.237-.646.237h-1.187v-2.915h1.123a.82.82 0 01.583.216.707.707 0 01.228.534c0 .085-.01.165-.032.237a.523.523 0 01-.084.174.867.867 0 01-.1.11.365.365 0 01-.082.062l-.033.02zm-.48-1.062h-.81v.934h.81a.508.508 0 00.367-.127.457.457 0 00.133-.349.435.435 0 00-.133-.33.508.508 0 00-.367-.128zm-.81 2.332h.873a.584.584 0 00.422-.153.514.514 0 00.159-.39.576.576 0 00-.161-.411.553.553 0 00-.42-.17h-.873v1.124zm6.092.29h-.311v-2.35l-1.79 2.35h-.27v-2.914h.313v2.353l1.787-2.353h.27v2.914zm4.243-1.477l-.396.417v1.06h-.313v-1.06l-.394-.417-1.04 1.477h-.375l1.206-1.707-1.101-1.207h.394l1.31 1.433v-1.433h.313v1.433l1.31-1.433h.396l-1.103 1.207 1.207 1.707h-.374l-1.04-1.477zm5.508 1.477h-.31v-2.35l-1.79 2.35h-.27v-2.914h.313v2.353l1.787-2.353h.27v2.914zm4.763-2.371l-1.165 1.538-1.164-1.538v2.372h-.313v-2.915h.27l1.207 1.584 1.206-1.584h.27v2.915h-.31v-2.372zm4.803-.146c.29.291.436.645.436 1.06 0 .416-.145.77-.436 1.061a1.442 1.442 0 01-1.061.437c-.415 0-.768-.145-1.06-.437a1.444 1.444 0 01-.436-1.06c0-.416.145-.77.436-1.061a1.44 1.44 0 011.06-.438c.416 0 .77.146 1.06.438zm-1.904.2a1.176 1.176 0 00-.343.86c0 .342.115.628.343.86.229.232.51.347.843.347.333 0 .615-.115.844-.347.228-.232.343-.518.343-.86a1.18 1.18 0 00-.343-.86 1.142 1.142 0 00-.844-.346 1.14 1.14 0 00-.843.346zm4.524 1.921a1.444 1.444 0 01-.436-1.06c0-.416.145-.77.436-1.061a1.441 1.441 0 011.06-.438 1.463 1.463 0 01.761.212c.088.059.167.117.234.177.067.06.115.11.145.152l.047.063-.21.187a.808.808 0 00-.036-.053 1.295 1.295 0 00-.308-.27 1.244 1.244 0 00-.633-.177c-.333 0-.614.117-.843.348a1.177 1.177 0 00-.343.86c0 .34.115.627.343.86.23.23.51.347.843.347.125 0 .244-.018.358-.052a1.13 1.13 0 00.283-.125c.076-.049.141-.098.198-.145a.686.686 0 00.122-.127l.039-.051.207.189a.7.7 0 01-.05.064 1.877 1.877 0 01-.148.143 1.856 1.856 0 01-.243.185 1.403 1.403 0 01-.336.145 1.446 1.446 0 01-.43.064c-.415 0-.768-.145-1.06-.437zm3.784-2.518h2.143v.293h-.916v2.621h-.31v-2.621h-.917v-.293zm5.012 2.914h-1.103v-2.914h.313v1.083h.79c.269 0 .493.088.67.263a.877.877 0 01.266.653c0 .26-.089.479-.267.653a.913.913 0 01-.67.262zm-.79-.29h.79a.614.614 0 00.453-.17.617.617 0 00.17-.455.615.615 0 00-.17-.454.612.612 0 00-.454-.17h-.79v1.249z"/></g></svg>