<svg width="155" height="40" fill="none" xmlns="http://www.w3.org/2000/svg"><mask id="mask0_1_563" style="mask-type:alpha" maskUnits="userSpaceOnUse" x="0" y="0" width="155" height="40"><path fill="#C4C4C4" d="M0 0h155v40H0z"/></mask><g mask="url(#mask0_1_563)" fill="#989898"><path d="M35.043 38.672l.258.109c.582.23 1.178.449 1.773.64l.23.067 5.647-12.872 5.66 12.9.23-.069a21.151 21.151 0 001.774-.626l.271-.108-7.935-18.084-7.908 18.043z"/><path d="M49.965 2.383C45.47.519 40.351.519 35.91 2.41c-2.343.993-4.51 2.531-6.27 4.436a18.696 18.696 0 00-3.913 6.626c-1.381 4.164-1.205 8.872.488 12.9a18.325 18.325 0 003.9 5.81 18.86 18.86 0 004.78 3.47l.256.135 7.8-17.825 7.867 17.825.257-.122c3.846-1.919 7.001-5.307 8.68-9.28a18.433 18.433 0 000-14.246c-1.828-4.368-5.403-7.92-9.79-9.756zm-6.973.844c4.197 0 8.314 1.714 11.279 4.694.136.136.257.272.393.408a23.265 23.265 0 00-2.167-.38 25.675 25.675 0 00-6.567-.014 30.398 30.398 0 00-2.194-1.43 27.505 27.505 0 00-5.687-2.503 16.389 16.389 0 014.943-.775zm-14.706 9.796A16.078 16.078 0 0134.8 5.5a25.17 25.17 0 017.827 2.966c.054.027.108.068.162.095a25.406 25.406 0 00-7.095 3.116 25.757 25.757 0 00-5.525 4.776.287.287 0 00-.054-.082c-.149-.23-.338-.517-.5-.775a12.84 12.84 0 01-.353-.544 24.9 24.9 0 01-.988-2l.013-.028zm-1.245 6.246c0-1.034.094-2.055.284-3.062.42.735.867 1.443 1.354 2.123a26.476 26.476 0 00-1.57 2.49 14.85 14.85 0 01-.069-1.551zM53.445 29.84c-.108.64-.257 1.28-.42 1.905a16.92 16.92 0 01-1.002.748l-9.059-20.518-4.63 10.545-4.374 9.973a15.897 15.897 0 01-2.262-1.891 16.088 16.088 0 01-3.425-5.102 14.934 14.934 0 01-.407-1.089 23.493 23.493 0 012.275-4.272c.312.34.637.68.962 1.006a22.382 22.382 0 005.023 3.66l.055.028.907-2.068-.014-.014a19.995 19.995 0 01-4.387-3.225 19.75 19.75 0 01-1.151-1.224 23.04 23.04 0 015.349-4.722 22.749 22.749 0 018.463-3.265 23.879 23.879 0 013.791 3.7c2.613 3.212 4.17 6.967 4.523 10.845a26.966 26.966 0 01-3.575.53l.961 2.178a30.443 30.443 0 002.681-.408c-.04.898-.135 1.796-.284 2.68zm2.41-1.075c.082-.721.109-1.442.122-2.163.474-.136.962-.286 1.436-.45a16.407 16.407 0 01-1.558 2.613zm2.573-5.429c-.84.354-1.706.68-2.573.953-.447-4.191-2.166-8.232-4.983-11.688a25.658 25.658 0 00-2.423-2.586c1.245-.04 2.505.027 3.75.19a23.2 23.2 0 014.631 1.103 16.127 16.127 0 012.112 7.973 15.138 15.138 0 01-.514 4.055zm68.422-1.046a7.62 7.62 0 005.308-1.592l-.027-.068-2.208-1.756a4.77 4.77 0 01-2.64.654c-2.559-.096-4.672-2.218-4.753-4.79-.095-2.817 2.153-5.13 4.929-5.13.961 0 1.882.286 2.668.79l1.706-2.178a7.623 7.623 0 00-4.374-1.374c-4.374 0-7.908 3.701-7.678 8.15.204 3.851 3.264 6.994 7.069 7.294zm-18.484-.245l1.368-2.967h5.687l1.368 2.967.121.258h2.79l-.284-.626-6.839-14.872c-.352.776-6.445 14.042-6.824 14.872l-.284.626h2.789l.108-.258zm4.211-9.403l1.923 4.178h-3.845l1.922-4.178zM97.209 6.833c-.352.775-6.446 14.014-6.825 14.844l-.284.626h2.79l.121-.258L97.21 12.9l4.197 9.144.122.258h2.79l-.285-.626L97.21 6.832zM77.818 22.058l.122.259h2.79l-.285-.626-6.824-14.845c-.623 1.075-6.581 14.287-7.11 15.47h2.79l.122-.258 1.368-2.966h5.687l1.34 2.966zm-6.12-5.238l1.923-4.177 1.922 4.177h-3.845zm12.255 5.483h2.938V9.785h4.495V6.833H79.443v2.952h4.51v12.518zm-14.367 5.374H67.65v-2.204h-1.124v5.837h1.124v-2.558h1.936v2.558h1.124v-5.837h-1.124v2.204zm1.923 3.633h3.168v-1.088h-2.071v-1.538h2.072V27.61h-2.072v-1.047h2.072v-1.089h-3.17v5.837zm7.596-5.837h-1.124l-1.868 4.803h-.65v1.919h1.07v-.871h4.007v.87h1.07v-1.918h-.65l-1.855-4.803zm-1.828 4.79l1.273-3.252 1.273 3.252h-2.546zM85.05 28.1c.216-.164.365-.327.46-.517.094-.177.135-.381.135-.613 0-.34-.108-.64-.311-.884a1.629 1.629 0 00-.826-.517c-.244-.068-.637-.109-1.165-.109h-.92v5.85h1.624c.474 0 .84-.067 1.11-.203.271-.136.488-.34.65-.613.163-.272.258-.571.258-.898 0-.34-.081-.64-.244-.884-.162-.245-.42-.45-.772-.612zm-1.517-1.565h.284c.257 0 .447.054.569.163.122.109.19.259.19.436a.57.57 0 01-.204.462c-.135.109-.325.177-.596.177h-.243v-1.238zm1.205 3.538c-.163.122-.474.177-.934.177h-.285v-1.497h.23c.434 0 .745.068.935.218.19.15.284.34.284.598.013.218-.068.395-.23.504zm3.236-.831v-3.769h-1.096v5.837h.961l2.166-3.66v3.66h1.11v-5.837h-.933l-2.208 3.77zm11.076-3.769h-1.34l-1.571 2.082v-2.082h-1.124v2.096l-1.584-2.096h-1.327l1.95 2.463L91.9 31.31h1.313l1.639-2.762.162.177v2.585h1.124v-2.585l.149-.177 1.638 2.762h1.314l-2.153-3.374 1.963-2.463zm2.1 3.769v-3.769h-1.111v5.837h.962l2.166-3.66v3.66h1.11v-5.837h-.934l-2.193 3.77zm8.72-3.769l-1.354 4.069-1.354-4.069h-1.07l-1.016 5.837h1.083l.637-3.687 1.232 3.687h.975l1.232-3.687.623 3.687h1.07l-.975-5.837h-1.083zm5.091-.013c-.515 0-1.002.136-1.449.395a2.827 2.827 0 00-1.056 1.06 2.901 2.901 0 00-.379 1.47c0 .79.27 1.483.826 2.055.555.585 1.245.87 2.071.87.799 0 1.476-.285 2.032-.843.555-.558.839-1.252.839-2.068 0-.816-.284-1.524-.853-2.082-.582-.571-1.246-.857-2.031-.857zm1.286 4.272a1.714 1.714 0 01-1.286.545c-.447 0-.84-.136-1.178-.422-.447-.354-.664-.844-.664-1.456 0-.558.176-1.007.528-1.374a1.775 1.775 0 011.3-.544c.515 0 .935.19 1.3.544.352.367.528.816.528 1.347 0 .558-.176 1.007-.528 1.36zm5.078-3.252c.623 0 1.192.273 1.693.803l.731-.707a3.294 3.294 0 00-1.097-.83 3.169 3.169 0 00-1.313-.286c-.542 0-1.043.136-1.503.395a2.8 2.8 0 00-1.07 1.034 2.976 2.976 0 00-.379 1.483c0 .857.271 1.564.826 2.109.542.544 1.246.816 2.112.816.461 0 .88-.081 1.246-.231.366-.15.745-.435 1.165-.83l-.718-.748c-.298.299-.582.517-.84.625a2.103 2.103 0 01-.839.177c-.352 0-.677-.081-.975-.245a1.714 1.714 0 01-.677-.68 1.958 1.958 0 01-.244-.993c0-.53.176-.98.542-1.347.365-.368.812-.544 1.34-.544zm3.155.082h1.029v4.748h1.124v-4.748h1.056v-1.089h-3.209v1.089zm6.513 1.278c-.311-.108-.691-.163-1.151-.163h-.244v-2.204h-1.11v5.851h1.625c.447 0 .785-.055 1.042-.177.258-.109.474-.313.664-.585.19-.272.284-.612.284-1.02 0-.422-.108-.79-.338-1.089-.203-.313-.461-.517-.772-.612zm-.19 2.246c-.162.109-.46.177-.92.177h-.271V28.67h.23c.799 0 1.205.272 1.205.83-.013.272-.095.462-.244.585z"/></g></svg>