<svg width="205" height="40" fill="none" xmlns="http://www.w3.org/2000/svg"><mask id="mask0_1_590" style="mask-type:alpha" maskUnits="userSpaceOnUse" x="0" y="0" width="205" height="40"><path fill="#C4C4C4" d="M0 0h205v40H0z"/></mask><g clip-path="url(#clip0_1_590)" fill="#989898"><path d="M39.118 15.14c.593-.58 3.195-3.343 4.362-4.56 1.148-1.198 1.224-1.391 1.224-1.623a.398.398 0 00-.249-.367c-.133-.058-.172-.097-.172-.174 0-.078.115-.116.288-.116.554 0 .496.058 1.147.058.593 0 1.722-.058 2.028-.058.268 0 .325.058.325.135 0 .077-.038.116-.21.135-.335.03-.664.108-.976.232-.478.193-.842.425-1.99 1.546-1.683 1.642-3.864 3.826-4.361 4.386 1.205 1.333 4.686 4.908 5.586 5.758 1.568 1.488 2.238 1.913 3.156 2.087.183.04.369.058.555.058.153 0 .268.038.268.135s-.076.135-.287.135h-1.416c-1.664 0-2.104-.212-3.003-.927-1.148-.909-4.592-4.638-6.275-6.666v1.99c0 1.854 0 3.381.096 4.193.057.56.172.985.746 1.062.267.039.65.078.765.078.172 0 .23.077.23.135 0 .097-.077.135-.287.135-1.052 0-2.257-.058-2.353-.058-.096 0-1.224.058-1.798.058-.21 0-.306-.02-.306-.135 0-.058.038-.135.21-.135.167-.004.334-.023.497-.058.383-.078.498-.522.574-1.082.096-.812.096-2.339.096-4.193v-3.401c0-3.014 0-3.555-.038-4.173-.039-.657-.23-.986-.65-1.082a3.245 3.245 0 00-.69-.078c-.153 0-.21-.038-.21-.116 0-.116.096-.154.306-.154.632 0 1.913.058 2.009.058.096 0 1.3-.058 1.874-.058.21 0 .306.038.306.135 0 .077-.038.116-.21.135-.21.02-.23.02-.421.039-.517.058-.669.444-.708 1.12-.038.62-.038 1.16-.038 4.174v1.237zm15.608 5.487c2.373-2.917 7.308-9.1 9.184-11.419.708-.87 1.014-1.179 1.243-1.179.192 0 .287.155.287 1.836 0 3.613 0 7.053.058 10.665.019 1.411.172 1.933.784 2.03.096.019.44.057.746.077.23.019.287.077.287.135 0 .115-.077.135-.287.135-.689 0-2.372-.058-2.678-.058-.421 0-1.033.058-1.722.058-.23 0-.287-.038-.287-.116 0-.096.038-.135.287-.154.186-.017.371-.042.555-.078.554-.116.631-.927.65-2.376.058-3.169.038-6.396.077-9.7-.995 1.256-8.992 11.265-9.795 12.154-.401.444-.612.54-.708.54-.19 0-.248-.154-.248-.927 0-3.188.057-7.536 0-11.245-.02-2.125-.23-2.26-.842-2.377-.249-.038-.46-.038-.612-.058-.153-.019-.21-.058-.21-.135 0-.135.172-.135.382-.135.593 0 1.798.058 2.104.058.613 0 1.377-.058 1.914-.058.23 0 .325.038.325.116 0 .077-.038.135-.249.154a3.228 3.228 0 00-.497.058c-.536.116-.67.329-.708 1.971l-.04 10.028zm18.421.463c-1.856-1.68-2.315-3.883-2.315-5.718 0-1.295.44-3.556 2.143-5.276 1.148-1.16 2.888-2.067 5.834-2.067a16.23 16.23 0 012.774.232c.727.135 1.32.193 2.028.29.134.02.172.097.172.213 0 .154-.057.386-.096 1.082-.038.637-.038 1.7-.057 1.99-.02.29-.057.406-.172.406-.134 0-.153-.136-.153-.406 0-.754-.306-1.546-.804-1.97-.67-.58-2.142-1.102-3.826-1.102-2.545 0-3.73.753-4.4 1.41-1.397 1.352-1.722 3.072-1.722 5.043 0 3.69 2.811 7.072 6.906 7.072 1.434 0 2.563-.175 3.328-.966.402-.425.65-1.276.708-1.623.038-.213.076-.29.191-.29.096 0 .134.135.134.29 0 .135-.23 1.816-.42 2.473-.116.367-.154.406-.498.56-.766.31-2.22.445-3.444.445-2.868 0-4.8-.715-6.311-2.087zm16.813-.308c-.172.483-.267.947-.267 1.294 0 .387.363.56.688.56h.173c.191 0 .248.04.248.117 0 .116-.172.154-.344.154-.46 0-1.224-.058-1.435-.058-.21 0-1.262.058-2.161.058-.249 0-.364-.038-.364-.154 0-.078.096-.116.268-.116.154-.004.307-.017.46-.039.879-.116 1.261-.85 1.606-1.816l4.343-12c.23-.637.306-.753.42-.753.115 0 .192.097.42.696.288.734 3.292 8.714 4.459 11.65.688 1.72 1.243 2.03 1.645 2.145.241.077.493.116.746.117.114 0 .21.019.21.116 0 .116-.172.154-.383.154-.287 0-1.683 0-3.003-.038-.364-.02-.574-.02-.574-.136 0-.077.057-.116.134-.135.114-.039.23-.212.114-.522l-3.96-10.82c-.095-.29-.19-.29-.286 0l-3.157 9.526zm13.41-5.198c0-3.13 2.257-7.555 7.537-7.555 4.304 0 7.518 2.744 7.518 7.246 0 4.328-3.022 7.903-7.633 7.903-5.242 0-7.422-4.116-7.422-7.594zm13.218.232c0-4.638-2.793-7.13-5.815-7.13-3.195 0-5.586 2.126-5.586 6.357 0 4.502 2.678 7.4 6.122 7.4 1.721 0 5.279-1.004 5.279-6.625v-.002zm7.61-1.913c0-3.014 0-3.555-.037-4.173-.039-.657-.192-.966-.824-1.102a3.526 3.526 0 00-.649-.058c-.077 0-.153-.038-.153-.116 0-.116.095-.154.306-.154.86 0 2.008.058 2.161.058.421 0 1.53-.058 2.411-.058 2.39 0 3.252.811 3.558 1.101.421.406.957 1.276.957 2.532 0 2.512-1.989 4.366-4.706 4.366a2.886 2.886 0 01-.402-.02c-.096 0-.21-.038-.21-.134 0-.155.114-.174.516-.174 1.856 0 3.309-1.276 3.309-3.304 0-.484-.057-1.778-1.07-2.821-1.014-1.043-2.181-.966-2.621-.966-.326 0-.651.038-.823.115-.115.04-.153.174-.153.368v7.941c0 1.854 0 3.381.095 4.193.058.56.173.985.747 1.062.285.041.572.067.861.078.114 0 .153.058.153.116 0 .096-.096.154-.306.154-1.053 0-2.258-.058-2.354-.058-.057 0-1.262.058-1.836.058-.21 0-.306-.038-.306-.154 0-.058.038-.116.153-.116a2.9 2.9 0 00.574-.078c.383-.078.478-.502.555-1.062.096-.812.096-2.339.096-4.193l-.002-3.401zm11.536 1.681c0-3.13 2.258-7.555 7.538-7.555 4.304 0 7.517 2.744 7.517 7.246 0 4.328-3.022 7.903-7.633 7.903-5.241 0-7.422-4.116-7.422-7.594zm13.219.232c0-4.638-2.793-7.13-5.816-7.13-3.194 0-5.585 2.126-5.585 6.357 0 4.502 2.678 7.4 6.122 7.4 1.721 0 5.279-1.004 5.279-6.625v-.002zm8.28 7.034c-1.454 0-1.99.019-2.487.057-.994.058-1.3.386-1.358 1.256-.019.174-.058.328-.173.328-.076 0-.133-.077-.133-.348-.019-1.217-.096-1.854-.115-2.144-.019-.155.019-.174.115-.174.344.058 1.013.097 1.702.097.153 0 .192-.039.306-.252l4.592-12.83c.249-.675.363-.81.478-.81.115 0 .192.135.383.618.363.908 3.405 9.004 5.012 13.061.077.155.134.213.306.213.383 0 1.626-.039 2.009-.116.115-.02.153 0 .115.154-.058.31-.23 1.294-.23 2.242 0 .193-.057.29-.134.29-.115 0-.153-.117-.172-.29-.057-.851-.421-1.257-1.244-1.315-.554-.038-1.722-.038-2.505-.038h-6.467zm4.209-.832c1.665 0 2.066-.038 2.239-.058.076-.019.114-.058.057-.174-1.091-2.86-2.468-7.013-3.884-10.762-.038-.097-.076-.097-.115-.019l-3.29 9.796c-.172.483-.344.908-.344 1.063 0 .077.057.077.115.096.325.039.899.058 2.028.058h3.194zM40.249 33.237c0 .364 0 .936.005 1.082 0 .038.013.052.041.052.208.004.416-.004.623-.023.028-.005.037 0 .028.037a2.902 2.902 0 00-.056.525c0 .065-.014.09-.033.09-.018 0-.038-.052-.042-.095-.028-.179-.075-.273-.272-.288-.14-.01-.36-.018-.809-.018h-2.076c-.074 0-.262.014-.435.014-.051 0-.089-.005-.089-.03 0-.023.014-.032.064-.041a.74.74 0 00.121-.02c.113-.032.128-.146.136-.325.01-.152.019-.209.019-.946v-.841c0-.738 0-.87-.01-1.022-.01-.151-.046-.236-.2-.269a.852.852 0 00-.16-.014c-.019 0-.038-.01-.038-.028 0-.02.024-.038.076-.038.21 0 .505.014.528.014.024 0 .32-.014.459-.014.052 0 .075.01.075.038 0 .028-.019.028-.037.028a.671.671 0 00-.118.014c-.127.024-.164.104-.173.27-.01.15-.01.283-.01 1.02v.752c0 .386.006 1.012.02 1.163.004.052.014.057.046.061.156.012.313.015.469.01h.612c.558 0 .745-.004.83-.014.014 0 .019-.01.019-.028V32.41c0-.738 0-.87-.01-1.022-.01-.151-.047-.236-.201-.269a.847.847 0 00-.16-.014c-.018 0-.037-.01-.037-.028 0-.02.024-.038.075-.038.21 0 .505.014.53.014.023 0 .318-.014.458-.014.051 0 .074.01.074.038 0 .028-.018.028-.037.028a.671.671 0 00-.117.014c-.128.024-.164.104-.173.27-.01.15-.01.283-.01 1.02l-.005.828zm5.414-.827c0-.738 0-.87-.01-1.022-.01-.151-.047-.236-.201-.269a1.015 1.015 0 00-.136-.014c-.033-.005-.064-.01-.064-.028 0-.02.024-.038.075-.038.108 0 .234 0 .53.014.032 0 .963 0 1.07-.005a.763.763 0 00.216-.028.11.11 0 01.052-.019c.014 0 .018.019.018.043a2.105 2.105 0 00-.037.221l-.019.284c-.004.047-.019.08-.037.08-.029 0-.038-.023-.038-.064a.48.48 0 00-.023-.155c-.033-.11-.131-.156-.337-.175-.08-.01-.59-.015-.638-.015-.019 0-.028.015-.028.048v1.304c0 .034.004.048.028.048.06 0 .637 0 .744-.01.128-.009.187-.024.234-.08.023-.029.038-.047.056-.047.019 0 .023.01.023.038 0 .028-.023.108-.037.264-.014.147-.014.258-.019.323-.004.047-.014.07-.032.07-.028 0-.033-.038-.033-.076a.45.45 0 00-.019-.132c-.019-.07-.075-.137-.243-.156a12.045 12.045 0 00-.683-.022.029.029 0 00-.018.018.03.03 0 00-.001.013v.417c0 .16-.005.709 0 .808.01.193.037.298.154.345.08.033.206.043.389.043.141.005.283-.01.421-.043.15-.047.2-.147.238-.35.01-.052.019-.07.043-.07.023 0 .028.038.028.07 0 .033-.038.36-.06.458-.034.123-.071.123-.256.123-.346 0-.5-.009-.683-.013-.182-.005-.402-.014-.585-.014-.113 0-.225.018-.346.014-.052 0-.075-.01-.075-.039 0-.013.023-.023.051-.028a.552.552 0 00.107-.014c.1-.023.16-.09.17-.444.004-.184.009-.426.009-.846l.002-.83zm8.849.127c.014 0 .028-.004.028-.029v-.098c0-.738 0-.87-.01-1.022-.01-.151-.046-.236-.2-.269a.853.853 0 00-.16-.014c-.018 0-.037-.01-.037-.028 0-.02.023-.038.075-.038.21 0 .505.014.528.014.024 0 .32-.014.459-.014.052 0 .075.01.075.038 0 .028-.018.028-.038.028a.666.666 0 00-.116.014c-.128.024-.164.104-.174.27-.01.15-.01.283-.01 1.02v.833c0 .451 0 .827.024 1.026.014.137.042.24.183.257.064.01.168.019.21.019.029 0 .038.014.038.028 0 .024-.024.038-.075.038-.255 0-.552-.014-.574-.014-.021 0-.319.014-.458.014-.052 0-.075-.01-.075-.038 0-.014.01-.028.037-.028a.744.744 0 00.14-.019c.094-.02.118-.123.136-.257.024-.2.024-.572.024-1.026v-.496c0-.004 0-.008-.002-.012a.028.028 0 00-.015-.016.028.028 0 00-.011 0h-1.987a.024.024 0 00-.021.006.023.023 0 00-.006.01.024.024 0 000 .011v.497c0 .451 0 .827.023 1.026.014.137.042.24.182.257.064.01.169.019.21.019.029 0 .038.014.038.028 0 .024-.023.038-.075.038-.255 0-.552-.014-.574-.014-.022 0-.319.014-.459.014-.051 0-.075-.01-.075-.038 0-.014.01-.028.038-.028a.745.745 0 00.14-.019c.094-.02.118-.123.136-.257.024-.2.024-.572.024-1.026v-.832c0-.738 0-.87-.01-1.022-.01-.151-.047-.236-.2-.269a.853.853 0 00-.16-.014c-.02 0-.038-.01-.038-.028 0-.02.024-.038.075-.038.21 0 .506.014.53.014.023 0 .318-.014.458-.014.051 0 .074.01.074.038 0 .028-.018.028-.037.028a.671.671 0 00-.117.014c-.128.024-.164.104-.173.27-.01.15-.01.283-.01 1.02v.1c0 .024.014.028.029.028h1.983zm6.678.705c0 .45 0 .827.023 1.026.014.137.042.24.183.257.063.01.169.019.21.019.029 0 .038.014.038.028 0 .024-.023.038-.075.038-.255 0-.552-.014-.574-.014-.022 0-.319.014-.458.014-.051 0-.075-.01-.075-.038 0-.014.009-.028.037-.028a.753.753 0 00.14-.019c.094-.02.118-.123.136-.258.024-.199.024-.572.024-1.025v-2c-.23.005-.464.005-.693.01-.29.004-.402.037-.478.15a.821.821 0 00-.079.147c-.014.038-.028.047-.047.047s-.023-.014-.023-.042c0-.047.093-.454.103-.492.01-.037.028-.09.046-.09.034 0 .08.048.206.057.136.015.314.024.37.024h1.752c.11.003.222-.006.332-.024.07-.01.112-.023.131-.023.02 0 .023.028.023.056 0 .142-.014.468-.014.52 0 .043-.014.065-.032.065-.019 0-.033-.015-.038-.081 0-.02-.005-.033-.005-.052-.014-.142-.127-.25-.574-.258-.196-.005-.392-.005-.589-.01v1.996zm5.931-.832c0-.738 0-.87-.01-1.022-.009-.151-.046-.236-.2-.269a.855.855 0 00-.159-.014c-.02 0-.038-.01-.038-.028 0-.02.024-.038.075-.038.211 0 .492.014.53.014.102 0 .373-.014.589-.014.585 0 .796.199.87.27a.86.86 0 01.234.618c0 .615-.487 1.07-1.151 1.07a.793.793 0 01-.098-.006c-.024 0-.052-.01-.052-.033 0-.038.028-.042.128-.042.454 0 .81-.312.81-.809a.98.98 0 00-.263-.69.812.812 0 00-.641-.236.577.577 0 00-.2.028c-.029.01-.039.043-.039.09v1.943c0 .451 0 .827.024 1.026.014.137.042.24.182.257.064.01.169.019.21.019.029 0 .038.014.038.028 0 .024-.023.038-.075.038-.255 0-.552-.014-.574-.014-.021 0-.308.014-.45.014-.05 0-.074-.01-.074-.038 0-.014.009-.028.038-.028a.755.755 0 00.14-.019c.093-.02.117-.123.136-.257.023-.2.023-.572.023-1.026l-.003-.832zm14.413.127c.014 0 .028-.004.028-.029v-.098c0-.738 0-.87-.01-1.022-.009-.151-.046-.236-.2-.269a.852.852 0 00-.16-.014c-.018 0-.037-.01-.037-.028 0-.02.023-.038.075-.038.21 0 .505.014.529.014.023 0 .319-.014.458-.014.052 0 .076.01.076.038 0 .028-.019.028-.038.028a.663.663 0 00-.117.014c-.127.024-.164.104-.173.27-.01.15-.01.283-.01 1.02v.833c0 .451 0 .827.024 1.026.014.137.042.24.182.257.064.01.17.019.211.019.028 0 .037.014.037.028 0 .024-.023.038-.074.038-.255 0-.553-.014-.574-.014-.022 0-.32.014-.459.014-.052 0-.075-.01-.075-.038 0-.014.01-.028.037-.028a.761.761 0 00.141-.019c.094-.02.117-.123.136-.257.023-.2.023-.572.023-1.026v-.496c0-.004 0-.008-.002-.012a.028.028 0 00-.015-.016.027.027 0 00-.01 0h-1.985c-.004-.002-.008-.001-.011 0a.024.024 0 00-.016.016.025.025 0 000 .011v.497c0 .451 0 .827.023 1.026.014.137.042.24.182.257.064.01.168.019.21.019.03 0 .038.014.038.028 0 .024-.023.038-.075.038-.255 0-.552-.014-.573-.014-.022 0-.32.014-.459.014-.052 0-.075-.01-.075-.038 0-.014.01-.028.037-.028a.745.745 0 00.14-.019c.094-.02.118-.123.137-.257.023-.2.023-.572.023-1.026v-.832c0-.738 0-.87-.01-1.022-.009-.151-.046-.236-.2-.269a.853.853 0 00-.16-.014c-.019 0-.037-.01-.037-.028 0-.02.023-.038.075-.038.21 0 .505.014.529.014.023 0 .318-.014.458-.014.052 0 .075.01.075.038 0 .028-.019.028-.037.028a.671.671 0 00-.118.014c-.127.024-.163.104-.172.27-.01.15-.01.283-.01 1.02v.1c0 .024.014.028.028.028h1.98zm5.776-.127c0-.738 0-.87-.008-1.022-.01-.151-.047-.236-.202-.269a1.015 1.015 0 00-.135-.014c-.033-.005-.061-.01-.061-.028 0-.02.023-.038.075-.038.107 0 .234 0 .529.014.032 0 .963 0 1.071-.005a.763.763 0 00.216-.028.11.11 0 01.051-.019c.014 0 .019.019.019.043a2.08 2.08 0 00-.038.221c-.004.071-.009.161-.018.284-.005.047-.02.08-.038.08-.028 0-.037-.023-.037-.064a.476.476 0 00-.023-.155c-.034-.11-.132-.156-.338-.175-.079-.01-.59-.015-.638-.015-.019 0-.028.015-.028.048v1.304c0 .034.005.048.029.048.06 0 .637 0 .744-.01.127-.009.187-.024.234-.08.023-.029.037-.047.056-.047.018 0 .023.01.023.038 0 .028-.023.108-.037.264-.014.147-.014.258-.02.323-.004.047-.013.07-.032.07-.018 0-.032-.038-.032-.076a.431.431 0 00-.02-.132c-.018-.07-.074-.137-.242-.156a12.045 12.045 0 00-.683-.022.029.029 0 00-.018.018c-.002.005-.002.009-.002.013v.417c0 .16-.004.709 0 .808.01.193.037.298.155.345.08.033.206.043.388.043.142.005.284-.01.422-.043.15-.047.2-.147.238-.35.01-.052.019-.07.042-.07.024 0 .028.038.028.07 0 .033-.037.36-.063.458-.034.123-.07.123-.255.123-.347 0-.501-.009-.684-.013-.182-.005-.402-.014-.585-.014-.112 0-.225.018-.346.014-.051 0-.075-.01-.075-.039 0-.013.024-.023.052-.028a.553.553 0 00.107-.014c.099-.023.16-.09.169-.444.004-.184.009-.426.009-.846l.002-.83zm6.936 2.189a7.47 7.47 0 00-.608.014c-.244.013-.32.094-.333.307-.005.042-.014.08-.042.08-.028 0-.033-.019-.033-.085-.004-.298-.023-.451-.028-.524-.004-.038.005-.043.028-.043.138.017.278.025.417.023.037 0 .047-.01.075-.064l1.123-3.139c.064-.165.09-.199.117-.199.028 0 .047.034.094.152.088.222.833 2.202 1.226 3.195.019.038.033.052.075.052.164 0 .328-.01.49-.028.029-.005.039 0 .029.038-.034.18-.053.364-.056.548 0 .047-.014.07-.033.07-.018 0-.037-.028-.042-.07-.014-.208-.102-.307-.304-.322-.136-.01-.422-.01-.613-.01l-1.582.005zm1.03-.204c.182.005.365 0 .547-.014.02-.005.028-.014.014-.043-.267-.7-.603-1.715-.95-2.633-.009-.024-.019-.024-.028-.004l-.805 2.396c-.036.084-.064.17-.084.258 0 .019.014.019.028.024.165.013.33.018.496.014l.782.002zm6.055-1.985c0-.738 0-.87-.01-1.022-.01-.151-.047-.236-.201-.269a.804.804 0 00-.136-.014c-.042 0-.063-.01-.063-.028 0-.02.023-.038.074-.038.211 0 .506.014.529.014.113 0 .295-.014.511-.014.765 0 .935.472.935.708 0 .387-.22.62-.44.851.346.109.81.444.81.997 0 .506-.393 1.03-1.193 1.03-.052 0-.202-.008-.337-.013-.136-.004-.267-.014-.286-.014-.149 0-.295.014-.459.014-.051 0-.074-.01-.074-.033 0-.014.009-.033.07-.033a.476.476 0 00.112-.014c.094-.02.112-.13.131-.265.023-.2.023-.572.023-1.026l.004-.831zm.374.104c0 .032.01.042.033.052.094.014.19.02.285.018.262 0 .328-.01.426-.123a.733.733 0 00.169-.477c0-.392-.173-.813-.632-.813-.075 0-.151.008-.225.024-.041.01-.056.023-.056.052v1.267zm0 .5c0 .365 0 .95.005 1.022.014.232.014.298.159.369.131.05.271.074.412.07.255 0 .66-.137.66-.671 0-.284-.094-.695-.454-.945a.768.768 0 00-.389-.137c-.063-.01-.295-.01-.365-.01-.018 0-.028.01-.028.033v.27zm6.8 1.04c.58-.713 1.785-2.226 2.246-2.793.174-.213.248-.289.304-.289.057 0 .071.038.071.451 0 .884 0 1.726.014 2.61.005.345.042.472.191.497.024.004.108.014.182.018.056.005.071.019.071.033 0 .028-.019.034-.071.034-.168 0-.58-.015-.655-.015-.103 0-.255.015-.421.015-.056 0-.07-.01-.07-.03 0-.019.009-.032.07-.037.042-.004.094-.01.136-.018.136-.03.154-.228.159-.58.014-.773.009-1.565.019-2.373-.244.307-2.2 2.756-2.397 2.973-.098.11-.149.132-.173.132-.046 0-.06-.038-.06-.226 0-.78.014-1.844 0-2.752-.005-.52-.057-.553-.206-.58-.064-.009-.113-.009-.15-.013-.037-.005-.052-.015-.052-.033 0-.034.042-.034.094-.034.145 0 .44.015.515.015.149 0 .337-.015.468-.015.056 0 .079.01.079.029 0 .018-.009.032-.063.038a.733.733 0 00-.122.014c-.131.028-.163.08-.173.482l-.006 2.447zm9.659-1.337c.163-.146.79-.794 1.072-1.095.281-.3.322-.382.322-.434 0-.038-.018-.065-.107-.085-.047-.01-.064-.02-.064-.039 0-.018.023-.028.064-.028.117 0 .229.015.393.015.145 0 .388-.015.468-.015.064 0 .079.01.079.034 0 .023-.023.027-.084.037a.842.842 0 00-.215.052c-.131.047-.23.104-.51.387-.36.364-.974.974-1.091 1.101.173.199 1.025 1.16 1.311 1.428.314.293.482.406.655.444a.882.882 0 00.178.02c.042 0 .064.008.064.032 0 .023-.029.038-.08.038h-.351c-.426 0-.543-.08-.814-.355-.356-.364-.796-.898-1.176-1.347-.041-.052-.083-.09-.116-.132v.464c0 .45 0 .826.023 1.025.014.137.042.245.183.265.062.008.124.013.187.014.042 0 .064.014.064.028 0 .024-.019.038-.07.038-.255 0-.548-.014-.574-.014-.026 0-.319.014-.459.014-.051 0-.064-.01-.064-.038 0-.014.023-.028.052-.028a.514.514 0 00.121-.014c.094-.02.128-.095.141-.265.014-.2.023-.572.023-1.026v-.463a1.6 1.6 0 01-.098.123c-.319.378-.819.974-1.194 1.342-.271.27-.382.37-.8.37h-.363c-.042 0-.07-.01-.07-.034s.018-.038.07-.038c.05-.002.1-.006.15-.014.178-.024.388-.147.749-.501.29-.289.898-.946 1.254-1.348-.112-.132-.969-.988-1.105-1.13-.28-.274-.382-.345-.519-.392a1.01 1.01 0 00-.201-.047c-.064-.01-.09-.019-.09-.038 0-.018.02-.033.085-.033.079 0 .323.015.463.015.164 0 .281-.015.403-.015.042 0 .056.01.056.028 0 .019-.014.029-.064.038-.094.02-.112.047-.112.085 0 .052.042.142.332.445.29.302.842.865 1.053 1.083v-.308c0-.738 0-.87-.01-1.021-.009-.152-.056-.241-.158-.264a.584.584 0 00-.146-.02c-.018 0-.037-.01-.037-.028 0-.019.023-.038.075-.038.154 0 .44.015.463.015.024 0 .309-.015.447-.015.052 0 .074.01.074.038 0 .028-.018.028-.037.028a.667.667 0 00-.117.014c-.127.024-.164.104-.173.27-.009.151-.009.283-.009 1.021l.004.311zm7.06 1.337c.581-.713 1.786-2.226 2.247-2.793.173-.213.248-.289.304-.289.056 0 .07.038.07.451 0 .884 0 1.726.014 2.61.006.345.042.472.192.497.023.004.108.014.182.018.056.005.07.019.07.033 0 .028-.018.034-.07.034-.168 0-.58-.015-.655-.015-.103 0-.255.015-.421.015-.056 0-.071-.01-.071-.03 0-.019.01-.032.071-.037a1.56 1.56 0 00.135-.018c.136-.03.155-.228.16-.58.014-.773.009-1.565.018-2.373-.243.307-2.199 2.756-2.396 2.973-.098.11-.149.132-.173.132-.047 0-.064-.038-.064-.226 0-.78.014-1.844 0-2.752-.005-.52-.057-.553-.206-.58-.064-.009-.113-.009-.15-.013-.037-.005-.051-.015-.051-.033 0-.034.042-.034.093-.034.145 0 .44.015.515.015.15 0 .337-.015.468-.015.056 0 .08.01.08.029 0 .018-.01.032-.064.038a.721.721 0 00-.121.014c-.131.028-.164.08-.174.482l-.003 2.447zm11.391-.051c.02.17.052.435.256.5.093.03.191.045.29.043.023 0 .051.005.051.028s-.014.039-.07.039c-.102 0-.638-.014-.81-.03-.108-.009-.127-.022-.127-.046s.009-.024.032-.034c.033-.013.028-.084.019-.17l-.225-2.467-1.16 2.486c-.099.209-.113.251-.155.251-.032 0-.056-.048-.145-.218-.121-.23-.524-1.049-.547-1.095a80.629 80.629 0 01-.632-1.38l-.192 2.227c-.004.076-.009.142-.009.222 0 .118.057.156.128.17.055.014.112.02.168.02.028 0 .047.008.047.023 0 .033-.023.043-.07.043-.173 0-.412-.015-.447-.015-.034 0-.266.015-.393.015-.047 0-.08-.005-.08-.039 0-.019.024-.028.047-.028a.603.603 0 00.141-.014c.154-.029.164-.198.186-.392l.338-3.073c.005-.052.023-.095.051-.095.029 0 .047.02.071.072l1.432 2.973 1.376-2.969c.019-.042.037-.076.07-.076.034 0 .047.038.056.129l.303 2.9zm4.641-1.18c0-.766.553-1.849 1.845-1.849 1.053 0 1.839.672 1.839 1.773 0 1.059-.74 1.933-1.867 1.933-1.283-.002-1.817-1.008-1.817-1.857zm3.235.056c0-1.134-.684-1.744-1.423-1.744-.782 0-1.367.52-1.367 1.555 0 1.102.656 1.81 1.498 1.81.421-.002 1.292-.247 1.292-1.623v.002zm5.404 1.289c-.454-.411-.566-.95-.566-1.4.006-.48.193-.941.524-1.288.281-.282.707-.505 1.427-.505.228 0 .455.019.68.056.178.034.322.048.496.071a.04.04 0 01.018.005c.005.003.01.007.014.012s.007.01.008.017a.04.04 0 01.001.019c0 .038-.013.094-.023.264-.009.157-.009.416-.014.487-.004.071-.014.1-.042.1-.028 0-.038-.033-.038-.1a.67.67 0 00-.196-.482c-.164-.142-.524-.27-.936-.27-.623 0-.913.185-1.077.346-.341.33-.421.752-.421 1.234 0 .902.688 1.73 1.69 1.73.351 0 .627-.042.814-.236.098-.105.16-.313.173-.398.01-.051.019-.07.047-.07s.033.032.033.07a4.952 4.952 0 01-.103.605c-.029.09-.038.1-.122.137-.187.076-.543.11-.842.11-.702-.004-1.176-.179-1.545-.514zm8.654-.926c0 .45 0 .827.022 1.026.015.137.043.24.183.257.064.01.169.019.211.019.028 0 .038.014.038.028 0 .024-.024.038-.076.038-.255 0-.552-.014-.574-.014-.021 0-.319.014-.458.014-.052 0-.075-.01-.075-.038 0-.014.009-.028.037-.028a.766.766 0 00.141-.019c.093-.02.116-.123.135-.258.024-.199.024-.572.024-1.025v-2c-.23.005-.464.005-.693.01-.29.004-.403.037-.477.15a.826.826 0 00-.08.147c-.014.038-.028.047-.047.047-.018 0-.023-.014-.023-.042 0-.047.094-.454.102-.492.009-.037.029-.09.048-.09.032 0 .079.048.206.057.136.015.313.024.369.024h1.755c.111.003.222-.006.332-.024.07-.01.113-.023.132-.023.018 0 .023.028.023.056 0 .142-.014.468-.014.52 0 .043-.014.065-.033.065-.018 0-.033-.015-.038-.081 0-.02-.004-.033-.004-.052-.014-.142-.128-.25-.574-.258-.196-.005-.393-.005-.589-.01l-.003 1.996zm6.204.812c.58-.713 1.786-2.226 2.247-2.793.173-.213.248-.289.304-.289.047 0 .07.038.07.451 0 .884 0 1.726.014 2.61.005.345.042.472.192.497.024.004.108.014.183.018.056.005.07.019.07.033 0 .028-.019.034-.07.034-.169 0-.581-.015-.655-.015-.104 0-.255.015-.422.015-.056 0-.07-.01-.07-.03 0-.019.009-.032.07-.037a1.51 1.51 0 00.135-.018c.136-.03.155-.228.16-.58.014-.773.009-1.565.019-2.373-.244.307-2.2 2.756-2.397 2.973-.098.11-.15.132-.173.132-.047 0-.063-.038-.063-.226 0-.78.014-1.844 0-2.752-.005-.52-.056-.553-.206-.58-.063-.009-.113-.009-.15-.013-.038-.005-.051-.015-.051-.033 0-.034.042-.034.093-.034.145 0 .44.015.515.015.149 0 .337-.015.468-.015.056 0 .08.01.08.029 0 .018-.01.032-.064.038a.746.746 0 00-.122.014c-.127.028-.163.08-.172.482l-.005 2.447z"/><path d="M144.67 22.922c-5.438 0-9.863-4.468-9.863-9.96 0-5.493 4.424-9.962 9.863-9.962 5.439 0 9.862 4.468 9.862 9.961s-4.426 9.961-9.862 9.961zm0-19.774c-5.357 0-9.718 4.403-9.718 9.815 0 5.413 4.361 9.812 9.718 9.812s9.718-4.403 9.718-9.815-4.361-9.814-9.718-9.814v.002z"/><path d="M141.459 24.523a6.607 6.607 0 01-3.696-1.134 6.708 6.708 0 01-2.449-3.016 6.784 6.784 0 01-.378-3.882 6.739 6.739 0 011.822-3.44 6.631 6.631 0 013.406-1.838 6.593 6.593 0 013.844.383 6.67 6.67 0 012.985 2.475 6.767 6.767 0 01-.831 8.482 6.626 6.626 0 01-4.703 1.97zm0-13.292a6.456 6.456 0 00-3.613 1.107 6.552 6.552 0 00-2.396 2.948 6.624 6.624 0 001.408 7.16 6.49 6.49 0 003.33 1.798 6.444 6.444 0 003.758-.372 6.517 6.517 0 002.92-2.419 6.616 6.616 0 00-.809-8.294 6.485 6.485 0 00-4.598-1.928z"/><path d="M145.818 21.62a7.004 7.004 0 01-3.918-1.2 7.112 7.112 0 01-2.597-3.195 7.186 7.186 0 01-.401-4.115 7.137 7.137 0 011.93-3.646 7.027 7.027 0 013.61-1.95 6.987 6.987 0 014.074.406 7.07 7.07 0 013.164 2.623 7.171 7.171 0 01-.879 8.99 7.025 7.025 0 01-4.983 2.088zm0-14.095a6.858 6.858 0 00-3.837 1.175 6.96 6.96 0 00-2.544 3.13 7.033 7.033 0 001.497 7.602 6.881 6.881 0 003.536 1.91 6.842 6.842 0 003.99-.398 6.92 6.92 0 003.099-2.569 7.024 7.024 0 00-.86-8.805 6.88 6.88 0 00-4.881-2.045z"/></g><defs><clipPath id="clip0_1_590"><path fill="#fff" transform="translate(36 3)" d="M0 0h132v32H0z"/></clipPath></defs></svg>