<svg width="205" height="40" fill="none" xmlns="http://www.w3.org/2000/svg"><mask id="mask0_1_623" style="mask-type:alpha" maskUnits="userSpaceOnUse" x="0" y="0" width="205" height="40"><path fill="#C4C4C4" d="M0 0h205v40H0z"/></mask><g clip-path="url(#clip0_1_623)"><path d="M41.956 30.01v-8.896l-8.045-4.537-7.907 4.537-.069 8.98m-7.149 3.946l-2.491 1.375V15.477L33.91 5.439l17.616 10.038v19.938l-2.358-1.332-30.383-.043zm0 0V16.99l15.125-8.664 15.258 8.663v17.094l-30.383-.043zm0 0l2.364-1.305-2.364 1.305zm30.383.043l-2.497-1.41 2.497 1.41zm-2.497-1.41V18.364l-12.761-7.288-12.761 7.288v14.371l25.522-.062zm0 0l-2.358-1.332 2.358 1.332zm-25.522.062l2.219-1.225-2.22 1.225zm2.219-1.225V19.877l10.542-6.05 10.403 6.05v11.464l-20.945.17zm0 0l2.566-1.416-2.566 1.416zm20.945-.169l-2.358-1.332 2.358 1.332zm-2.358-1.332l-2.358-1.332V22.49l-5.687-3.3-5.41 3.3v6.187l-2.566 1.417 16.021-.085z" stroke="#989898"/><path d="M64.212 16.85h-2.617L61 18.454h-.51l2.18-5.718h.464l2.181 5.718h-.507l-.597-1.602zm-2.467-.412h2.312l-1.156-3.114-1.156 3.114zm9.754.232c-.066.602-.284 1.063-.653 1.382-.367.32-.857.48-1.47.48-.427 0-.806-.107-1.135-.319a2.084 2.084 0 01-.76-.899 3.2 3.2 0 01-.274-1.335v-.742c0-.508.09-.958.27-1.351a2.05 2.05 0 01.772-.907 2.122 2.122 0 011.163-.322c.618 0 1.105.166 1.461.498.36.33.568.787.626 1.371h-.491c-.122-.971-.653-1.457-1.596-1.457-.522 0-.94.194-1.25.581-.31.388-.464.923-.464 1.606v.7c0 .66.15 1.185.452 1.578.303.393.712.59 1.227.59.51 0 .893-.121 1.152-.362.258-.244.418-.608.479-1.092h.49zm6.562 0c-.066.602-.284 1.063-.653 1.382-.367.32-.856.48-1.469.48-.427 0-.806-.107-1.136-.319a2.084 2.084 0 01-.76-.899c-.18-.39-.27-.835-.273-1.335v-.742c0-.508.09-.958.269-1.351a2.05 2.05 0 01.772-.907 2.122 2.122 0 011.164-.322c.618 0 1.104.166 1.46.498.36.33.568.787.626 1.371h-.49c-.122-.971-.654-1.457-1.596-1.457-.523 0-.94.194-1.251.581-.309.388-.463.923-.463 1.606v.7c0 .66.15 1.185.451 1.578.303.393.713.59 1.227.59.51 0 .894-.121 1.152-.362.259-.244.419-.608.48-1.092h.49zm6.741-.766c0 .527-.092.989-.277 1.387a2.076 2.076 0 01-.784.918 2.16 2.16 0 01-1.18.323c-.672 0-1.216-.239-1.63-.715-.415-.48-.622-1.125-.622-1.936v-.59c0-.52.092-.981.277-1.382.188-.403.451-.712.792-.926a2.13 2.13 0 011.176-.326c.443 0 .834.106 1.171.318.341.212.604.512.788.9.185.387.281.835.29 1.346v.683zm-.487-.62c0-.689-.157-1.228-.47-1.618-.315-.39-.745-.585-1.291-.585-.536 0-.964.196-1.283.589-.317.39-.475.936-.475 1.637v.597c0 .678.158 1.216.475 1.614.317.396.747.593 1.29.593.552 0 .982-.195 1.291-.585.31-.392.463-.938.463-1.637v-.605zm2.992-2.549h.49v5.31h3.263v-5.31h.487v5.302h.566l-.036 1.794h-.451v-1.378h-4.32v-5.718zm10.893 0h.487v5.718H98.2V13.56l-3.282 4.893h-.491v-5.718h.49v4.89l3.283-4.89zm6.448 4.115h-2.617l-.593 1.603h-.511l2.181-5.718h.463l2.182 5.718h-.507l-.598-1.602zm-2.466-.412h2.312l-1.156-3.114-1.156 3.114zm5.699-3.703h.491v5.31h3.262v-5.31h.487v5.302h.566l-.035 1.794h-.452v-1.378h-4.319v-5.718zm10.893 0h.487v5.718h-.487V13.56l-3.281 4.893h-.492v-5.718h.492v4.89l3.281-4.89zm6.346 5.718v-2.329h-1.659l-1.259 2.329h-.527l1.358-2.462c-.372-.129-.656-.322-.851-.582-.195-.259-.293-.576-.293-.95 0-.54.172-.96.515-1.264.346-.307.831-.46 1.457-.46h1.75v5.718h-.491zm-2.744-3.998c0 .377.119.68.356.911.241.23.57.346.99.346h1.398v-2.564h-1.275c-.47 0-.833.113-1.089.341-.253.225-.38.547-.38.966zm9.502 2.215c.066.5.23.868.491 1.104.261.233.641.35 1.14.35.52 0 .931-.2 1.231-.598.301-.398.452-.93.452-1.598v-.142h-2.407v-.412h2.407v-.141c0-.663-.155-1.189-.464-1.579-.308-.39-.725-.585-1.25-.585-.945 0-1.478.486-1.6 1.457h-.487c.058-.592.268-1.051.63-1.378.361-.328.847-.491 1.457-.491.662 0 1.194.235 1.595.707.404.468.606 1.104.606 1.908v.683c0 .508-.091.96-.273 1.355a2.07 2.07 0 01-.765.907c-.327.21-.704.315-1.132.315-.617 0-1.11-.162-1.476-.483-.367-.322-.581-.782-.642-1.379h.487zm7.632-.9h-.792v2.683h-.487v-5.718h.487v2.623h.768l2.229-2.623h.613l-2.367 2.812 2.542 2.906h-.606l-2.387-2.682zm9.132.9c-.066.602-.284 1.063-.653 1.382-.367.32-.857.48-1.469.48a2.05 2.05 0 01-1.136-.319 2.085 2.085 0 01-.761-.899 3.215 3.215 0 01-.273-1.335v-.742c0-.508.09-.958.27-1.351a2.04 2.04 0 01.772-.907 2.118 2.118 0 011.163-.322c.618 0 1.105.166 1.461.498.359.33.568.787.626 1.371h-.491c-.122-.971-.653-1.457-1.596-1.457-.522 0-.939.194-1.251.581-.308.388-.463.923-.463 1.606v.7c0 .66.151 1.185.451 1.578.304.393.713.59 1.228.59.509 0 .893-.121 1.152-.362.258-.244.418-.608.479-1.092h.491zm6.737 1.783h-.487v-5.305h-3.262v5.305h-.487v-5.718h4.236v5.718zm5.964-2.741h-2.696v2.332h3.1v.409h-3.587v-5.718h3.567v.413h-3.08v2.155h2.696v.409zm3.217.412v2.329h-.486v-5.718h1.964c.598 0 1.07.152 1.416.456.348.303.524.72.524 1.252 0 .537-.169.952-.505 1.245-.331.29-.815.436-1.447.436h-1.466zm0-.408h1.478c.471 0 .831-.112 1.08-.334.248-.223.372-.533.372-.93 0-.396-.124-.71-.372-.943-.246-.236-.595-.356-1.049-.361h-1.509v2.568zm9.719-2.568h-1.976v5.305h-.486v-5.305h-1.973v-.413h4.435v.413zm6.379 2.756c0 .527-.091.989-.277 1.387a2.068 2.068 0 01-.782.918 2.17 2.17 0 01-1.181.323c-.672 0-1.216-.239-1.631-.715-.414-.48-.622-1.125-.622-1.936v-.59c0-.52.093-.981.277-1.382a2.12 2.12 0 01.792-.926 2.14 2.14 0 011.176-.326c.444 0 .835.106 1.172.318.341.212.603.512.788.9.185.387.281.835.288 1.346v.683zm-.486-.62c0-.689-.158-1.228-.472-1.618-.314-.39-.743-.585-1.29-.585-.536 0-.964.196-1.282.589-.317.39-.475.936-.475 1.637v.597c0 .678.158 1.216.475 1.614.317.396.746.593 1.29.593.551 0 .982-.195 1.291-.585.308-.392.463-.938.463-1.637v-.605zm3.011 3.169v-5.718h1.703c.617 0 1.085.127 1.405.381.32.251.479.623.479 1.115 0 .296-.083.554-.246.774a1.32 1.32 0 01-.665.467c.336.074.604.237.808.491.206.254.309.547.309.88 0 .505-.165.9-.495 1.186-.327.282-.784.424-1.37.424h-1.928zm.487-2.75v2.341h1.461c.417 0 .747-.104.989-.314.246-.212.368-.505.368-.88 0-.353-.116-.632-.352-.836-.232-.207-.554-.31-.966-.31h-1.5zm0-.404h1.329c.407-.007.721-.102.944-.282.224-.184.336-.45.336-.797 0-.367-.117-.637-.348-.81-.23-.175-.578-.262-1.045-.262h-1.216v2.151zM65.371 28.104h-.49v-2.741h-3.294v2.74H61.1v-5.717h.487v2.568h3.293v-2.568h.491v5.718zm5.949-2.741h-2.695v2.332h3.1v.409h-3.587v-5.718h3.567v.412h-3.08v2.156h2.696v.409zm6.994 2.332h.614l-.004 1.795h-.487v-1.386H74.09v1.386h-.487v-1.795h.384c.293-.303.53-.746.709-1.327a7.826 7.826 0 00.328-1.916l.103-2.066h3.187v5.31zm-3.76 0h3.273v-4.897h-2.233l-.079 1.638a8.088 8.088 0 01-.305 1.881c-.166.573-.385 1.033-.657 1.378zm6.662.409v-5.718h1.702c.617 0 1.086.127 1.405.38.32.252.48.624.48 1.116a1.266 1.266 0 01-.911 1.241c.335.073.604.237.807.491.206.254.31.547.31.88 0 .505-.166.9-.496 1.186-.327.282-.784.424-1.37.424h-1.927zm.486-2.75v2.341h1.461c.417 0 .747-.104.99-.314.245-.212.368-.505.368-.88 0-.353-.117-.632-.352-.836-.232-.207-.554-.31-.966-.31h-1.5zm0-.404h1.33c.407-.008.721-.102.943-.282.224-.184.336-.45.336-.797 0-.367-.116-.637-.348-.81-.23-.175-.578-.263-1.045-.263h-1.216v2.152zm9.571-2.564h.487v5.718h-.487V23.21l-3.281 4.893H87.5v-5.718h.49v4.89l3.282-4.89zm7.077 2.996h-.649v2.722h-.487v-2.722h-.67l-1.955 2.722h-.617l2.134-2.953-1.992-2.765h.59l1.813 2.584h.697v-2.584h.487v2.584h.68l1.814-2.584h.586l-1.991 2.76 2.137 2.958h-.613l-1.964-2.722zm8.479-2.996h.487v5.718h-.487V23.21l-3.282 4.893h-.491v-5.718h.491v4.89l3.282-4.89zm3.91 0l2.126 5.046 2.134-5.046h.649v5.718h-.487v-2.49l.04-2.552-2.146 5.042h-.376l-2.138-5.023.04 2.517v2.506h-.487v-5.718h.645zm11.927 3.169c0 .526-.092.988-.277 1.386a2.072 2.072 0 01-.784.92 2.17 2.17 0 01-1.18.321c-.673 0-1.216-.238-1.631-.715-.414-.479-.621-1.124-.621-1.935v-.59c0-.52.092-.981.277-1.382.187-.403.451-.712.792-.927.34-.217.732-.326 1.176-.326.443 0 .833.106 1.171.319.341.212.603.511.788.899.185.387.281.836.289 1.347v.683zm-.487-.62c0-.689-.157-1.228-.471-1.618-.314-.39-.744-.585-1.29-.585-.536 0-.964.196-1.283.589-.317.39-.475.936-.475 1.637v.597c0 .678.158 1.216.475 1.614.317.395.747.593 1.29.593.552 0 .982-.195 1.291-.585.309-.393.463-.939.463-1.638v-.604zm7.094 1.385c-.066.603-.284 1.064-.654 1.383-.367.32-.856.48-1.468.48-.428 0-.807-.107-1.137-.319a2.09 2.09 0 01-.76-.9 3.215 3.215 0 01-.273-1.334v-.743c0-.508.09-.958.269-1.35a2.06 2.06 0 01.772-.908 2.124 2.124 0 011.164-.322c.618 0 1.105.167 1.461.5.359.329.567.786.626 1.37h-.491c-.122-.972-.654-1.457-1.596-1.457-.522 0-.939.194-1.251.581-.309.388-.463.923-.463 1.606v.7c0 .659.15 1.185.451 1.578.304.392.713.589 1.228.589.509 0 .893-.12 1.152-.362.258-.243.418-.607.479-1.091h.491zm6.273-3.522h-1.976v5.306h-.487v-5.306h-1.971v-.412h4.434v.412zm6.02-.412h.487v5.718h-.487V23.21l-3.282 4.893h-.491v-5.718h.491v4.89l3.282-4.89z" fill="#989898"/></g><defs><clipPath id="clip0_1_623"><path fill="#fff" transform="translate(16 5)" d="M0 0h171v31H0z"/></clipPath></defs></svg>